0
SECTION
2
HEADER
9
$INSUNITS
70
4
9
$ACADVER
1
AC1014
9
$HANDSEED
5
FFFF
0
ENDSEC
0
SECTION
2
TABLES
0
TABLE
2
VPORT
5
8
100
AcDbSymbolTable
0
ENDTAB
0
TABLE
2
LTYPE
5
5
100
AcDbSymbolTable
0
LTYPE
5
14
100
AcDbSymbolTableRecord
100
AcDbLinetypeTableRecord
2
BYBLOCK
70
0
0
LTYPE
5
15
100
AcDbSymbolTableRecord
100
AcDbLinetypeTableRecord
2
BYLAYER
70
0
0
ENDTAB
0
TABLE
2
LAYER
5
2
100
AcDbSymbolTable
70
2
0
LAYER
5
50
100
AcDbSymbolTableRecord
100
AcDbLayerTableRecord
2
0
70
0
6
CONTINUOUS
0
ENDTAB
0
TABLE
2
STYLE
5
3
100
AcDbSymbolTable
70
1
0
STYLE
5
11
100
AcDbSymbolTableRecord
100
AcDbTextStyleTableRecord
2
STANDARD
70
0
0
ENDTAB
0
TABLE
2
VIEW
5
6
100
AcDbSymbolTable
70
0
0
ENDTAB
0
TABLE
2
UCS
5
7
100
AcDbSymbolTable
70
0
0
ENDTAB
0
TABLE
2
APPID
5
9
100
AcDbSymbolTable
70
2
0
APPID
5
12
100
AcDbSymbolTableRecord
100
AcDbRegAppTableRecord
2
ACAD
70
0
0
ENDTAB
0
TABLE
2
DIMSTYLE
5
A
100
AcDbSymbolTable
70
1
0
ENDTAB
0
TABLE
2
BLOCK_RECORD
5
1
100
AcDbSymbolTable
70
1
0
BLOCK_RECORD
5
1F
100
AcDbSymbolTableRecord
100
AcDbBlockTableRecord
2
*MODEL_SPACE
0
BLOCK_RECORD
5
1B
100
AcDbSymbolTableRecord
100
AcDbBlockTableRecord
2
*PAPER_SPACE
0
ENDTAB
0
ENDSEC
0
SECTION
2
BLOCKS
0
BLOCK
5
20
100
AcDbEntity
100
AcDbBlockBegin
2
*MODEL_SPACE
0
ENDBLK
5
21
100
AcDbEntity
100
AcDbBlockEnd
0
BLOCK
5
1C
100
AcDbEntity
100
AcDbBlockBegin
2
*PAPER_SPACE
0
ENDBLK
5
1D
100
AcDbEntity
100
AcDbBlockEnd
0
ENDSEC
0
SECTION
2
ENTITIES
0
LWPOLYLINE
5
100
100
AcDbEntity
8
0
100
AcDbPolyline
90
4
70
1
43
0.0
10
170.34740145577905
20
67.110687164150121
10
170.34740145577905
20
42.110687164150129
10
173.34740145577911
20
42.110687164150129
10
173.34740145577908
20
67.110687164150121
0
LWPOLYLINE
5
101
100
AcDbEntity
8
0
100
AcDbPolyline
90
4
70
1
43
0.0
10
160.22240145577908
20
42.110687164150129
10
160.22240145577908
20
67.110687164150121
10
157.22240145577905
20
67.110687164150121
10
157.22240145577908
20
42.110687164150129
0
LINE
5
102
100
AcDbEntity
8
0
100
AcDbLine
10
213.03200000000001
20
73.025000000000006
30
0
11
210.49200000000002
21
75.564999999999984
31
0
0
LWPOLYLINE
5
103
100
AcDbEntity
8
0
100
AcDbPolyline
90
4
70
1
43
0.0
10
75.097401455779092
20
35.360687164150271
10
75.097401455779092
20
10.360687164150281
10
78.097401455779107
20
10.36068716415028
10
78.097401455779078
20
35.360687164150278
0
LWPOLYLINE
5
104
100
AcDbEntity
8
0
100
AcDbPolyline
90
4
70
1
43
0.0
10
200.66263953498259
20
8.489688884789075
10
175.66263953498259
20
8.489688884789075
10
175.66263953498259
20
5.4896888847890679
10
200.66263953498259
20
5.4896888847890679
0
LWPOLYLINE
5
105
100
AcDbEntity
8
0
100
AcDbPolyline
90
4
70
1
43
0.0
10
124.59740145577908
20
10.360687164150429
10
127.59740145577908
20
10.360687164150427
10
127.59740145577908
20
35.360687164150427
10
124.59740145577908
20
35.36068716415042
0
LWPOLYLINE
5
106
100
AcDbEntity
8
0
100
AcDbPolyline
90
4
70
1
43
0.0
10
173.34740145577908
20
35.360687164150562
10
170.34740145577905
20
35.360687164150555
10
170.34740145577905
20
10.360687164150566
10
173.34740145577911
20
10.360687164150564
0
LWPOLYLINE
5
107
100
AcDbEntity
8
0
100
AcDbPolyline
90
4
70
1
43
0.0
10
160.22240145577908
20
35.360687164150526
10
157.22240145577905
20
35.360687164150519
10
157.22240145577908
20
10.360687164150526
10
160.22240145577908
20
10.360687164150523
0
LINE
5
108
100
AcDbEntity
8
0
100
AcDbLine
10
129.91263953498259
20
37.239688884789075
30
0
11
154.91263953498256
21
37.239688884789075
31
0
0
LINE
5
109
100
AcDbEntity
8
0
100
AcDbLine
10
154.91263953498256
20
40.239688884789082
30
0
11
154.91263953498256
21
37.239688884789075
31
0
0
LINE
5
110
100
AcDbEntity
8
0
100
AcDbLine
10
154.91263953498256
20
40.239688884789082
30
0
11
129.91263953498259
21
40.239688884789082
31
0
0
LWPOLYLINE
5
111
100
AcDbEntity
8
0
100
AcDbPolyline
90
4
70
1
43
0.0
10
154.91263953498256
20
5.4896888847890679
10
154.91263953498256
20
8.489688884789075
10
129.91263953498256
20
8.489688884789075
10
129.91263953498256
20
5.4896888847890679
0
LINE
5
112
100
AcDbEntity
8
0
100
AcDbLine
10
80.412639534982588
20
37.239688884789075
30
0
11
105.41263953498259
21
37.239688884789075
31
0
0
LWPOLYLINE
5
113
100
AcDbEntity
8
0
100
AcDbPolyline
90
4
70
1
43
0.0
10
105.41263953498259
20
5.4896888847890679
10
105.41263953498259
20
8.489688884789075
10
80.412639534982588
20
8.489688884789075
10
80.412639534982588
20
5.4896888847890679
0
LWPOLYLINE
5
114
100
AcDbEntity
8
0
100
AcDbPolyline
90
4
70
1
43
0.0
10
202.97240145577911
20
67.110687164150121
10
202.97240145577911
20
42.110687164150129
10
205.97240145577913
20
42.110687164150129
10
205.97240145577905
20
67.110687164150121
0
LINE
5
115
100
AcDbEntity
8
0
100
AcDbLine
10
175.66263953498259
20
37.239688884789075
30
0
11
200.66263953498259
21
37.239688884789075
31
0
0
LINE
5
116
100
AcDbEntity
8
0
100
AcDbLine
10
105.41263953498259
20
40.239688884789082
30
0
11
105.41263953498259
21
37.239688884789075
31
0
0
LWPOLYLINE
5
117
100
AcDbEntity
8
0
100
AcDbPolyline
90
4
70
1
43
0.0
10
80.412639534982588
20
68.989688884789075
10
105.41263953498259
20
68.989688884789075
10
105.41263953498259
20
71.989688884789089
10
80.412639534982588
20
71.989688884789089
0
LINE
5
118
100
AcDbEntity
8
0
100
AcDbLine
10
200.66263953498259
20
40.239688884789082
30
0
11
175.66263953498259
21
40.239688884789082
31
0
0
CIRCLE
5
119
100
AcDbEntity
8
0
100
AcDbCircle
10
209.54000000000002
20
38.735687164150107
30
0
40
1.2699999999999889
0
LINE
5
120
100
AcDbEntity
8
0
100
AcDbLine
10
213.03199999999993
20
4.4449999999999958
30
0
11
210.49200000000002
21
1.9050000000000011
31
0
0
LWPOLYLINE
5
121
100
AcDbEntity
8
0
100
AcDbPolyline
90
4
70
1
43
0.0
10
200.66263953498259
20
71.985687164150121
10
175.66263953498259
20
71.985687164150121
10
175.66263953498259
20
68.985687164150121
10
200.66263953498259
20
68.985687164150121
0
LWPOLYLINE
5
122
100
AcDbEntity
8
0
100
AcDbPolyline
90
4
70
1
43
0.0
10
202.97240145577905
20
10.36068716415066
10
205.97240145577913
20
10.360687164150658
10
205.97240145577905
20
35.360687164150654
10
202.97240145577911
20
35.360687164150654
0
LWPOLYLINE
5
123
100
AcDbEntity
8
0
100
AcDbPolyline
90
4
70
1
43
0.0
10
64.972401455779078
20
67.110687164150121
10
61.972401455779078
20
67.110687164150121
10
61.972401455779092
20
42.110687164150129
10
64.972401455779078
20
42.110687164150129
0
LWPOLYLINE
5
124
100
AcDbEntity
8
0
100
AcDbPolyline
90
4
70
1
43
0.0
10
59.662639534982574
20
68.985687164150121
10
59.662639534982574
20
71.985687164150121
10
34.662639534982574
20
71.985687164150121
10
34.662639534982574
20
68.985687164150121
0
LWPOLYLINE
5
125
100
AcDbEntity
8
0
100
AcDbPolyline
90
4
70
1
43
0.0
10
32.347401455779092
20
42.110687164150129
10
32.347401455779078
20
67.110687164150121
10
29.347401455779078
20
67.110687164150121
10
29.347401455779089
20
42.110687164150129
0
LINE
5
126
100
AcDbEntity
8
0
100
AcDbLine
10
22.225000000000001
20
73.025000000000006
30
0
11
24.764999999999997
21
75.564999999999998
31
0
0
LINE
5
127
100
AcDbEntity
8
0
100
AcDbLine
10
22.225000000000001
20
73.025000000000006
30
0
11
22.224999999999998
21
35.715347019419433
31
0
0
LINE
5
128
100
AcDbEntity
8
0
100
AcDbLine
10
24.764999999999997
20
1.9050000000000011
30
0
11
22.225000000000001
21
4.4450000000000056
31
0
0
LWPOLYLINE
5
129
100
AcDbEntity
8
0
100
AcDbPolyline
90
4
70
1
43
0.0
10
34.662639534982588
20
35.59498717081884
10
34.662639534982588
20
10.596261638933315
10
59.626141625589881
20
10.596261638933315
10
59.626141625589881
20
35.59498717081884
0
CIRCLE
5
130
100
AcDbEntity
8
0
100
AcDbCircle
10
25.718
20
38.735687164150121
30
0
40
1.2700000000000022
0
LINE
5
131
100
AcDbEntity
8
0
100
AcDbLine
10
59.662639534982574
20
40.239688884789082
30
0
11
34.662639534982588
21
40.239688884789082
31
0
0
LINE
5
132
100
AcDbEntity
8
0
100
AcDbLine
10
34.662639534982588
20
37.239688884789075
30
0
11
59.662639534982574
21
37.239688884789075
31
0
0
LWPOLYLINE
5
133
100
AcDbEntity
8
0
100
AcDbPolyline
90
4
70
1
43
0.0
10
78.097401455779107
20
42.110687164150129
10
78.097401455779078
20
67.110687164150121
10
75.097401455779092
20
67.110687164150121
10
75.097401455779092
20
42.110687164150129
0
LWPOLYLINE
5
134
100
AcDbEntity
8
0
100
AcDbPolyline
90
4
70
1
43
0.0
10
154.91263953498256
20
68.989688884789075
10
154.91263953498256
20
71.989688884789089
10
129.91263953498256
20
71.989688884789089
10
129.91263953498256
20
68.989688884789075
0
LWPOLYLINE
5
135
100
AcDbEntity
8
0
100
AcDbPolyline
90
4
70
1
43
0.0
10
110.72240145577909
20
35.360687164150377
10
107.72240145577909
20
35.36068716415037
10
107.72240145577911
20
10.360687164150379
10
110.72240145577911
20
10.360687164150377
0
LWPOLYLINE
5
136
100
AcDbEntity
8
0
100
AcDbPolyline
90
4
70
1
43
0.0
10
116.59740145577906
20
35.360687164150391
10
116.59740145577906
20
27.860687164150406
10
119.59740145577905
20
27.860687164150406
10
119.59740145577905
20
35.360687164150406
0
LINE
5
137
100
AcDbEntity
8
0
100
AcDbLine
10
129.91263953498256
20
37.239688884789075
30
0
11
129.91263953498256
21
40.239688884789082
31
0
0
LINE
5
138
100
AcDbEntity
8
0
100
AcDbLine
10
175.66263953498259
20
37.239688884789075
30
0
11
175.66263953498259
21
40.239688884789082
31
0
0
LINE
5
139
100
AcDbEntity
8
0
100
AcDbLine
10
200.66263953498259
20
40.239688884789082
30
0
11
200.66263953498259
21
37.239688884789075
31
0
0
LWPOLYLINE
5
140
100
AcDbEntity
8
0
100
AcDbPolyline
90
4
70
1
43
0.0
10
59.662639534982574
20
8.489688884789075
10
34.662639534982574
20
8.489688884789075
10
34.662639534982574
20
5.4896888847890679
10
59.662639534982574
20
5.4896888847890679
0
LWPOLYLINE
5
141
100
AcDbEntity
8
0
100
AcDbPolyline
90
4
70
1
43
0.0
10
64.972401455779078
20
35.360687164150242
10
61.972401455779078
20
35.360687164150235
10
61.972401455779092
20
10.360687164150242
10
64.972401455779078
20
10.360687164150239
0
LWPOLYLINE
5
142
100
AcDbEntity
8
0
100
AcDbPolyline
90
4
70
1
43
0.0
10
29.347401455779078
20
35.360687164150136
10
29.347401455779089
20
10.360687164150148
10
32.347401455779092
20
10.360687164150146
10
32.347401455779078
20
35.36068716415015
0
LINE
5
143
100
AcDbEntity
8
0
100
AcDbLine
10
27.500000000000007
20
8.0837557932814512
30
0
11
22.225257059458393
21
8.084128388699515
31
0
0
LINE
5
144
100
AcDbEntity
8
0
100
AcDbLine
10
22.225257059458393
20
8.084128388699515
30
0
11
22.225000000000001
21
4.4450000000000056
31
0
0
LINE
5
145
100
AcDbEntity
8
0
100
AcDbLine
10
22.224999999999998
20
35.715347019419433
30
0
11
27.499999999999996
21
35.715347019419433
31
0
0
LINE
5
146
100
AcDbEntity
8
0
100
AcDbLine
10
213.03200000000001
20
73.025000000000006
30
0
11
213.03199999999993
21
4.4449999999999958
31
0
0
LINE
5
147
100
AcDbEntity
8
0
100
AcDbLine
10
24.764999999999997
20
75.564999999999998
30
0
11
210.49200000000002
21
75.564999999999984
31
0
0
LWPOLYLINE
5
148
100
AcDbEntity
8
0
100
AcDbPolyline
90
4
70
1
43
0.0
10
107.72240145577909
20
67.110687164150121
10
107.72240145577911
20
42.110687164150129
10
110.72240145577911
20
42.110687164150129
10
110.72240145577909
20
67.110687164150121
0
LINE
5
149
100
AcDbEntity
8
0
100
AcDbLine
10
27.499999999999996
20
35.715347019419433
30
0
11
27.500000000000007
21
8.0837557932814512
31
0
0
LINE
5
150
100
AcDbEntity
8
0
100
AcDbLine
10
34.662639534982574
20
37.239688884789075
30
0
11
34.662639534982574
21
40.239688884789082
31
0
0
LINE
5
151
100
AcDbEntity
8
0
100
AcDbLine
10
59.662639534982574
20
40.239688884789082
30
0
11
59.662639534982574
21
37.239688884789075
31
0
0
LINE
5
152
100
AcDbEntity
8
0
100
AcDbLine
10
105.41263953498259
20
40.239688884789082
30
0
11
80.412639534982588
21
40.239688884789082
31
0
0
LINE
5
153
100
AcDbEntity
8
0
100
AcDbLine
10
80.412639534982588
20
37.239688884789075
30
0
11
80.412639534982588
21
40.239688884789082
31
0
0
LINE
5
154
100
AcDbEntity
8
0
100
AcDbLine
10
210.49200000000002
20
1.9050000000000011
30
0
11
24.764999999999997
21
1.9050000000000011
31
0
0
LWPOLYLINE
5
155
100
AcDbEntity
8
0
100
AcDbPolyline
90
4
70
1
43
0.0
10
119.59740145577909
20
42.110687164166514
10
119.59740145577909
20
49.610687164166514
10
116.59740145577911
20
49.610687164166514
10
116.59740145577911
20
42.110687164165995
0
LWPOLYLINE
5
156
100
AcDbEntity
8
0
100
AcDbPolyline
90
4
70
1
43
0.0
10
124.59740145577908
20
42.110687164150129
10
127.59740145577908
20
42.110687164150129
10
127.59740145577908
20
67.110687164150121
10
124.59740145577904
20
67.110687164150121
0
CIRCLE
5
157
100
AcDbEntity
8
0
100
AcDbCircle
10
201.29500000000004
20
65.722000000000008
30
0
40
1.1000000000000001
0
CIRCLE
5
158
100
AcDbEntity
8
0
100
AcDbCircle
10
201.29500000000004
20
63.182000000000009
30
0
40
1.100000000000011
0
CIRCLE
5
159
100
AcDbEntity
8
0
100
AcDbCircle
10
201.29999550059438
20
60.599998645484447
30
0
40
1.100000000000015
0
CIRCLE
5
160
100
AcDbEntity
8
0
100
AcDbCircle
10
197.16800000000003
20
60.642000000000003
30
0
40
1.1000000000000028
0
CIRCLE
5
161
100
AcDbEntity
8
0
100
AcDbCircle
10
197.16800000000003
20
63.182000000000009
30
0
40
1.0999999999999999
0
ENDSEC
0
SECTION
2
OBJECTS
0
DICTIONARY
5
C
100
AcDbDictionary
3
ACAD_GROUP
350
D
3
ACAD_MLINESTYLE
350
17
0
DICTIONARY
5
D
100
AcDbDictionary
0
DICTIONARY
5
1A
330
C
100
AcDbDictionary
0
DICTIONARY
5
17
100
AcDbDictionary
0
ENDSEC
0
EOF
