0
SECTION
2
HEADER
9
$INSUNITS
70
4
9
$ACADVER
1
AC1014
9
$HANDSEED
5
FFFF
0
ENDSEC
0
SECTION
2
TABLES
0
TABLE
2
VPORT
5
8
100
AcDbSymbolTable
0
ENDTAB
0
TABLE
2
LTYPE
5
5
100
AcDbSymbolTable
0
LTYPE
5
14
100
AcDbSymbolTableRecord
100
AcDbLinetypeTableRecord
2
BYBLOCK
70
0
0
LTYPE
5
15
100
AcDbSymbolTableRecord
100
AcDbLinetypeTableRecord
2
BYLAYER
70
0
0
ENDTAB
0
TABLE
2
LAYER
5
2
100
AcDbSymbolTable
70
2
0
LAYER
5
50
100
AcDbSymbolTableRecord
100
AcDbLayerTableRecord
2
0
70
0
6
CONTINUOUS
0
ENDTAB
0
TABLE
2
STYLE
5
3
100
AcDbSymbolTable
70
1
0
STYLE
5
11
100
AcDbSymbolTableRecord
100
AcDbTextStyleTableRecord
2
STANDARD
70
0
0
ENDTAB
0
TABLE
2
VIEW
5
6
100
AcDbSymbolTable
70
0
0
ENDTAB
0
TABLE
2
UCS
5
7
100
AcDbSymbolTable
70
0
0
ENDTAB
0
TABLE
2
APPID
5
9
100
AcDbSymbolTable
70
2
0
APPID
5
12
100
AcDbSymbolTableRecord
100
AcDbRegAppTableRecord
2
ACAD
70
0
0
ENDTAB
0
TABLE
2
DIMSTYLE
5
A
100
AcDbSymbolTable
70
1
0
ENDTAB
0
TABLE
2
BLOCK_RECORD
5
1
100
AcDbSymbolTable
70
1
0
BLOCK_RECORD
5
1F
100
AcDbSymbolTableRecord
100
AcDbBlockTableRecord
2
*MODEL_SPACE
0
BLOCK_RECORD
5
1B
100
AcDbSymbolTableRecord
100
AcDbBlockTableRecord
2
*PAPER_SPACE
0
ENDTAB
0
ENDSEC
0
SECTION
2
BLOCKS
0
BLOCK
5
20
100
AcDbEntity
100
AcDbBlockBegin
2
*MODEL_SPACE
0
ENDBLK
5
21
100
AcDbEntity
100
AcDbBlockEnd
0
BLOCK
5
1C
100
AcDbEntity
100
AcDbBlockBegin
2
*PAPER_SPACE
0
ENDBLK
5
1D
100
AcDbEntity
100
AcDbBlockEnd
0
ENDSEC
0
SECTION
2
ENTITIES
0
LWPOLYLINE
5
100
100
AcDbEntity
8
0
100
AcDbPolyline
90
4
70
1
43
0.0
10
61.972401455779078
20
66.110261638933309
10
61.972401455779085
20
43.110261638933316
10
64.972401455779092
20
43.110261638933316
10
64.972401455779078
20
66.110261638933309
0
LWPOLYLINE
5
101
100
AcDbEntity
8
0
100
AcDbPolyline
90
4
70
1
43
0.0
10
29.347401455779089
20
11.360261638933316
10
32.347401455779092
20
11.360261638933316
10
32.347401455779078
20
34.360261638933302
10
29.347401455779078
20
34.360261638933295
0
LWPOLYLINE
5
102
100
AcDbEntity
8
0
100
AcDbPolyline
90
4
70
1
43
0.0
10
81.412639534982588
20
71.989688884789089
10
81.412639534982588
20
68.989688884789075
10
104.41263953498259
20
68.989688884789075
10
104.41263953498259
20
71.989688884789089
0
LWPOLYLINE
5
103
100
AcDbEntity
8
0
100
AcDbPolyline
90
4
70
1
43
0.0
10
153.91263953498256
20
5.489688884789067
10
153.91263953498256
20
8.4896888847890732
10
130.91263953498256
20
8.4896888847890732
10
130.91263953498256
20
5.489688884789067
0
LWPOLYLINE
5
104
100
AcDbEntity
8
0
100
AcDbPolyline
90
4
70
1
43
0.0
10
35.662639534982574
20
8.4896888847890732
10
35.662639534982574
20
5.489688884789067
10
58.662639534982581
20
5.489688884789067
10
58.662639534982581
20
8.4896888847890732
0
LWPOLYLINE
5
105
100
AcDbEntity
8
0
100
AcDbPolyline
90
4
70
1
43
0.0
10
157.22240145577905
20
34.360261638933295
10
157.22240145577905
20
11.360261638933316
10
160.22240145577908
20
11.360261638933316
10
160.22240145577908
20
34.360261638933302
0
LWPOLYLINE
5
106
100
AcDbEntity
8
0
100
AcDbPolyline
90
4
70
1
43
0.0
10
29.347401455779085
20
43.110261638933316
10
32.347401455779085
20
43.110261638933316
10
32.347401455779078
20
66.110261638933309
10
29.347401455779078
20
66.110261638933309
0
LWPOLYLINE
5
107
100
AcDbEntity
8
0
100
AcDbPolyline
90
4
70
1
43
0.0
10
35.662639534982574
20
71.989688884789089
10
35.662639534982574
20
68.989688884789075
10
58.662639534982581
20
68.989688884789075
10
58.662639534982581
20
71.989688884789089
0
LWPOLYLINE
5
108
100
AcDbEntity
8
0
100
AcDbPolyline
90
4
70
1
43
0.0
10
78.097401455779078
20
66.110261638933309
10
75.097401455779092
20
66.110261638933309
10
75.097401455779092
20
43.110261638933316
10
78.097401455779092
20
43.110261638933316
0
CIRCLE
5
109
100
AcDbEntity
8
0
100
AcDbCircle
10
209.54000000000002
20
38.734999999999999
30
0
40
1.2699999999999889
0
LWPOLYLINE
5
110
100
AcDbEntity
8
0
100
AcDbPolyline
90
4
70
1
43
0.0
10
64.972401455779078
20
11.360261638933316
10
64.972401455779078
20
34.360261638933302
10
61.972401455779078
20
34.360261638933295
10
61.972401455779092
20
11.360261638933316
0
LWPOLYLINE
5
111
100
AcDbEntity
8
0
100
AcDbPolyline
90
4
70
1
43
0.0
10
81.412639534982588
20
8.4896888847890732
10
81.412639534982588
20
5.489688884789067
10
104.41263953498259
20
5.489688884789067
10
104.41263953498259
20
8.4896888847890732
0
LWPOLYLINE
5
112
100
AcDbEntity
8
0
100
AcDbPolyline
90
4
70
1
43
0.0
10
75.097401455779092
20
11.360261638933316
10
78.097401455779107
20
11.360261638933316
10
78.097401455779078
20
34.360261638933302
10
75.097401455779092
20
34.360261638933295
0
LWPOLYLINE
5
113
100
AcDbEntity
8
0
100
AcDbPolyline
90
4
70
1
43
0.0
10
170.34740145577905
20
66.110261638933309
10
170.34740145577905
20
43.110261638933316
10
173.34740145577911
20
43.110261638933316
10
173.34740145577908
20
66.110261638933309
0
LWPOLYLINE
5
114
100
AcDbEntity
8
0
100
AcDbPolyline
90
4
70
1
43
0.0
10
160.22240145577908
20
43.110261638933316
10
160.22240145577908
20
66.110261638933309
10
157.22240145577905
20
66.110261638933309
10
157.22240145577908
20
43.110261638933316
0
LWPOLYLINE
5
115
100
AcDbEntity
8
0
100
AcDbPolyline
90
4
70
1
43
0.0
10
153.91263953498256
20
37.189688884789078
10
130.91263953498256
20
37.189688884789078
10
130.91263953498256
20
40.289688884789079
10
153.91263953498256
20
40.289688884789079
0
LWPOLYLINE
5
116
100
AcDbEntity
8
0
100
AcDbPolyline
90
4
70
1
43
0.0
10
202.97240145577911
20
66.110261638933309
10
202.97240145577911
20
43.110261638933316
10
205.97240145577911
20
43.110261638933316
10
205.97240145577905
20
66.110261638933309
0
LWPOLYLINE
5
117
100
AcDbEntity
8
0
100
AcDbPolyline
90
4
70
1
43
0.0
10
176.66263953498259
20
71.989688884789089
10
176.66263953498259
20
68.989688884789075
10
199.66263953498256
20
68.989688884789075
10
199.66263953498256
20
71.989688884789089
0
LWPOLYLINE
5
118
100
AcDbEntity
8
0
100
AcDbPolyline
90
4
70
1
43
0.0
10
81.412639534982588
20
40.289688884789079
10
81.412639534982588
20
37.189688884789078
10
104.41263953498259
20
37.189688884789078
10
104.41263953498259
20
40.289688884789079
0
CIRCLE
5
119
100
AcDbEntity
8
0
100
AcDbCircle
10
25.718
20
38.734999999999999
30
0
40
1.2700000000000022
0
LWPOLYLINE
5
120
100
AcDbEntity
8
0
100
AcDbPolyline
90
4
70
1
43
0.0
10
35.662639534982574
20
40.289688884789079
10
58.662639534982581
20
40.289688884789079
10
58.662639534982581
20
37.189688884789078
10
35.662639534982574
20
37.189688884789078
0
LINE
5
121
100
AcDbEntity
8
0
100
AcDbLine
10
23.029871277553976
20
77.564999999999998
30
0
11
212.03974820441249
21
77.564999999999998
31
0
0
LWPOLYLINE
5
122
100
AcDbEntity
8
0
100
AcDbPolyline
90
4
70
1
43
0.0
10
176.66263953498259
20
5.489688884789067
10
199.66263953498256
20
5.489688884789067
10
199.66263953498256
20
8.4896888847890732
10
176.66263953498259
20
8.4896888847890732
0
LWPOLYLINE
5
123
100
AcDbEntity
8
0
100
AcDbPolyline
90
4
70
1
43
0.0
10
110.72240145577909
20
34.360261638933302
10
107.72240145577909
20
34.360261638933295
10
107.72240145577909
20
11.360261638933316
10
110.72240145577909
20
11.360261638933316
0
LWPOLYLINE
5
124
100
AcDbEntity
8
0
100
AcDbPolyline
90
4
70
1
43
0.0
10
199.66263953498256
20
37.189688884789078
10
199.66263953498256
20
40.289688884789079
10
176.66263953498259
20
40.289688884789079
10
176.66263953498259
20
37.189688884789078
0
LWPOLYLINE
5
125
100
AcDbEntity
8
0
100
AcDbPolyline
90
4
70
1
43
0.0
10
205.97240145577905
20
34.360261638933302
10
202.97240145577911
20
34.360261638933295
10
202.97240145577911
20
11.360261638933316
10
205.97240145577905
20
11.360261638933316
0
LWPOLYLINE
5
126
100
AcDbEntity
8
0
100
AcDbPolyline
90
4
70
1
43
0.0
10
173.34740145577908
20
34.360261638933302
10
170.34740145577905
20
34.360261638933295
10
170.34740145577905
20
11.360261638933316
10
173.34740145577908
20
11.360261638933316
0
LINE
5
127
100
AcDbEntity
8
0
100
AcDbLine
10
215.03199999999998
20
74.572748204412505
30
0
11
212.03974820441249
21
77.564999999999998
31
0
0
LINE
5
128
100
AcDbEntity
8
0
100
AcDbLine
10
215.03199999999998
20
74.572748204412505
30
0
11
215.03199999999998
21
3.126466594326792
31
0
0
LINE
5
129
100
AcDbEntity
8
0
100
AcDbLine
10
215.03199999999998
20
3.126466594326792
30
0
11
211.91053340567319
21
0.0049999999999694733
31
0
0
LWPOLYLINE
5
130
100
AcDbEntity
8
0
100
AcDbPolyline
90
4
70
1
43
0.0
10
127.59740145577906
20
34.360261638933302
10
124.59740145577908
20
34.360261638933295
10
124.59740145577908
20
11.360261638933316
10
127.59740145577906
20
11.360261638933316
0
LWPOLYLINE
5
131
100
AcDbEntity
8
0
100
AcDbPolyline
90
4
70
1
43
0.0
10
116.59740145577906
20
28.860261638933306
10
119.59740145577905
20
28.860261638933306
10
119.59740145577905
20
34.360261638933302
10
116.59740145577906
20
34.360261638933295
0
LINE
5
132
100
AcDbEntity
8
0
100
AcDbLine
10
211.91053340567319
20
0.0049999999999694733
30
0
11
23.069418560066811
21
0.020144897269834816
31
0
0
LWPOLYLINE
5
133
100
AcDbEntity
8
0
100
AcDbPolyline
90
4
70
1
43
0.0
10
153.91263953498256
20
71.989688884789089
10
130.91263953498256
20
71.989688884789089
10
130.91263953498256
20
68.989688884789075
10
153.91263953498256
20
68.989688884789075
0
LWPOLYLINE
5
134
100
AcDbEntity
8
0
100
AcDbPolyline
90
4
70
1
43
0.0
10
124.59740145577908
20
66.110261638933309
10
124.59740145577908
20
43.110261638933316
10
127.59740145577908
20
43.110261638933316
10
127.59740145577906
20
66.110261638933309
0
LWPOLYLINE
5
135
100
AcDbEntity
8
0
100
AcDbPolyline
90
4
70
1
43
0.0
10
119.59740145577905
20
43.110261638933309
10
119.59740145577905
20
48.610261638933316
10
116.59740145577906
20
48.610261638933316
10
116.59740145577906
20
43.110261638932784
0
LWPOLYLINE
5
136
100
AcDbEntity
8
0
100
AcDbPolyline
90
4
70
1
43
0.0
10
110.72240145577909
20
66.110261638933309
10
107.72240145577909
20
66.110261638933309
10
107.72240145577911
20
43.110261638933316
10
110.72240145577911
20
43.110261638933316
0
LINE
5
137
100
AcDbEntity
8
0
100
AcDbLine
10
23.069418560066811
20
0.020144897269834816
30
0
11
20.02500052505453
21
3.0477394061015275
31
0
0
LINE
5
138
100
AcDbEntity
8
0
100
AcDbLine
10
20.025000050555693
20
74.486302215319384
30
0
11
23.029871277553976
21
77.564999999999998
31
0
0
LINE
5
139
100
AcDbEntity
8
0
100
AcDbLine
10
20.025000050555693
20
74.486302215319384
30
0
11
20.02500052505453
21
3.0477394061015275
31
0
0
ENDSEC
0
SECTION
2
OBJECTS
0
DICTIONARY
5
C
100
AcDbDictionary
3
ACAD_GROUP
350
D
3
ACAD_MLINESTYLE
350
17
0
DICTIONARY
5
D
100
AcDbDictionary
0
DICTIONARY
5
1A
330
C
100
AcDbDictionary
0
DICTIONARY
5
17
100
AcDbDictionary
0
ENDSEC
0
EOF
