G75*
%MOIN*%
%OFA0B0*%
%FSLAX25Y25*%
%IPPOS*%
%LPD*%
%AMOC8*
5,1,8,0,0,1.08239X$1,22.5*
%
%ADD10C,0.04000*%
%ADD11C,0.07400*%
%ADD12C,0.08661*%
%ADD13C,0.06693*%
%ADD14C,0.07400*%
%ADD15C,0.02375*%
%ADD16C,0.01200*%
%ADD17C,0.03543*%
%ADD18C,0.01000*%
%ADD19C,0.01600*%
%ADD20C,0.00800*%
D10*
X0073102Y0052978D02*
X0077102Y0052978D01*
X0077102Y0075222D02*
X0073102Y0075222D01*
D11*
X0218502Y0029100D03*
X0228502Y0029100D03*
X0238502Y0029100D03*
X0248502Y0029100D03*
X0258502Y0029100D03*
X0268502Y0029100D03*
X0278502Y0029100D03*
X0288502Y0029100D03*
X0298502Y0029100D03*
X0757252Y0252850D03*
X0757252Y0262850D03*
X0773502Y0262850D03*
X0773502Y0252850D03*
X0773502Y0272850D03*
X0112252Y0300350D03*
X0102252Y0300350D03*
D12*
X0083344Y0129130D03*
X0083344Y0101570D03*
D13*
X0073502Y0105507D03*
X0073502Y0125193D03*
D14*
X0083552Y0284100D02*
X0090952Y0284100D01*
X0090952Y0294100D02*
X0083552Y0294100D01*
X0083552Y0304100D02*
X0090952Y0304100D01*
X0797302Y0304100D02*
X0804702Y0304100D01*
X0804702Y0294100D02*
X0797302Y0294100D01*
X0797302Y0284100D02*
X0804702Y0284100D01*
D15*
X0763452Y0286800D03*
X0760002Y0282531D03*
X0694752Y0285350D03*
X0641002Y0256600D03*
X0584752Y0287850D03*
X0603502Y0297850D03*
X0521002Y0285350D03*
X0463502Y0256600D03*
X0524752Y0225350D03*
X0569752Y0225350D03*
X0584752Y0222850D03*
X0584752Y0175350D03*
X0612252Y0162850D03*
X0648502Y0175350D03*
X0693502Y0202850D03*
X0699752Y0227850D03*
X0739752Y0227850D03*
X0763502Y0222850D03*
X0769752Y0215350D03*
X0791002Y0186600D03*
X0792252Y0139100D03*
X0746002Y0105350D03*
X0699752Y0105350D03*
X0648502Y0076600D03*
X0591002Y0056600D03*
X0551002Y0056600D03*
X0559752Y0104100D03*
X0522252Y0104100D03*
X0468502Y0056600D03*
X0453502Y0040350D03*
X0397252Y0056600D03*
X0356002Y0056600D03*
X0273502Y0076600D03*
X0258502Y0077850D03*
X0234752Y0077850D03*
X0218502Y0089100D03*
X0212252Y0084100D03*
X0195302Y0093100D03*
X0189752Y0091600D03*
X0176702Y0102300D03*
X0163502Y0105350D03*
X0161002Y0100350D03*
X0138052Y0108950D03*
X0130477Y0112225D03*
X0124052Y0108700D03*
X0130852Y0104867D03*
X0114752Y0116600D03*
X0106002Y0122850D03*
X0092252Y0120350D03*
X0079752Y0114100D03*
X0099702Y0092200D03*
X0088502Y0086600D03*
X0109702Y0068950D03*
X0104349Y0067386D03*
X0099752Y0064100D03*
X0093552Y0059650D03*
X0097402Y0053400D03*
X0100502Y0041850D03*
X0123502Y0052850D03*
X0127252Y0046600D03*
X0122073Y0061421D03*
X0116002Y0066600D03*
X0128440Y0071500D03*
X0133502Y0069100D03*
X0156002Y0071600D03*
X0159752Y0076600D03*
X0163502Y0080350D03*
X0127252Y0090350D03*
X0081402Y0067000D03*
X0081551Y0063843D03*
X0080952Y0058800D03*
X0081002Y0045350D03*
X0142752Y0025550D03*
X0186002Y0050350D03*
X0208502Y0040350D03*
X0191002Y0106600D03*
X0125752Y0139900D03*
X0121002Y0133150D03*
X0126002Y0157850D03*
X0101483Y0165350D03*
X0092252Y0159100D03*
X0213502Y0222850D03*
X0218502Y0192850D03*
X0221002Y0170350D03*
X0236002Y0159100D03*
X0261002Y0141600D03*
X0333502Y0106600D03*
X0372252Y0105350D03*
X0444752Y0155350D03*
X0412252Y0164100D03*
X0398502Y0176600D03*
X0443502Y0187850D03*
X0389752Y0222850D03*
X0372252Y0222850D03*
X0317252Y0222850D03*
X0263502Y0259100D03*
X0202252Y0255350D03*
X0213502Y0291600D03*
X0261002Y0295350D03*
X0327852Y0285000D03*
X0389752Y0290350D03*
X0451002Y0296600D03*
X0483502Y0154100D03*
X0633502Y0032850D03*
X0731002Y0056600D03*
X0772252Y0057850D03*
X0793502Y0037850D03*
X0133702Y0294050D03*
X0113952Y0278250D03*
X0117252Y0269100D03*
X0103502Y0269100D03*
X0131002Y0262850D03*
X0128502Y0250350D03*
D16*
X0070602Y0050387D02*
X0070602Y0032470D01*
X0079372Y0023700D01*
X0808882Y0023700D01*
X0817652Y0032470D01*
X0817652Y0300730D01*
X0808882Y0309500D01*
X0079372Y0309500D01*
X0070602Y0300730D01*
X0070602Y0129200D01*
X0070909Y0129423D01*
X0071603Y0129777D01*
X0072344Y0130017D01*
X0073113Y0130139D01*
X0073315Y0130139D01*
X0073315Y0125380D01*
X0073689Y0125380D01*
X0073689Y0130139D01*
X0073891Y0130139D01*
X0074660Y0130017D01*
X0075401Y0129777D01*
X0076094Y0129423D01*
X0076724Y0128965D01*
X0077275Y0128415D01*
X0077733Y0127785D01*
X0078086Y0127091D01*
X0078327Y0126351D01*
X0078448Y0125582D01*
X0078448Y0125380D01*
X0073689Y0125380D01*
X0073689Y0125005D01*
X0073689Y0120246D01*
X0073891Y0120246D01*
X0074660Y0120368D01*
X0075401Y0120608D01*
X0076094Y0120962D01*
X0076724Y0121420D01*
X0077275Y0121970D01*
X0077733Y0122600D01*
X0078086Y0123294D01*
X0078327Y0124034D01*
X0078448Y0124803D01*
X0078448Y0125005D01*
X0073689Y0125005D01*
X0073315Y0125005D01*
X0073315Y0120246D01*
X0073113Y0120246D01*
X0072344Y0120368D01*
X0071603Y0120608D01*
X0070909Y0120962D01*
X0070602Y0121185D01*
X0070602Y0109037D01*
X0070927Y0109362D01*
X0072598Y0110054D01*
X0074406Y0110054D01*
X0076077Y0109362D01*
X0077356Y0108083D01*
X0078048Y0106412D01*
X0078048Y0104603D01*
X0077356Y0102932D01*
X0076077Y0101653D01*
X0074406Y0100961D01*
X0072598Y0100961D01*
X0070927Y0101653D01*
X0070602Y0101978D01*
X0070602Y0077813D01*
X0070807Y0078018D01*
X0071397Y0078412D01*
X0072052Y0078684D01*
X0072747Y0078822D01*
X0075102Y0078822D01*
X0075102Y0075222D01*
X0075102Y0075222D01*
X0080702Y0075222D01*
X0080702Y0074867D01*
X0080564Y0074172D01*
X0080292Y0073517D01*
X0079898Y0072927D01*
X0079397Y0072426D01*
X0078807Y0072032D01*
X0078152Y0071760D01*
X0077457Y0071622D01*
X0075102Y0071622D01*
X0075102Y0075222D01*
X0075102Y0075222D01*
X0080702Y0075222D01*
X0080702Y0075577D01*
X0080564Y0076272D01*
X0080292Y0076927D01*
X0079898Y0077517D01*
X0079397Y0078018D01*
X0078807Y0078412D01*
X0078152Y0078684D01*
X0077457Y0078822D01*
X0075102Y0078822D01*
X0075102Y0075222D01*
X0075102Y0071622D01*
X0072747Y0071622D01*
X0072052Y0071760D01*
X0071807Y0071862D01*
X0071528Y0070747D01*
X0071202Y0070551D01*
X0071202Y0057649D01*
X0071528Y0057453D01*
X0071807Y0056338D01*
X0072052Y0056440D01*
X0072747Y0056578D01*
X0075102Y0056578D01*
X0075102Y0052978D01*
X0075102Y0052978D01*
X0080702Y0052978D01*
X0080702Y0053333D01*
X0080564Y0054028D01*
X0080292Y0054683D01*
X0079898Y0055273D01*
X0079397Y0055774D01*
X0078807Y0056168D01*
X0078152Y0056440D01*
X0077457Y0056578D01*
X0075102Y0056578D01*
X0075102Y0052978D01*
X0075102Y0052978D01*
X0080702Y0052978D01*
X0080702Y0052623D01*
X0080564Y0051928D01*
X0080292Y0051273D01*
X0079898Y0050683D01*
X0079397Y0050182D01*
X0078807Y0049788D01*
X0078152Y0049516D01*
X0077457Y0049378D01*
X0075102Y0049378D01*
X0075102Y0052978D01*
X0075102Y0052978D01*
X0075102Y0049378D01*
X0072747Y0049378D01*
X0072052Y0049516D01*
X0071397Y0049788D01*
X0070807Y0050182D01*
X0070602Y0050387D01*
X0070602Y0050055D02*
X0070996Y0050055D01*
X0070602Y0048857D02*
X0126133Y0048857D01*
X0126263Y0048987D02*
X0124865Y0047589D01*
X0124865Y0046617D01*
X0122798Y0044550D01*
X0100798Y0044550D01*
X0100485Y0044237D01*
X0099513Y0044237D01*
X0098115Y0042839D01*
X0098115Y0040861D01*
X0099513Y0039463D01*
X0101491Y0039463D01*
X0102889Y0040861D01*
X0102889Y0041150D01*
X0124206Y0041150D01*
X0127040Y0043984D01*
X0144002Y0027022D01*
X0145174Y0025850D01*
X0214822Y0025850D01*
X0215726Y0024946D01*
X0217527Y0024200D01*
X0219477Y0024200D01*
X0221278Y0024946D01*
X0222656Y0026324D01*
X0223321Y0027930D01*
X0223332Y0027859D01*
X0223590Y0027066D01*
X0223969Y0026322D01*
X0224459Y0025647D01*
X0225049Y0025057D01*
X0225724Y0024567D01*
X0226467Y0024188D01*
X0227261Y0023930D01*
X0228085Y0023800D01*
X0228102Y0023800D01*
X0228102Y0028700D01*
X0228902Y0028700D01*
X0228902Y0023800D01*
X0228919Y0023800D01*
X0229743Y0023930D01*
X0230536Y0024188D01*
X0231280Y0024567D01*
X0231955Y0025057D01*
X0232545Y0025647D01*
X0233035Y0026322D01*
X0233414Y0027066D01*
X0233671Y0027859D01*
X0233683Y0027930D01*
X0234348Y0026324D01*
X0235726Y0024946D01*
X0237527Y0024200D01*
X0239477Y0024200D01*
X0241278Y0024946D01*
X0242656Y0026324D01*
X0243402Y0028125D01*
X0243402Y0030075D01*
X0242656Y0031876D01*
X0241278Y0033254D01*
X0240202Y0033700D01*
X0240202Y0038554D01*
X0239406Y0039350D01*
X0243348Y0039350D01*
X0246802Y0035896D01*
X0246802Y0033700D01*
X0245726Y0033254D01*
X0244348Y0031876D01*
X0243602Y0030075D01*
X0243602Y0028125D01*
X0244348Y0026324D01*
X0245726Y0024946D01*
X0247527Y0024200D01*
X0249477Y0024200D01*
X0251278Y0024946D01*
X0252656Y0026324D01*
X0253402Y0028125D01*
X0253402Y0030075D01*
X0252656Y0031876D01*
X0251278Y0033254D01*
X0250202Y0033700D01*
X0250202Y0037304D01*
X0246356Y0041150D01*
X0254048Y0041150D01*
X0256802Y0038396D01*
X0256802Y0033700D01*
X0255726Y0033254D01*
X0254348Y0031876D01*
X0253602Y0030075D01*
X0253602Y0028125D01*
X0254348Y0026324D01*
X0255726Y0024946D01*
X0257527Y0024200D01*
X0259477Y0024200D01*
X0261278Y0024946D01*
X0262656Y0026324D01*
X0263402Y0028125D01*
X0263402Y0030075D01*
X0262656Y0031876D01*
X0261278Y0033254D01*
X0260202Y0033700D01*
X0260202Y0039804D01*
X0256452Y0043554D01*
X0256452Y0043554D01*
X0255656Y0044350D01*
X0264598Y0044350D01*
X0266802Y0042146D01*
X0266802Y0033700D01*
X0265726Y0033254D01*
X0264348Y0031876D01*
X0263602Y0030075D01*
X0263602Y0028125D01*
X0264348Y0026324D01*
X0265726Y0024946D01*
X0267527Y0024200D01*
X0269477Y0024200D01*
X0271278Y0024946D01*
X0272656Y0026324D01*
X0273402Y0028125D01*
X0273402Y0030075D01*
X0272656Y0031876D01*
X0271278Y0033254D01*
X0270202Y0033700D01*
X0270202Y0043554D01*
X0267606Y0046150D01*
X0270298Y0046150D01*
X0276802Y0039646D01*
X0276802Y0033700D01*
X0275726Y0033254D01*
X0274348Y0031876D01*
X0273602Y0030075D01*
X0273602Y0028125D01*
X0274348Y0026324D01*
X0275726Y0024946D01*
X0277527Y0024200D01*
X0279477Y0024200D01*
X0281278Y0024946D01*
X0282656Y0026324D01*
X0283321Y0027930D01*
X0283332Y0027859D01*
X0283590Y0027066D01*
X0283969Y0026322D01*
X0284459Y0025647D01*
X0285049Y0025057D01*
X0285724Y0024567D01*
X0286467Y0024188D01*
X0287261Y0023930D01*
X0288085Y0023800D01*
X0288102Y0023800D01*
X0288102Y0028700D01*
X0288902Y0028700D01*
X0288902Y0023800D01*
X0288919Y0023800D01*
X0289743Y0023930D01*
X0290536Y0024188D01*
X0291280Y0024567D01*
X0291955Y0025057D01*
X0292545Y0025647D01*
X0293035Y0026322D01*
X0293414Y0027066D01*
X0293671Y0027859D01*
X0293683Y0027930D01*
X0294348Y0026324D01*
X0295726Y0024946D01*
X0297527Y0024200D01*
X0299477Y0024200D01*
X0301278Y0024946D01*
X0302656Y0026324D01*
X0303402Y0028125D01*
X0303402Y0030075D01*
X0302656Y0031876D01*
X0301278Y0033254D01*
X0299477Y0034000D01*
X0297527Y0034000D01*
X0295726Y0033254D01*
X0294348Y0031876D01*
X0293683Y0030270D01*
X0293671Y0030341D01*
X0293414Y0031134D01*
X0293035Y0031878D01*
X0292545Y0032553D01*
X0291955Y0033143D01*
X0291280Y0033633D01*
X0290536Y0034012D01*
X0289743Y0034269D01*
X0288919Y0034400D01*
X0288902Y0034400D01*
X0288902Y0029500D01*
X0288102Y0029500D01*
X0288102Y0034400D01*
X0288085Y0034400D01*
X0287261Y0034269D01*
X0286467Y0034012D01*
X0285724Y0033633D01*
X0285049Y0033143D01*
X0284459Y0032553D01*
X0283969Y0031878D01*
X0283590Y0031134D01*
X0283332Y0030341D01*
X0283321Y0030270D01*
X0282656Y0031876D01*
X0281278Y0033254D01*
X0280202Y0033700D01*
X0280202Y0041054D01*
X0271706Y0049550D01*
X0240672Y0049550D01*
X0197689Y0092533D01*
X0197689Y0094089D01*
X0196291Y0095487D01*
X0194313Y0095487D01*
X0192915Y0094089D01*
X0192915Y0092111D01*
X0194313Y0090713D01*
X0194701Y0090713D01*
X0195864Y0089550D01*
X0194206Y0089550D01*
X0192139Y0091617D01*
X0192139Y0092589D01*
X0190741Y0093987D01*
X0188763Y0093987D01*
X0187365Y0092589D01*
X0187365Y0090611D01*
X0188763Y0089213D01*
X0189735Y0089213D01*
X0192798Y0086150D01*
X0196548Y0086150D01*
X0205798Y0076900D01*
X0169356Y0076900D01*
X0165889Y0080367D01*
X0165889Y0081339D01*
X0164491Y0082737D01*
X0162513Y0082737D01*
X0161115Y0081339D01*
X0161115Y0079361D01*
X0162513Y0077963D01*
X0163485Y0077963D01*
X0166348Y0075100D01*
X0163656Y0075100D01*
X0162139Y0076617D01*
X0162139Y0077589D01*
X0160741Y0078987D01*
X0158763Y0078987D01*
X0157365Y0077589D01*
X0157365Y0075611D01*
X0158763Y0074213D01*
X0159735Y0074213D01*
X0160648Y0073300D01*
X0157678Y0073300D01*
X0156991Y0073987D01*
X0155013Y0073987D01*
X0153615Y0072589D01*
X0153615Y0070611D01*
X0155013Y0069213D01*
X0156991Y0069213D01*
X0157678Y0069900D01*
X0204048Y0069900D01*
X0236802Y0037146D01*
X0236802Y0033700D01*
X0235726Y0033254D01*
X0234348Y0031876D01*
X0233683Y0030270D01*
X0233671Y0030341D01*
X0233414Y0031134D01*
X0233035Y0031878D01*
X0232545Y0032553D01*
X0231955Y0033143D01*
X0231280Y0033633D01*
X0230536Y0034012D01*
X0229743Y0034269D01*
X0228919Y0034400D01*
X0228902Y0034400D01*
X0228902Y0029500D01*
X0228102Y0029500D01*
X0228102Y0034400D01*
X0228085Y0034400D01*
X0227261Y0034269D01*
X0226467Y0034012D01*
X0225724Y0033633D01*
X0225049Y0033143D01*
X0224459Y0032553D01*
X0223969Y0031878D01*
X0223590Y0031134D01*
X0223332Y0030341D01*
X0223321Y0030270D01*
X0222656Y0031876D01*
X0221278Y0033254D01*
X0219477Y0034000D01*
X0217527Y0034000D01*
X0215726Y0033254D01*
X0214348Y0031876D01*
X0213602Y0030075D01*
X0213602Y0029850D01*
X0146830Y0029850D01*
X0130080Y0046600D01*
X0135502Y0052022D01*
X0135502Y0067724D01*
X0135889Y0068111D01*
X0135889Y0070089D01*
X0134491Y0071487D01*
X0132513Y0071487D01*
X0131115Y0070089D01*
X0131115Y0068111D01*
X0131502Y0067724D01*
X0131502Y0053678D01*
X0126811Y0048987D01*
X0126263Y0048987D01*
X0124934Y0047658D02*
X0070602Y0047658D01*
X0070602Y0046460D02*
X0124708Y0046460D01*
X0123509Y0045261D02*
X0070602Y0045261D01*
X0070602Y0044063D02*
X0099338Y0044063D01*
X0098140Y0042864D02*
X0070602Y0042864D01*
X0070602Y0041666D02*
X0098115Y0041666D01*
X0098508Y0040467D02*
X0070602Y0040467D01*
X0070602Y0039269D02*
X0131755Y0039269D01*
X0130556Y0040467D02*
X0102496Y0040467D01*
X0098391Y0051013D02*
X0099789Y0052411D01*
X0099789Y0054389D01*
X0098391Y0055787D01*
X0098252Y0055787D01*
X0098252Y0060363D01*
X0097315Y0061300D01*
X0097315Y0061300D01*
X0090952Y0067663D01*
X0090015Y0068600D01*
X0083178Y0068600D01*
X0082391Y0069387D01*
X0080413Y0069387D01*
X0079015Y0067989D01*
X0079015Y0066011D01*
X0079679Y0065346D01*
X0079164Y0064831D01*
X0079164Y0062854D01*
X0080563Y0061455D01*
X0082540Y0061455D01*
X0083328Y0062243D01*
X0088697Y0062243D01*
X0091165Y0059775D01*
X0091165Y0058661D01*
X0092563Y0057263D01*
X0094541Y0057263D01*
X0095052Y0057774D01*
X0095052Y0054426D01*
X0095015Y0054389D01*
X0095015Y0052411D01*
X0096413Y0051013D01*
X0098391Y0051013D01*
X0098632Y0051254D02*
X0129077Y0051254D01*
X0127879Y0050055D02*
X0079208Y0050055D01*
X0080280Y0051254D02*
X0096172Y0051254D01*
X0095015Y0052452D02*
X0080668Y0052452D01*
X0080639Y0053651D02*
X0083231Y0053651D01*
X0083250Y0053643D02*
X0084277Y0053643D01*
X0085226Y0054036D01*
X0085953Y0054763D01*
X0086346Y0055712D01*
X0086346Y0056740D01*
X0085953Y0057689D01*
X0085226Y0058415D01*
X0084277Y0058809D01*
X0083250Y0058809D01*
X0082300Y0058415D01*
X0081574Y0057689D01*
X0081181Y0056740D01*
X0081181Y0055712D01*
X0081574Y0054763D01*
X0082300Y0054036D01*
X0083250Y0053643D01*
X0084295Y0053651D02*
X0095015Y0053651D01*
X0095052Y0054849D02*
X0085989Y0054849D01*
X0086346Y0056048D02*
X0095052Y0056048D01*
X0095052Y0057246D02*
X0086136Y0057246D01*
X0085155Y0058445D02*
X0091381Y0058445D01*
X0091165Y0059643D02*
X0071202Y0059643D01*
X0071202Y0058445D02*
X0082372Y0058445D01*
X0081391Y0057246D02*
X0071580Y0057246D01*
X0071202Y0060842D02*
X0090097Y0060842D01*
X0088899Y0062040D02*
X0083126Y0062040D01*
X0079977Y0062040D02*
X0071202Y0062040D01*
X0071202Y0063239D02*
X0079164Y0063239D01*
X0079164Y0064437D02*
X0071202Y0064437D01*
X0071202Y0065636D02*
X0079390Y0065636D01*
X0079015Y0066834D02*
X0071202Y0066834D01*
X0071202Y0068033D02*
X0079059Y0068033D01*
X0080257Y0069232D02*
X0071202Y0069232D01*
X0071202Y0070430D02*
X0081655Y0070430D01*
X0081574Y0070511D02*
X0082300Y0069785D01*
X0083250Y0069391D01*
X0084277Y0069391D01*
X0085226Y0069785D01*
X0085953Y0070511D01*
X0086346Y0071460D01*
X0086346Y0072488D01*
X0085953Y0073437D01*
X0085226Y0074163D01*
X0084277Y0074557D01*
X0083250Y0074557D01*
X0082300Y0074163D01*
X0081574Y0073437D01*
X0081181Y0072488D01*
X0081181Y0071460D01*
X0081574Y0070511D01*
X0081181Y0071629D02*
X0077489Y0071629D01*
X0075102Y0071629D02*
X0075102Y0071629D01*
X0075102Y0072827D02*
X0075102Y0072827D01*
X0075102Y0074026D02*
X0075102Y0074026D01*
X0075102Y0075222D02*
X0075102Y0075222D01*
X0075102Y0075224D02*
X0075102Y0075224D01*
X0075102Y0076423D02*
X0075102Y0076423D01*
X0075102Y0077621D02*
X0075102Y0077621D01*
X0075102Y0078820D02*
X0075102Y0078820D01*
X0077469Y0078820D02*
X0110817Y0078820D01*
X0109619Y0077621D02*
X0079794Y0077621D01*
X0080501Y0076423D02*
X0108420Y0076423D01*
X0107222Y0075224D02*
X0080702Y0075224D01*
X0080503Y0074026D02*
X0082162Y0074026D01*
X0081321Y0072827D02*
X0079798Y0072827D01*
X0082547Y0069232D02*
X0102649Y0069232D01*
X0102649Y0069062D02*
X0101962Y0068375D01*
X0101962Y0066397D01*
X0103360Y0064999D01*
X0105338Y0064999D01*
X0106737Y0066397D01*
X0106737Y0068375D01*
X0106049Y0069062D01*
X0106049Y0069243D01*
X0116706Y0079900D01*
X0117702Y0080896D01*
X0117702Y0105546D01*
X0121665Y0109508D01*
X0121665Y0107711D01*
X0123063Y0106313D01*
X0123611Y0106313D01*
X0125252Y0104672D01*
X0125252Y0091726D01*
X0124865Y0091339D01*
X0124865Y0089361D01*
X0126263Y0087963D01*
X0128241Y0087963D01*
X0129639Y0089361D01*
X0129639Y0091339D01*
X0129252Y0091726D01*
X0129252Y0103091D01*
X0129863Y0102480D01*
X0130835Y0102480D01*
X0133669Y0099646D01*
X0134665Y0098650D01*
X0159326Y0098650D01*
X0160013Y0097963D01*
X0161991Y0097963D01*
X0163389Y0099361D01*
X0163389Y0101339D01*
X0161991Y0102737D01*
X0160013Y0102737D01*
X0159326Y0102050D01*
X0136073Y0102050D01*
X0133239Y0104884D01*
X0133239Y0105856D01*
X0131841Y0107254D01*
X0129863Y0107254D01*
X0129095Y0106486D01*
X0128080Y0107500D01*
X0126439Y0109141D01*
X0126439Y0109689D01*
X0125603Y0110525D01*
X0128801Y0110525D01*
X0129488Y0109838D01*
X0131466Y0109838D01*
X0132864Y0111236D01*
X0132864Y0112433D01*
X0135665Y0109633D01*
X0135665Y0107961D01*
X0137063Y0106563D01*
X0139041Y0106563D01*
X0140439Y0107961D01*
X0140439Y0109358D01*
X0145152Y0104646D01*
X0146148Y0103650D01*
X0161826Y0103650D01*
X0162513Y0102963D01*
X0164491Y0102963D01*
X0165889Y0104361D01*
X0165889Y0106339D01*
X0164491Y0107737D01*
X0162513Y0107737D01*
X0161826Y0107050D01*
X0147556Y0107050D01*
X0122917Y0131689D01*
X0123389Y0132161D01*
X0123389Y0134139D01*
X0121991Y0135537D01*
X0120013Y0135537D01*
X0118615Y0134139D01*
X0118615Y0132161D01*
X0119302Y0131474D01*
X0119302Y0130804D01*
X0112702Y0137404D01*
X0112702Y0274596D01*
X0113969Y0275863D01*
X0114941Y0275863D01*
X0116339Y0277261D01*
X0116339Y0279239D01*
X0114941Y0280637D01*
X0112963Y0280637D01*
X0111565Y0279239D01*
X0111565Y0278267D01*
X0109302Y0276004D01*
X0109302Y0135996D01*
X0110298Y0135000D01*
X0130685Y0114612D01*
X0129488Y0114612D01*
X0128801Y0113925D01*
X0121273Y0113925D01*
X0120277Y0112929D01*
X0114302Y0106954D01*
X0114302Y0082304D01*
X0102649Y0070651D01*
X0102649Y0069062D01*
X0101962Y0068033D02*
X0090582Y0068033D01*
X0090952Y0067663D02*
X0090952Y0067663D01*
X0091780Y0066834D02*
X0101962Y0066834D01*
X0102723Y0065636D02*
X0092979Y0065636D01*
X0094177Y0064437D02*
X0114788Y0064437D01*
X0115013Y0064213D02*
X0116991Y0064213D01*
X0117678Y0064900D01*
X0117956Y0064900D01*
X0130456Y0077400D01*
X0154206Y0077400D01*
X0176719Y0099913D01*
X0177691Y0099913D01*
X0179089Y0101311D01*
X0179089Y0103289D01*
X0177691Y0104687D01*
X0175794Y0104687D01*
X0176006Y0104900D01*
X0189326Y0104900D01*
X0190013Y0104213D01*
X0191991Y0104213D01*
X0193389Y0105611D01*
X0193389Y0107589D01*
X0191991Y0108987D01*
X0190013Y0108987D01*
X0189326Y0108300D01*
X0174598Y0108300D01*
X0173602Y0107304D01*
X0152798Y0086500D01*
X0124848Y0086500D01*
X0123852Y0085504D01*
X0109685Y0071337D01*
X0108713Y0071337D01*
X0107315Y0069939D01*
X0107315Y0067961D01*
X0108713Y0066563D01*
X0110691Y0066563D01*
X0112089Y0067961D01*
X0112089Y0068933D01*
X0126256Y0083100D01*
X0154206Y0083100D01*
X0174315Y0103208D01*
X0174315Y0102317D01*
X0152798Y0080800D01*
X0129048Y0080800D01*
X0117113Y0068865D01*
X0116991Y0068987D01*
X0115013Y0068987D01*
X0113615Y0067589D01*
X0113615Y0065611D01*
X0115013Y0064213D01*
X0113615Y0065636D02*
X0105976Y0065636D01*
X0106737Y0066834D02*
X0108441Y0066834D01*
X0107315Y0068033D02*
X0106737Y0068033D01*
X0107315Y0069232D02*
X0106049Y0069232D01*
X0107236Y0070430D02*
X0107806Y0070430D01*
X0108435Y0071629D02*
X0109976Y0071629D01*
X0109633Y0072827D02*
X0111175Y0072827D01*
X0110832Y0074026D02*
X0112373Y0074026D01*
X0112030Y0075224D02*
X0113572Y0075224D01*
X0113229Y0076423D02*
X0114770Y0076423D01*
X0114427Y0077621D02*
X0115969Y0077621D01*
X0115626Y0078820D02*
X0117167Y0078820D01*
X0116824Y0080018D02*
X0118366Y0080018D01*
X0117702Y0081217D02*
X0119564Y0081217D01*
X0120763Y0082415D02*
X0117702Y0082415D01*
X0117702Y0083614D02*
X0121961Y0083614D01*
X0123160Y0084812D02*
X0117702Y0084812D01*
X0117702Y0086011D02*
X0124358Y0086011D01*
X0125818Y0088408D02*
X0117702Y0088408D01*
X0117702Y0089606D02*
X0124865Y0089606D01*
X0124865Y0090805D02*
X0117702Y0090805D01*
X0117702Y0092003D02*
X0125252Y0092003D01*
X0125252Y0093202D02*
X0117702Y0093202D01*
X0117702Y0094400D02*
X0125252Y0094400D01*
X0125252Y0095599D02*
X0117702Y0095599D01*
X0117702Y0096797D02*
X0125252Y0096797D01*
X0125252Y0097996D02*
X0117702Y0097996D01*
X0117702Y0099194D02*
X0125252Y0099194D01*
X0125252Y0100393D02*
X0117702Y0100393D01*
X0117702Y0101591D02*
X0125252Y0101591D01*
X0125252Y0102790D02*
X0117702Y0102790D01*
X0117702Y0103988D02*
X0125252Y0103988D01*
X0124737Y0105187D02*
X0117702Y0105187D01*
X0118541Y0106385D02*
X0122990Y0106385D01*
X0121792Y0107584D02*
X0119740Y0107584D01*
X0120939Y0108782D02*
X0121665Y0108782D01*
X0118527Y0111179D02*
X0107702Y0111179D01*
X0107702Y0109981D02*
X0117329Y0109981D01*
X0116130Y0108782D02*
X0107702Y0108782D01*
X0107702Y0107584D02*
X0114932Y0107584D01*
X0114302Y0106385D02*
X0107702Y0106385D01*
X0107702Y0105187D02*
X0114302Y0105187D01*
X0114302Y0103988D02*
X0107702Y0103988D01*
X0107702Y0102790D02*
X0114302Y0102790D01*
X0114302Y0101591D02*
X0107702Y0101591D01*
X0107702Y0100393D02*
X0114302Y0100393D01*
X0114302Y0099194D02*
X0107702Y0099194D01*
X0107702Y0097996D02*
X0114302Y0097996D01*
X0114302Y0096797D02*
X0106703Y0096797D01*
X0106706Y0096800D02*
X0107702Y0097796D01*
X0107702Y0121174D01*
X0108389Y0121861D01*
X0108389Y0123839D01*
X0107202Y0125026D01*
X0107202Y0267946D01*
X0107177Y0267971D01*
X0105889Y0269258D01*
X0105889Y0270089D01*
X0104491Y0271487D01*
X0102513Y0271487D01*
X0101115Y0270089D01*
X0101115Y0268111D01*
X0102513Y0266713D01*
X0103344Y0266713D01*
X0103602Y0266454D01*
X0103602Y0166607D01*
X0102472Y0167737D01*
X0100494Y0167737D01*
X0099096Y0166339D01*
X0099096Y0165367D01*
X0094529Y0160800D01*
X0093928Y0160800D01*
X0093241Y0161487D01*
X0091263Y0161487D01*
X0089865Y0160089D01*
X0089865Y0158111D01*
X0091263Y0156713D01*
X0093241Y0156713D01*
X0093928Y0157400D01*
X0095937Y0157400D01*
X0096933Y0158396D01*
X0101500Y0162963D01*
X0102472Y0162963D01*
X0103602Y0164093D01*
X0103602Y0122704D01*
X0103615Y0122692D01*
X0103615Y0121861D01*
X0104302Y0121174D01*
X0104302Y0099204D01*
X0099685Y0094587D01*
X0098713Y0094587D01*
X0097315Y0093189D01*
X0097315Y0091211D01*
X0098713Y0089813D01*
X0100691Y0089813D01*
X0102089Y0091211D01*
X0102089Y0092183D01*
X0106706Y0096800D01*
X0105505Y0095599D02*
X0114302Y0095599D01*
X0114302Y0094400D02*
X0104306Y0094400D01*
X0103108Y0093202D02*
X0114302Y0093202D01*
X0114302Y0092003D02*
X0102089Y0092003D01*
X0101683Y0090805D02*
X0114302Y0090805D01*
X0114302Y0089606D02*
X0070602Y0089606D01*
X0070602Y0088408D02*
X0114302Y0088408D01*
X0114302Y0087209D02*
X0070602Y0087209D01*
X0070602Y0086011D02*
X0114302Y0086011D01*
X0114302Y0084812D02*
X0070602Y0084812D01*
X0070602Y0083614D02*
X0114302Y0083614D01*
X0114302Y0082415D02*
X0070602Y0082415D01*
X0070602Y0081217D02*
X0113214Y0081217D01*
X0112016Y0080018D02*
X0070602Y0080018D01*
X0070602Y0078820D02*
X0072735Y0078820D01*
X0072715Y0071629D02*
X0071749Y0071629D01*
X0085364Y0074026D02*
X0106023Y0074026D01*
X0104825Y0072827D02*
X0086206Y0072827D01*
X0086346Y0071629D02*
X0103626Y0071629D01*
X0102649Y0070430D02*
X0085872Y0070430D01*
X0095376Y0063239D02*
X0120515Y0063239D01*
X0121084Y0063809D02*
X0119686Y0062410D01*
X0119686Y0060433D01*
X0121084Y0059034D01*
X0123062Y0059034D01*
X0124461Y0060433D01*
X0124461Y0061567D01*
X0129144Y0066250D01*
X0130140Y0067246D01*
X0130140Y0069824D01*
X0130827Y0070511D01*
X0130827Y0072489D01*
X0129429Y0073887D01*
X0127451Y0073887D01*
X0126052Y0072489D01*
X0126052Y0070511D01*
X0126740Y0069824D01*
X0126740Y0068654D01*
X0121894Y0063809D01*
X0121084Y0063809D01*
X0122523Y0064437D02*
X0117216Y0064437D01*
X0118692Y0065636D02*
X0123722Y0065636D01*
X0124920Y0066834D02*
X0119891Y0066834D01*
X0121089Y0068033D02*
X0126119Y0068033D01*
X0126740Y0069232D02*
X0122288Y0069232D01*
X0123486Y0070430D02*
X0126133Y0070430D01*
X0126052Y0071629D02*
X0124685Y0071629D01*
X0125883Y0072827D02*
X0126391Y0072827D01*
X0127082Y0074026D02*
X0159922Y0074026D01*
X0157752Y0075224D02*
X0128280Y0075224D01*
X0129479Y0076423D02*
X0157365Y0076423D01*
X0157397Y0077621D02*
X0154427Y0077621D01*
X0155626Y0078820D02*
X0158595Y0078820D01*
X0156824Y0080018D02*
X0161115Y0080018D01*
X0161115Y0081217D02*
X0158023Y0081217D01*
X0159221Y0082415D02*
X0162191Y0082415D01*
X0160420Y0083614D02*
X0199084Y0083614D01*
X0197886Y0084812D02*
X0161618Y0084812D01*
X0162817Y0086011D02*
X0196687Y0086011D01*
X0195808Y0089606D02*
X0194150Y0089606D01*
X0194221Y0090805D02*
X0192951Y0090805D01*
X0193022Y0092003D02*
X0192139Y0092003D01*
X0191527Y0093202D02*
X0192915Y0093202D01*
X0193226Y0094400D02*
X0171206Y0094400D01*
X0170008Y0093202D02*
X0187977Y0093202D01*
X0187365Y0092003D02*
X0168809Y0092003D01*
X0167611Y0090805D02*
X0187365Y0090805D01*
X0188369Y0089606D02*
X0166412Y0089606D01*
X0165214Y0088408D02*
X0190540Y0088408D01*
X0191739Y0087209D02*
X0164015Y0087209D01*
X0161604Y0089606D02*
X0160712Y0089606D01*
X0160406Y0088408D02*
X0159514Y0088408D01*
X0159207Y0087209D02*
X0158315Y0087209D01*
X0158008Y0086011D02*
X0157117Y0086011D01*
X0156810Y0084812D02*
X0155918Y0084812D01*
X0155611Y0083614D02*
X0154720Y0083614D01*
X0154413Y0082415D02*
X0125571Y0082415D01*
X0124373Y0081217D02*
X0153214Y0081217D01*
X0160909Y0078820D02*
X0161656Y0078820D01*
X0162107Y0077621D02*
X0163827Y0077621D01*
X0165025Y0076423D02*
X0162334Y0076423D01*
X0163532Y0075224D02*
X0166224Y0075224D01*
X0168635Y0077621D02*
X0205077Y0077621D01*
X0203878Y0078820D02*
X0167437Y0078820D01*
X0166238Y0080018D02*
X0202680Y0080018D01*
X0201481Y0081217D02*
X0165889Y0081217D01*
X0164813Y0082415D02*
X0200283Y0082415D01*
X0204212Y0086011D02*
X0210552Y0086011D01*
X0210552Y0085776D02*
X0209865Y0085089D01*
X0209865Y0083111D01*
X0211263Y0081713D01*
X0213241Y0081713D01*
X0214639Y0083111D01*
X0214639Y0085089D01*
X0213952Y0085776D01*
X0213952Y0182304D01*
X0212956Y0183300D01*
X0133389Y0262867D01*
X0133389Y0263839D01*
X0131991Y0265237D01*
X0130013Y0265237D01*
X0128615Y0263839D01*
X0128615Y0261861D01*
X0130013Y0260463D01*
X0130985Y0260463D01*
X0210552Y0180896D01*
X0210552Y0164700D01*
X0138253Y0164700D01*
X0137902Y0164349D01*
X0137902Y0121351D01*
X0138253Y0121000D01*
X0210552Y0121000D01*
X0210552Y0085776D01*
X0209865Y0084812D02*
X0205410Y0084812D01*
X0206609Y0083614D02*
X0209865Y0083614D01*
X0210561Y0082415D02*
X0207807Y0082415D01*
X0209006Y0081217D02*
X0817652Y0081217D01*
X0817652Y0082415D02*
X0213943Y0082415D01*
X0214639Y0083614D02*
X0817652Y0083614D01*
X0817652Y0084812D02*
X0214639Y0084812D01*
X0213952Y0086011D02*
X0817652Y0086011D01*
X0817652Y0087209D02*
X0213952Y0087209D01*
X0213952Y0088408D02*
X0817652Y0088408D01*
X0817652Y0089606D02*
X0213952Y0089606D01*
X0213952Y0090805D02*
X0817652Y0090805D01*
X0817652Y0092003D02*
X0213952Y0092003D01*
X0213952Y0093202D02*
X0817652Y0093202D01*
X0817652Y0094400D02*
X0213952Y0094400D01*
X0213952Y0095599D02*
X0817652Y0095599D01*
X0817652Y0096797D02*
X0213952Y0096797D01*
X0213952Y0097996D02*
X0817652Y0097996D01*
X0817652Y0099194D02*
X0213952Y0099194D01*
X0213952Y0100393D02*
X0817652Y0100393D01*
X0817652Y0101591D02*
X0213952Y0101591D01*
X0213952Y0102790D02*
X0817652Y0102790D01*
X0817652Y0103988D02*
X0213952Y0103988D01*
X0213952Y0105187D02*
X0817652Y0105187D01*
X0817652Y0106385D02*
X0213952Y0106385D01*
X0213952Y0107584D02*
X0817652Y0107584D01*
X0817652Y0108782D02*
X0213952Y0108782D01*
X0213952Y0109981D02*
X0817652Y0109981D01*
X0817652Y0111179D02*
X0213952Y0111179D01*
X0213952Y0112378D02*
X0817652Y0112378D01*
X0817652Y0113576D02*
X0213952Y0113576D01*
X0213952Y0114775D02*
X0817652Y0114775D01*
X0817652Y0115973D02*
X0213952Y0115973D01*
X0213952Y0117172D02*
X0817652Y0117172D01*
X0817652Y0118370D02*
X0213952Y0118370D01*
X0213952Y0119569D02*
X0817652Y0119569D01*
X0817652Y0120768D02*
X0636406Y0120768D01*
X0637184Y0121090D02*
X0639012Y0122918D01*
X0640002Y0125307D01*
X0640002Y0127893D01*
X0639012Y0130282D01*
X0637184Y0132110D01*
X0634795Y0133100D01*
X0632209Y0133100D01*
X0629820Y0132110D01*
X0627992Y0130282D01*
X0627002Y0127893D01*
X0627002Y0125307D01*
X0627992Y0122918D01*
X0629820Y0121090D01*
X0632209Y0120100D01*
X0634795Y0120100D01*
X0637184Y0121090D01*
X0638060Y0121966D02*
X0817652Y0121966D01*
X0817652Y0123165D02*
X0639114Y0123165D01*
X0639611Y0124363D02*
X0817652Y0124363D01*
X0817652Y0125562D02*
X0640002Y0125562D01*
X0640002Y0126760D02*
X0817652Y0126760D01*
X0817652Y0127959D02*
X0639975Y0127959D01*
X0639478Y0129157D02*
X0817652Y0129157D01*
X0817652Y0130356D02*
X0638939Y0130356D01*
X0637740Y0131554D02*
X0817652Y0131554D01*
X0817652Y0132753D02*
X0635634Y0132753D01*
X0631370Y0132753D02*
X0260634Y0132753D01*
X0259795Y0133100D02*
X0257209Y0133100D01*
X0254820Y0132110D01*
X0252992Y0130282D01*
X0252002Y0127893D01*
X0252002Y0125307D01*
X0252992Y0122918D01*
X0254820Y0121090D01*
X0257209Y0120100D01*
X0259795Y0120100D01*
X0262184Y0121090D01*
X0264012Y0122918D01*
X0265002Y0125307D01*
X0265002Y0127893D01*
X0264012Y0130282D01*
X0262184Y0132110D01*
X0259795Y0133100D01*
X0262740Y0131554D02*
X0629264Y0131554D01*
X0628065Y0130356D02*
X0263939Y0130356D01*
X0264478Y0129157D02*
X0627526Y0129157D01*
X0627029Y0127959D02*
X0264975Y0127959D01*
X0265002Y0126760D02*
X0627002Y0126760D01*
X0627002Y0125562D02*
X0265002Y0125562D01*
X0264611Y0124363D02*
X0627393Y0124363D01*
X0627889Y0123165D02*
X0264114Y0123165D01*
X0263060Y0121966D02*
X0628944Y0121966D01*
X0630598Y0120768D02*
X0261406Y0120768D01*
X0255598Y0120768D02*
X0213952Y0120768D01*
X0213952Y0121966D02*
X0253944Y0121966D01*
X0252889Y0123165D02*
X0213952Y0123165D01*
X0213952Y0124363D02*
X0252393Y0124363D01*
X0252002Y0125562D02*
X0213952Y0125562D01*
X0213952Y0126760D02*
X0252002Y0126760D01*
X0252029Y0127959D02*
X0213952Y0127959D01*
X0213952Y0129157D02*
X0252526Y0129157D01*
X0253065Y0130356D02*
X0213952Y0130356D01*
X0213952Y0131554D02*
X0254264Y0131554D01*
X0256370Y0132753D02*
X0213952Y0132753D01*
X0213952Y0133951D02*
X0817652Y0133951D01*
X0817652Y0135150D02*
X0213952Y0135150D01*
X0213952Y0136348D02*
X0817652Y0136348D01*
X0817652Y0137547D02*
X0213952Y0137547D01*
X0213952Y0138745D02*
X0817652Y0138745D01*
X0817652Y0139944D02*
X0213952Y0139944D01*
X0213952Y0141142D02*
X0817652Y0141142D01*
X0817652Y0142341D02*
X0213952Y0142341D01*
X0213952Y0143539D02*
X0817652Y0143539D01*
X0817652Y0144738D02*
X0213952Y0144738D01*
X0213952Y0145936D02*
X0483057Y0145936D01*
X0484093Y0144900D02*
X0485502Y0144900D01*
X0636548Y0144900D01*
X0637956Y0144900D01*
X0693519Y0200463D01*
X0694491Y0200463D01*
X0695889Y0201861D01*
X0695889Y0203839D01*
X0694491Y0205237D01*
X0692513Y0205237D01*
X0691115Y0203839D01*
X0691115Y0202867D01*
X0636548Y0148300D01*
X0485502Y0148300D01*
X0445889Y0187912D01*
X0445889Y0188839D01*
X0444491Y0190237D01*
X0442513Y0190237D01*
X0441115Y0188839D01*
X0441115Y0186861D01*
X0442513Y0185463D01*
X0443531Y0185463D01*
X0484093Y0144900D01*
X0481859Y0147135D02*
X0213952Y0147135D01*
X0213952Y0148333D02*
X0480660Y0148333D01*
X0479462Y0149532D02*
X0213952Y0149532D01*
X0213952Y0150730D02*
X0478263Y0150730D01*
X0477065Y0151929D02*
X0213952Y0151929D01*
X0213952Y0153127D02*
X0475866Y0153127D01*
X0474668Y0154326D02*
X0213952Y0154326D01*
X0213952Y0155524D02*
X0473469Y0155524D01*
X0472271Y0156723D02*
X0213952Y0156723D01*
X0213952Y0157921D02*
X0471072Y0157921D01*
X0469874Y0159120D02*
X0213952Y0159120D01*
X0213952Y0160318D02*
X0444182Y0160318D01*
X0444709Y0160100D02*
X0447295Y0160100D01*
X0449684Y0161090D01*
X0451512Y0162918D01*
X0452502Y0165307D01*
X0452502Y0167893D01*
X0451512Y0170282D01*
X0449684Y0172110D01*
X0447295Y0173100D01*
X0444709Y0173100D01*
X0442320Y0172110D01*
X0440492Y0170282D01*
X0439502Y0167893D01*
X0439502Y0165307D01*
X0440492Y0162918D01*
X0442320Y0161090D01*
X0444709Y0160100D01*
X0447822Y0160318D02*
X0468675Y0160318D01*
X0467477Y0161517D02*
X0450111Y0161517D01*
X0451310Y0162715D02*
X0466278Y0162715D01*
X0465079Y0163914D02*
X0451925Y0163914D01*
X0452421Y0165112D02*
X0463881Y0165112D01*
X0462682Y0166311D02*
X0452502Y0166311D01*
X0452502Y0167509D02*
X0461484Y0167509D01*
X0460285Y0168708D02*
X0452164Y0168708D01*
X0451668Y0169906D02*
X0459087Y0169906D01*
X0457888Y0171105D02*
X0450689Y0171105D01*
X0449218Y0172303D02*
X0456690Y0172303D01*
X0455491Y0173502D02*
X0213952Y0173502D01*
X0213952Y0174701D02*
X0397025Y0174701D01*
X0397513Y0174213D02*
X0399491Y0174213D01*
X0400889Y0175611D01*
X0400889Y0176583D01*
X0507956Y0283650D01*
X0519326Y0283650D01*
X0520013Y0282963D01*
X0521991Y0282963D01*
X0523389Y0284361D01*
X0523389Y0286339D01*
X0521991Y0287737D01*
X0520013Y0287737D01*
X0519326Y0287050D01*
X0506548Y0287050D01*
X0505552Y0286054D01*
X0398485Y0178987D01*
X0397513Y0178987D01*
X0396115Y0177589D01*
X0396115Y0175611D01*
X0397513Y0174213D01*
X0396115Y0175899D02*
X0213952Y0175899D01*
X0213952Y0177098D02*
X0396115Y0177098D01*
X0396822Y0178296D02*
X0213952Y0178296D01*
X0213952Y0179495D02*
X0398992Y0179495D01*
X0400191Y0180693D02*
X0213952Y0180693D01*
X0213952Y0181892D02*
X0401389Y0181892D01*
X0402588Y0183090D02*
X0213166Y0183090D01*
X0211968Y0184289D02*
X0403786Y0184289D01*
X0404985Y0185487D02*
X0210769Y0185487D01*
X0209570Y0186686D02*
X0406183Y0186686D01*
X0407382Y0187884D02*
X0208372Y0187884D01*
X0207173Y0189083D02*
X0408580Y0189083D01*
X0409779Y0190281D02*
X0205975Y0190281D01*
X0204776Y0191480D02*
X0216496Y0191480D01*
X0216115Y0191861D02*
X0217513Y0190463D01*
X0219491Y0190463D01*
X0220889Y0191861D01*
X0220889Y0192833D01*
X0311356Y0283300D01*
X0326176Y0283300D01*
X0326863Y0282613D01*
X0328841Y0282613D01*
X0330239Y0284011D01*
X0330239Y0285989D01*
X0328841Y0287387D01*
X0326863Y0287387D01*
X0326176Y0286700D01*
X0309948Y0286700D01*
X0308952Y0285704D01*
X0218485Y0195237D01*
X0217513Y0195237D01*
X0216115Y0193839D01*
X0216115Y0191861D01*
X0216115Y0192678D02*
X0203578Y0192678D01*
X0202379Y0193877D02*
X0216152Y0193877D01*
X0217351Y0195075D02*
X0201181Y0195075D01*
X0199982Y0196274D02*
X0219522Y0196274D01*
X0220720Y0197472D02*
X0198784Y0197472D01*
X0197585Y0198671D02*
X0221919Y0198671D01*
X0223117Y0199869D02*
X0196387Y0199869D01*
X0195188Y0201068D02*
X0224316Y0201068D01*
X0225514Y0202266D02*
X0193990Y0202266D01*
X0192791Y0203465D02*
X0226713Y0203465D01*
X0227911Y0204663D02*
X0191593Y0204663D01*
X0190394Y0205862D02*
X0229110Y0205862D01*
X0230308Y0207060D02*
X0189196Y0207060D01*
X0187997Y0208259D02*
X0231507Y0208259D01*
X0232705Y0209457D02*
X0186799Y0209457D01*
X0185600Y0210656D02*
X0233904Y0210656D01*
X0235102Y0211854D02*
X0184402Y0211854D01*
X0183203Y0213053D02*
X0236301Y0213053D01*
X0237499Y0214251D02*
X0182005Y0214251D01*
X0180806Y0215450D02*
X0238698Y0215450D01*
X0239896Y0216648D02*
X0179608Y0216648D01*
X0178409Y0217847D02*
X0241095Y0217847D01*
X0242293Y0219045D02*
X0177211Y0219045D01*
X0176012Y0220244D02*
X0243492Y0220244D01*
X0244690Y0221442D02*
X0215471Y0221442D01*
X0215889Y0221861D02*
X0215889Y0223839D01*
X0215202Y0224526D01*
X0215202Y0289924D01*
X0215889Y0290611D01*
X0215889Y0292589D01*
X0214491Y0293987D01*
X0212513Y0293987D01*
X0211115Y0292589D01*
X0211115Y0290611D01*
X0211802Y0289924D01*
X0211802Y0224526D01*
X0211115Y0223839D01*
X0211115Y0221861D01*
X0212513Y0220463D01*
X0214491Y0220463D01*
X0215889Y0221861D01*
X0215889Y0222641D02*
X0245889Y0222641D01*
X0247087Y0223839D02*
X0215889Y0223839D01*
X0215202Y0225038D02*
X0248286Y0225038D01*
X0249484Y0226237D02*
X0215202Y0226237D01*
X0215202Y0227435D02*
X0250683Y0227435D01*
X0251881Y0228634D02*
X0215202Y0228634D01*
X0215202Y0229832D02*
X0253080Y0229832D01*
X0254278Y0231031D02*
X0215202Y0231031D01*
X0215202Y0232229D02*
X0255477Y0232229D01*
X0256675Y0233428D02*
X0215202Y0233428D01*
X0215202Y0234626D02*
X0257874Y0234626D01*
X0259072Y0235825D02*
X0215202Y0235825D01*
X0215202Y0237023D02*
X0260271Y0237023D01*
X0261469Y0238222D02*
X0215202Y0238222D01*
X0215202Y0239420D02*
X0262668Y0239420D01*
X0263866Y0240619D02*
X0215202Y0240619D01*
X0215202Y0241817D02*
X0265065Y0241817D01*
X0266263Y0243016D02*
X0215202Y0243016D01*
X0215202Y0244214D02*
X0267462Y0244214D01*
X0268660Y0245413D02*
X0215202Y0245413D01*
X0215202Y0246611D02*
X0269859Y0246611D01*
X0271058Y0247810D02*
X0215202Y0247810D01*
X0215202Y0249008D02*
X0272256Y0249008D01*
X0273455Y0250207D02*
X0215202Y0250207D01*
X0215202Y0251405D02*
X0274653Y0251405D01*
X0275852Y0252604D02*
X0215202Y0252604D01*
X0215202Y0253802D02*
X0277050Y0253802D01*
X0278249Y0255001D02*
X0215202Y0255001D01*
X0215202Y0256199D02*
X0279447Y0256199D01*
X0280646Y0257398D02*
X0215202Y0257398D01*
X0215202Y0258596D02*
X0281844Y0258596D01*
X0283043Y0259795D02*
X0215202Y0259795D01*
X0215202Y0260993D02*
X0284241Y0260993D01*
X0285440Y0262192D02*
X0215202Y0262192D01*
X0215202Y0263390D02*
X0286638Y0263390D01*
X0287837Y0264589D02*
X0215202Y0264589D01*
X0215202Y0265787D02*
X0289035Y0265787D01*
X0290234Y0266986D02*
X0215202Y0266986D01*
X0215202Y0268184D02*
X0291432Y0268184D01*
X0292631Y0269383D02*
X0215202Y0269383D01*
X0215202Y0270581D02*
X0293829Y0270581D01*
X0295028Y0271780D02*
X0215202Y0271780D01*
X0215202Y0272978D02*
X0296226Y0272978D01*
X0297425Y0274177D02*
X0215202Y0274177D01*
X0215202Y0275375D02*
X0298623Y0275375D01*
X0299822Y0276574D02*
X0215202Y0276574D01*
X0215202Y0277772D02*
X0301020Y0277772D01*
X0302219Y0278971D02*
X0215202Y0278971D01*
X0215202Y0280170D02*
X0303417Y0280170D01*
X0304616Y0281368D02*
X0215202Y0281368D01*
X0215202Y0282567D02*
X0305814Y0282567D01*
X0307013Y0283765D02*
X0215202Y0283765D01*
X0215202Y0284964D02*
X0308211Y0284964D01*
X0309410Y0286162D02*
X0215202Y0286162D01*
X0215202Y0287361D02*
X0326836Y0287361D01*
X0328868Y0287361D02*
X0388052Y0287361D01*
X0388052Y0288559D02*
X0215202Y0288559D01*
X0215202Y0289758D02*
X0387365Y0289758D01*
X0387365Y0289361D02*
X0388052Y0288674D01*
X0388052Y0224526D01*
X0387365Y0223839D01*
X0387365Y0221861D01*
X0388763Y0220463D01*
X0390741Y0220463D01*
X0392139Y0221861D01*
X0392139Y0223839D01*
X0391452Y0224526D01*
X0391452Y0288674D01*
X0392139Y0289361D01*
X0392139Y0291339D01*
X0390741Y0292737D01*
X0388763Y0292737D01*
X0387365Y0291339D01*
X0387365Y0289361D01*
X0387365Y0290956D02*
X0215889Y0290956D01*
X0215889Y0292155D02*
X0388180Y0292155D01*
X0391324Y0292155D02*
X0790261Y0292155D01*
X0791460Y0293353D02*
X0215125Y0293353D01*
X0211879Y0293353D02*
X0136089Y0293353D01*
X0136089Y0293061D02*
X0134691Y0291663D01*
X0132713Y0291663D01*
X0131976Y0292400D01*
X0095552Y0292400D01*
X0095106Y0291324D01*
X0093728Y0289946D01*
X0091927Y0289200D01*
X0082577Y0289200D01*
X0080776Y0289946D01*
X0079398Y0291324D01*
X0078652Y0293125D01*
X0078652Y0295075D01*
X0079398Y0296876D01*
X0080776Y0298254D01*
X0082382Y0298919D01*
X0082311Y0298930D01*
X0081517Y0299188D01*
X0080774Y0299567D01*
X0080099Y0300057D01*
X0079509Y0300647D01*
X0079019Y0301322D01*
X0078640Y0302066D01*
X0078382Y0302859D01*
X0078265Y0303600D01*
X0086752Y0303600D01*
X0086752Y0304600D01*
X0086752Y0309400D01*
X0083135Y0309400D01*
X0082311Y0309269D01*
X0081517Y0309012D01*
X0080774Y0308633D01*
X0080099Y0308143D01*
X0079509Y0307553D01*
X0079019Y0306878D01*
X0078640Y0306134D01*
X0078382Y0305341D01*
X0078265Y0304600D01*
X0086752Y0304600D01*
X0087752Y0304600D01*
X0096239Y0304600D01*
X0096121Y0305341D01*
X0095864Y0306134D01*
X0095485Y0306878D01*
X0094995Y0307553D01*
X0094405Y0308143D01*
X0093730Y0308633D01*
X0092986Y0309012D01*
X0092193Y0309269D01*
X0091369Y0309400D01*
X0087752Y0309400D01*
X0087752Y0304600D01*
X0087752Y0303600D01*
X0096239Y0303600D01*
X0096121Y0302859D01*
X0095864Y0302066D01*
X0095485Y0301322D01*
X0094995Y0300647D01*
X0094405Y0300057D01*
X0093730Y0299567D01*
X0092986Y0299188D01*
X0092193Y0298930D01*
X0092122Y0298919D01*
X0093728Y0298254D01*
X0095106Y0296876D01*
X0095552Y0295800D01*
X0100432Y0295800D01*
X0099476Y0296196D01*
X0098098Y0297574D01*
X0097352Y0299375D01*
X0097352Y0301325D01*
X0098098Y0303126D01*
X0099476Y0304504D01*
X0101277Y0305250D01*
X0103227Y0305250D01*
X0105028Y0304504D01*
X0106406Y0303126D01*
X0107152Y0301325D01*
X0107152Y0299375D01*
X0106406Y0297574D01*
X0105028Y0296196D01*
X0104072Y0295800D01*
X0110432Y0295800D01*
X0109476Y0296196D01*
X0108098Y0297574D01*
X0107352Y0299375D01*
X0107352Y0301325D01*
X0108098Y0303126D01*
X0109476Y0304504D01*
X0111277Y0305250D01*
X0113227Y0305250D01*
X0115028Y0304504D01*
X0116406Y0303126D01*
X0117152Y0301325D01*
X0117152Y0299375D01*
X0116406Y0297574D01*
X0115028Y0296196D01*
X0114072Y0295800D01*
X0132076Y0295800D01*
X0132713Y0296437D01*
X0134691Y0296437D01*
X0136089Y0295039D01*
X0136089Y0293061D01*
X0135183Y0292155D02*
X0211115Y0292155D01*
X0211115Y0290956D02*
X0094738Y0290956D01*
X0095450Y0292155D02*
X0132221Y0292155D01*
X0136089Y0294552D02*
X0792402Y0294552D01*
X0792402Y0294296D02*
X0775452Y0277346D01*
X0774477Y0277750D01*
X0772527Y0277750D01*
X0770726Y0277004D01*
X0769348Y0275626D01*
X0768602Y0273825D01*
X0768602Y0271875D01*
X0769348Y0270074D01*
X0770726Y0268696D01*
X0772527Y0267950D01*
X0774477Y0267950D01*
X0776278Y0268696D01*
X0777656Y0270074D01*
X0778402Y0271875D01*
X0778402Y0273825D01*
X0777998Y0274800D01*
X0793835Y0290637D01*
X0794526Y0289946D01*
X0796327Y0289200D01*
X0805677Y0289200D01*
X0807478Y0289946D01*
X0808856Y0291324D01*
X0809602Y0293125D01*
X0809602Y0295075D01*
X0808856Y0296876D01*
X0807478Y0298254D01*
X0805872Y0298919D01*
X0805943Y0298930D01*
X0806736Y0299188D01*
X0807480Y0299567D01*
X0808155Y0300057D01*
X0808745Y0300647D01*
X0809235Y0301322D01*
X0809614Y0302066D01*
X0809871Y0302859D01*
X0809989Y0303600D01*
X0801502Y0303600D01*
X0801502Y0304600D01*
X0809989Y0304600D01*
X0809871Y0305341D01*
X0809614Y0306134D01*
X0809235Y0306878D01*
X0808745Y0307553D01*
X0808155Y0308143D01*
X0807480Y0308633D01*
X0806736Y0309012D01*
X0805943Y0309269D01*
X0805119Y0309400D01*
X0801502Y0309400D01*
X0801502Y0304600D01*
X0800502Y0304600D01*
X0800502Y0309400D01*
X0796885Y0309400D01*
X0796061Y0309269D01*
X0795267Y0309012D01*
X0794524Y0308633D01*
X0793849Y0308143D01*
X0793259Y0307553D01*
X0792769Y0306878D01*
X0792390Y0306134D01*
X0792132Y0305341D01*
X0792015Y0304600D01*
X0800502Y0304600D01*
X0800502Y0303600D01*
X0792015Y0303600D01*
X0792132Y0302859D01*
X0792390Y0302066D01*
X0792769Y0301322D01*
X0793259Y0300647D01*
X0793849Y0300057D01*
X0794524Y0299567D01*
X0795267Y0299188D01*
X0796061Y0298930D01*
X0796132Y0298919D01*
X0794526Y0298254D01*
X0793148Y0296876D01*
X0792402Y0295075D01*
X0792402Y0294296D01*
X0792682Y0295750D02*
X0135378Y0295750D01*
X0117140Y0299346D02*
X0794959Y0299346D01*
X0794420Y0298147D02*
X0116643Y0298147D01*
X0115780Y0296949D02*
X0793221Y0296949D01*
X0794652Y0294000D02*
X0800902Y0294000D01*
X0801002Y0294100D01*
X0794652Y0294000D02*
X0773502Y0272850D01*
X0776965Y0269383D02*
X0817652Y0269383D01*
X0817652Y0270581D02*
X0777866Y0270581D01*
X0778362Y0271780D02*
X0817652Y0271780D01*
X0817652Y0272978D02*
X0778402Y0272978D01*
X0778256Y0274177D02*
X0817652Y0274177D01*
X0817652Y0275375D02*
X0778573Y0275375D01*
X0779772Y0276574D02*
X0817652Y0276574D01*
X0817652Y0277772D02*
X0780970Y0277772D01*
X0782169Y0278971D02*
X0817652Y0278971D01*
X0817652Y0280170D02*
X0807701Y0280170D01*
X0807478Y0279946D02*
X0808856Y0281324D01*
X0809602Y0283125D01*
X0809602Y0285075D01*
X0808856Y0286876D01*
X0807478Y0288254D01*
X0805677Y0289000D01*
X0796327Y0289000D01*
X0794526Y0288254D01*
X0793148Y0286876D01*
X0792402Y0285075D01*
X0792402Y0283125D01*
X0793148Y0281324D01*
X0794526Y0279946D01*
X0796327Y0279200D01*
X0805677Y0279200D01*
X0807478Y0279946D01*
X0808874Y0281368D02*
X0817652Y0281368D01*
X0817652Y0282567D02*
X0809370Y0282567D01*
X0809602Y0283765D02*
X0817652Y0283765D01*
X0817652Y0284964D02*
X0809602Y0284964D01*
X0809152Y0286162D02*
X0817652Y0286162D01*
X0817652Y0287361D02*
X0808371Y0287361D01*
X0806741Y0288559D02*
X0817652Y0288559D01*
X0817652Y0289758D02*
X0807023Y0289758D01*
X0808488Y0290956D02*
X0817652Y0290956D01*
X0817652Y0292155D02*
X0809200Y0292155D01*
X0809602Y0293353D02*
X0817652Y0293353D01*
X0817652Y0294552D02*
X0809602Y0294552D01*
X0809322Y0295750D02*
X0817652Y0295750D01*
X0817652Y0296949D02*
X0808783Y0296949D01*
X0807584Y0298147D02*
X0817652Y0298147D01*
X0817652Y0299346D02*
X0807045Y0299346D01*
X0808641Y0300544D02*
X0817652Y0300544D01*
X0816639Y0301743D02*
X0809449Y0301743D01*
X0809884Y0302941D02*
X0815441Y0302941D01*
X0814242Y0304140D02*
X0801502Y0304140D01*
X0800502Y0304140D02*
X0115392Y0304140D01*
X0116482Y0302941D02*
X0792119Y0302941D01*
X0792555Y0301743D02*
X0116979Y0301743D01*
X0117152Y0300544D02*
X0793362Y0300544D01*
X0792132Y0305338D02*
X0096122Y0305338D01*
X0095659Y0306537D02*
X0792595Y0306537D01*
X0793442Y0307735D02*
X0094812Y0307735D01*
X0093139Y0308934D02*
X0795115Y0308934D01*
X0800502Y0308934D02*
X0801502Y0308934D01*
X0801502Y0307735D02*
X0800502Y0307735D01*
X0800502Y0306537D02*
X0801502Y0306537D01*
X0801502Y0305338D02*
X0800502Y0305338D01*
X0806889Y0308934D02*
X0809448Y0308934D01*
X0808562Y0307735D02*
X0810647Y0307735D01*
X0811845Y0306537D02*
X0809409Y0306537D01*
X0809872Y0305338D02*
X0813044Y0305338D01*
X0794981Y0289758D02*
X0792955Y0289758D01*
X0791757Y0288559D02*
X0795263Y0288559D01*
X0793633Y0287361D02*
X0790558Y0287361D01*
X0789360Y0286162D02*
X0792852Y0286162D01*
X0792402Y0284964D02*
X0788161Y0284964D01*
X0786963Y0283765D02*
X0792402Y0283765D01*
X0792633Y0282567D02*
X0785764Y0282567D01*
X0784566Y0281368D02*
X0793130Y0281368D01*
X0794303Y0280170D02*
X0783367Y0280170D01*
X0780673Y0282567D02*
X0765202Y0282567D01*
X0765202Y0283765D02*
X0781871Y0283765D01*
X0783070Y0284964D02*
X0765202Y0284964D01*
X0765202Y0285174D02*
X0765839Y0285811D01*
X0765839Y0287789D01*
X0764441Y0289187D01*
X0762463Y0289187D01*
X0761065Y0287789D01*
X0761065Y0285811D01*
X0761802Y0285074D01*
X0761802Y0284107D01*
X0760991Y0284918D01*
X0759013Y0284918D01*
X0757615Y0283520D01*
X0757615Y0282548D01*
X0756548Y0281481D01*
X0755552Y0280485D01*
X0755552Y0267450D01*
X0754476Y0267004D01*
X0753098Y0265626D01*
X0752352Y0263825D01*
X0752352Y0261875D01*
X0753098Y0260074D01*
X0754476Y0258696D01*
X0756277Y0257950D01*
X0758227Y0257950D01*
X0760028Y0258696D01*
X0761406Y0260074D01*
X0761802Y0261030D01*
X0761802Y0254670D01*
X0761406Y0255626D01*
X0760028Y0257004D01*
X0758227Y0257750D01*
X0756277Y0257750D01*
X0754476Y0257004D01*
X0753098Y0255626D01*
X0752652Y0254550D01*
X0732798Y0254550D01*
X0634048Y0155800D01*
X0485178Y0155800D01*
X0484491Y0156487D01*
X0482513Y0156487D01*
X0481115Y0155089D01*
X0481115Y0153111D01*
X0482513Y0151713D01*
X0484491Y0151713D01*
X0485178Y0152400D01*
X0635456Y0152400D01*
X0734206Y0251150D01*
X0752652Y0251150D01*
X0753098Y0250074D01*
X0754476Y0248696D01*
X0756277Y0247950D01*
X0758227Y0247950D01*
X0760028Y0248696D01*
X0761406Y0250074D01*
X0761802Y0251030D01*
X0761802Y0224526D01*
X0761115Y0223839D01*
X0761115Y0221861D01*
X0762513Y0220463D01*
X0764491Y0220463D01*
X0765452Y0221424D01*
X0765452Y0217104D01*
X0767365Y0215192D01*
X0767365Y0214361D01*
X0768763Y0212963D01*
X0770741Y0212963D01*
X0772139Y0214361D01*
X0772139Y0216339D01*
X0770741Y0217737D01*
X0769910Y0217737D01*
X0769052Y0218596D01*
X0769052Y0250789D01*
X0769348Y0250074D01*
X0770726Y0248696D01*
X0772527Y0247950D01*
X0774477Y0247950D01*
X0776278Y0248696D01*
X0777656Y0250074D01*
X0778402Y0251875D01*
X0778402Y0253825D01*
X0777656Y0255626D01*
X0776278Y0257004D01*
X0774477Y0257750D01*
X0772527Y0257750D01*
X0770726Y0257004D01*
X0769348Y0255626D01*
X0769052Y0254911D01*
X0769052Y0255854D01*
X0771552Y0258354D01*
X0772527Y0257950D01*
X0774477Y0257950D01*
X0776278Y0258696D01*
X0777656Y0260074D01*
X0778402Y0261875D01*
X0778402Y0263825D01*
X0777656Y0265626D01*
X0776278Y0267004D01*
X0774477Y0267750D01*
X0772527Y0267750D01*
X0770726Y0267004D01*
X0769348Y0265626D01*
X0768602Y0263825D01*
X0768602Y0261875D01*
X0769006Y0260900D01*
X0765452Y0257346D01*
X0765452Y0224276D01*
X0765202Y0224526D01*
X0765202Y0285174D01*
X0765839Y0286162D02*
X0784268Y0286162D01*
X0785467Y0287361D02*
X0765839Y0287361D01*
X0765069Y0288559D02*
X0786665Y0288559D01*
X0787864Y0289758D02*
X0586221Y0289758D01*
X0585741Y0290237D02*
X0583763Y0290237D01*
X0582365Y0288839D01*
X0582365Y0286861D01*
X0583052Y0286174D01*
X0583052Y0224526D01*
X0582365Y0223839D01*
X0582365Y0221861D01*
X0583763Y0220463D01*
X0585741Y0220463D01*
X0587139Y0221861D01*
X0587139Y0223839D01*
X0586452Y0224526D01*
X0586452Y0286174D01*
X0587139Y0286861D01*
X0587139Y0288839D01*
X0585741Y0290237D01*
X0587139Y0288559D02*
X0761835Y0288559D01*
X0761065Y0287361D02*
X0696118Y0287361D01*
X0695741Y0287737D02*
X0693763Y0287737D01*
X0692365Y0286339D01*
X0692365Y0285367D01*
X0584735Y0177737D01*
X0583763Y0177737D01*
X0582365Y0176339D01*
X0582365Y0174361D01*
X0583763Y0172963D01*
X0585741Y0172963D01*
X0587139Y0174361D01*
X0587139Y0175333D01*
X0694769Y0282963D01*
X0695741Y0282963D01*
X0697139Y0284361D01*
X0697139Y0286339D01*
X0695741Y0287737D01*
X0697139Y0286162D02*
X0761065Y0286162D01*
X0761802Y0284964D02*
X0697139Y0284964D01*
X0696543Y0283765D02*
X0757860Y0283765D01*
X0757615Y0282567D02*
X0694373Y0282567D01*
X0693174Y0281368D02*
X0756435Y0281368D01*
X0755552Y0280170D02*
X0691976Y0280170D01*
X0690777Y0278971D02*
X0755552Y0278971D01*
X0755552Y0277772D02*
X0689579Y0277772D01*
X0688380Y0276574D02*
X0755552Y0276574D01*
X0755552Y0275375D02*
X0687182Y0275375D01*
X0685983Y0274177D02*
X0755552Y0274177D01*
X0755552Y0272978D02*
X0684785Y0272978D01*
X0683586Y0271780D02*
X0755552Y0271780D01*
X0755552Y0270581D02*
X0682388Y0270581D01*
X0681189Y0269383D02*
X0755552Y0269383D01*
X0755552Y0268184D02*
X0679991Y0268184D01*
X0678792Y0266986D02*
X0754458Y0266986D01*
X0753260Y0265787D02*
X0677594Y0265787D01*
X0676395Y0264589D02*
X0752669Y0264589D01*
X0752352Y0263390D02*
X0675196Y0263390D01*
X0673998Y0262192D02*
X0752352Y0262192D01*
X0752717Y0260993D02*
X0672799Y0260993D01*
X0671601Y0259795D02*
X0753377Y0259795D01*
X0754717Y0258596D02*
X0670402Y0258596D01*
X0669204Y0257398D02*
X0755427Y0257398D01*
X0753672Y0256199D02*
X0668005Y0256199D01*
X0666807Y0255001D02*
X0752839Y0255001D01*
X0759077Y0257398D02*
X0761802Y0257398D01*
X0761802Y0258596D02*
X0759787Y0258596D01*
X0761126Y0259795D02*
X0761802Y0259795D01*
X0761787Y0260993D02*
X0761802Y0260993D01*
X0765202Y0260993D02*
X0768967Y0260993D01*
X0768602Y0262192D02*
X0765202Y0262192D01*
X0765202Y0263390D02*
X0768602Y0263390D01*
X0768919Y0264589D02*
X0765202Y0264589D01*
X0765202Y0265787D02*
X0769510Y0265787D01*
X0770708Y0266986D02*
X0765202Y0266986D01*
X0765202Y0268184D02*
X0771961Y0268184D01*
X0770039Y0269383D02*
X0765202Y0269383D01*
X0765202Y0270581D02*
X0769138Y0270581D01*
X0768641Y0271780D02*
X0765202Y0271780D01*
X0765202Y0272978D02*
X0768602Y0272978D01*
X0768748Y0274177D02*
X0765202Y0274177D01*
X0765202Y0275375D02*
X0769244Y0275375D01*
X0770296Y0276574D02*
X0765202Y0276574D01*
X0765202Y0277772D02*
X0775879Y0277772D01*
X0777077Y0278971D02*
X0765202Y0278971D01*
X0765202Y0280170D02*
X0778276Y0280170D01*
X0779474Y0281368D02*
X0765202Y0281368D01*
X0775043Y0268184D02*
X0817652Y0268184D01*
X0817652Y0266986D02*
X0776296Y0266986D01*
X0777494Y0265787D02*
X0817652Y0265787D01*
X0817652Y0264589D02*
X0778085Y0264589D01*
X0778402Y0263390D02*
X0817652Y0263390D01*
X0817652Y0262192D02*
X0778402Y0262192D01*
X0778037Y0260993D02*
X0817652Y0260993D01*
X0817652Y0259795D02*
X0777376Y0259795D01*
X0776037Y0258596D02*
X0817652Y0258596D01*
X0817652Y0257398D02*
X0775327Y0257398D01*
X0777082Y0256199D02*
X0817652Y0256199D01*
X0817652Y0255001D02*
X0777915Y0255001D01*
X0778402Y0253802D02*
X0817652Y0253802D01*
X0817652Y0252604D02*
X0778402Y0252604D01*
X0778207Y0251405D02*
X0817652Y0251405D01*
X0817652Y0250207D02*
X0777711Y0250207D01*
X0776590Y0249008D02*
X0817652Y0249008D01*
X0817652Y0247810D02*
X0769052Y0247810D01*
X0769052Y0249008D02*
X0770414Y0249008D01*
X0769293Y0250207D02*
X0769052Y0250207D01*
X0769052Y0246611D02*
X0817652Y0246611D01*
X0817652Y0245413D02*
X0769052Y0245413D01*
X0769052Y0244214D02*
X0817652Y0244214D01*
X0817652Y0243016D02*
X0769052Y0243016D01*
X0769052Y0241817D02*
X0817652Y0241817D01*
X0817652Y0240619D02*
X0769052Y0240619D01*
X0769052Y0239420D02*
X0817652Y0239420D01*
X0817652Y0238222D02*
X0769052Y0238222D01*
X0769052Y0237023D02*
X0817652Y0237023D01*
X0817652Y0235825D02*
X0769052Y0235825D01*
X0769052Y0234626D02*
X0817652Y0234626D01*
X0817652Y0233428D02*
X0769052Y0233428D01*
X0769052Y0232229D02*
X0817652Y0232229D01*
X0817652Y0231031D02*
X0769052Y0231031D01*
X0769052Y0229832D02*
X0817652Y0229832D01*
X0817652Y0228634D02*
X0769052Y0228634D01*
X0769052Y0227435D02*
X0817652Y0227435D01*
X0817652Y0226237D02*
X0769052Y0226237D01*
X0769052Y0225038D02*
X0817652Y0225038D01*
X0817652Y0223839D02*
X0769052Y0223839D01*
X0769052Y0222641D02*
X0817652Y0222641D01*
X0817652Y0221442D02*
X0769052Y0221442D01*
X0769052Y0220244D02*
X0817652Y0220244D01*
X0817652Y0219045D02*
X0769052Y0219045D01*
X0769801Y0217847D02*
X0817652Y0217847D01*
X0817652Y0216648D02*
X0771830Y0216648D01*
X0772139Y0215450D02*
X0817652Y0215450D01*
X0817652Y0214251D02*
X0772030Y0214251D01*
X0770831Y0213053D02*
X0817652Y0213053D01*
X0817652Y0211854D02*
X0694910Y0211854D01*
X0693712Y0210656D02*
X0817652Y0210656D01*
X0817652Y0209457D02*
X0692513Y0209457D01*
X0691315Y0208259D02*
X0817652Y0208259D01*
X0817652Y0207060D02*
X0690116Y0207060D01*
X0688918Y0205862D02*
X0817652Y0205862D01*
X0817652Y0204663D02*
X0695065Y0204663D01*
X0695889Y0203465D02*
X0817652Y0203465D01*
X0817652Y0202266D02*
X0695889Y0202266D01*
X0695096Y0201068D02*
X0817652Y0201068D01*
X0817652Y0199869D02*
X0692925Y0199869D01*
X0691727Y0198671D02*
X0817652Y0198671D01*
X0817652Y0197472D02*
X0690528Y0197472D01*
X0689330Y0196274D02*
X0817652Y0196274D01*
X0817652Y0195075D02*
X0688131Y0195075D01*
X0686933Y0193877D02*
X0817652Y0193877D01*
X0817652Y0192678D02*
X0685734Y0192678D01*
X0684536Y0191480D02*
X0817652Y0191480D01*
X0817652Y0190281D02*
X0683337Y0190281D01*
X0682139Y0189083D02*
X0817652Y0189083D01*
X0817652Y0187884D02*
X0680940Y0187884D01*
X0679742Y0186686D02*
X0817652Y0186686D01*
X0817652Y0185487D02*
X0678543Y0185487D01*
X0677345Y0184289D02*
X0817652Y0184289D01*
X0817652Y0183090D02*
X0676146Y0183090D01*
X0674948Y0181892D02*
X0817652Y0181892D01*
X0817652Y0180693D02*
X0673749Y0180693D01*
X0672551Y0179495D02*
X0817652Y0179495D01*
X0817652Y0178296D02*
X0671352Y0178296D01*
X0670154Y0177098D02*
X0817652Y0177098D01*
X0817652Y0175899D02*
X0668955Y0175899D01*
X0667757Y0174701D02*
X0817652Y0174701D01*
X0817652Y0173502D02*
X0666558Y0173502D01*
X0665360Y0172303D02*
X0803036Y0172303D01*
X0802570Y0172110D02*
X0800742Y0170282D01*
X0799752Y0167893D01*
X0799752Y0165307D01*
X0800742Y0162918D01*
X0802570Y0161090D01*
X0804959Y0160100D01*
X0807545Y0160100D01*
X0809934Y0161090D01*
X0811762Y0162918D01*
X0812752Y0165307D01*
X0812752Y0167893D01*
X0811762Y0170282D01*
X0809934Y0172110D01*
X0807545Y0173100D01*
X0804959Y0173100D01*
X0802570Y0172110D01*
X0801565Y0171105D02*
X0664161Y0171105D01*
X0662963Y0169906D02*
X0800586Y0169906D01*
X0800090Y0168708D02*
X0661764Y0168708D01*
X0660566Y0167509D02*
X0799752Y0167509D01*
X0799752Y0166311D02*
X0659367Y0166311D01*
X0658169Y0165112D02*
X0799833Y0165112D01*
X0800329Y0163914D02*
X0656970Y0163914D01*
X0655772Y0162715D02*
X0800944Y0162715D01*
X0802143Y0161517D02*
X0654573Y0161517D01*
X0653375Y0160318D02*
X0804432Y0160318D01*
X0808072Y0160318D02*
X0817652Y0160318D01*
X0817652Y0159120D02*
X0652176Y0159120D01*
X0650977Y0157921D02*
X0817652Y0157921D01*
X0817652Y0156723D02*
X0649779Y0156723D01*
X0648580Y0155524D02*
X0817652Y0155524D01*
X0817652Y0154326D02*
X0647382Y0154326D01*
X0646183Y0153127D02*
X0817652Y0153127D01*
X0817652Y0151929D02*
X0644985Y0151929D01*
X0643786Y0150730D02*
X0817652Y0150730D01*
X0817652Y0149532D02*
X0642588Y0149532D01*
X0641389Y0148333D02*
X0817652Y0148333D01*
X0817652Y0147135D02*
X0640191Y0147135D01*
X0638992Y0145936D02*
X0817652Y0145936D01*
X0817652Y0161517D02*
X0810361Y0161517D01*
X0811560Y0162715D02*
X0817652Y0162715D01*
X0817652Y0163914D02*
X0812175Y0163914D01*
X0812671Y0165112D02*
X0817652Y0165112D01*
X0817652Y0166311D02*
X0812752Y0166311D01*
X0812752Y0167509D02*
X0817652Y0167509D01*
X0817652Y0168708D02*
X0812414Y0168708D01*
X0811918Y0169906D02*
X0817652Y0169906D01*
X0817652Y0171105D02*
X0810939Y0171105D01*
X0809468Y0172303D02*
X0817652Y0172303D01*
X0768673Y0213053D02*
X0696109Y0213053D01*
X0697308Y0214251D02*
X0767474Y0214251D01*
X0767106Y0215450D02*
X0698506Y0215450D01*
X0699705Y0216648D02*
X0765908Y0216648D01*
X0765452Y0217847D02*
X0700903Y0217847D01*
X0702102Y0219045D02*
X0765452Y0219045D01*
X0765452Y0220244D02*
X0703300Y0220244D01*
X0704499Y0221442D02*
X0761533Y0221442D01*
X0761115Y0222641D02*
X0705697Y0222641D01*
X0706896Y0223839D02*
X0761115Y0223839D01*
X0761802Y0225038D02*
X0708094Y0225038D01*
X0709293Y0226237D02*
X0761802Y0226237D01*
X0761802Y0227435D02*
X0710491Y0227435D01*
X0711690Y0228634D02*
X0761802Y0228634D01*
X0761802Y0229832D02*
X0712888Y0229832D01*
X0714087Y0231031D02*
X0761802Y0231031D01*
X0761802Y0232229D02*
X0715285Y0232229D01*
X0716484Y0233428D02*
X0761802Y0233428D01*
X0761802Y0234626D02*
X0717682Y0234626D01*
X0718881Y0235825D02*
X0761802Y0235825D01*
X0761802Y0237023D02*
X0720079Y0237023D01*
X0721278Y0238222D02*
X0761802Y0238222D01*
X0761802Y0239420D02*
X0722476Y0239420D01*
X0723675Y0240619D02*
X0761802Y0240619D01*
X0761802Y0241817D02*
X0724873Y0241817D01*
X0726072Y0243016D02*
X0761802Y0243016D01*
X0761802Y0244214D02*
X0727270Y0244214D01*
X0728469Y0245413D02*
X0761802Y0245413D01*
X0761802Y0246611D02*
X0729667Y0246611D01*
X0730866Y0247810D02*
X0761802Y0247810D01*
X0761802Y0249008D02*
X0760340Y0249008D01*
X0761461Y0250207D02*
X0761802Y0250207D01*
X0765202Y0250207D02*
X0765452Y0250207D01*
X0765452Y0251405D02*
X0765202Y0251405D01*
X0765202Y0252604D02*
X0765452Y0252604D01*
X0765452Y0253802D02*
X0765202Y0253802D01*
X0765202Y0255001D02*
X0765452Y0255001D01*
X0765452Y0256199D02*
X0765202Y0256199D01*
X0765202Y0257398D02*
X0765504Y0257398D01*
X0765202Y0258596D02*
X0766703Y0258596D01*
X0767901Y0259795D02*
X0765202Y0259795D01*
X0767252Y0256600D02*
X0773502Y0262850D01*
X0771677Y0257398D02*
X0770595Y0257398D01*
X0769922Y0256199D02*
X0769397Y0256199D01*
X0769089Y0255001D02*
X0769052Y0255001D01*
X0767252Y0256600D02*
X0767252Y0217850D01*
X0769752Y0215350D01*
X0765452Y0225038D02*
X0765202Y0225038D01*
X0765202Y0226237D02*
X0765452Y0226237D01*
X0765452Y0227435D02*
X0765202Y0227435D01*
X0765202Y0228634D02*
X0765452Y0228634D01*
X0765452Y0229832D02*
X0765202Y0229832D01*
X0765202Y0231031D02*
X0765452Y0231031D01*
X0765452Y0232229D02*
X0765202Y0232229D01*
X0765202Y0233428D02*
X0765452Y0233428D01*
X0765452Y0234626D02*
X0765202Y0234626D01*
X0765202Y0235825D02*
X0765452Y0235825D01*
X0765452Y0237023D02*
X0765202Y0237023D01*
X0765202Y0238222D02*
X0765452Y0238222D01*
X0765452Y0239420D02*
X0765202Y0239420D01*
X0765202Y0240619D02*
X0765452Y0240619D01*
X0765452Y0241817D02*
X0765202Y0241817D01*
X0765202Y0243016D02*
X0765452Y0243016D01*
X0765452Y0244214D02*
X0765202Y0244214D01*
X0765202Y0245413D02*
X0765452Y0245413D01*
X0765452Y0246611D02*
X0765202Y0246611D01*
X0765202Y0247810D02*
X0765452Y0247810D01*
X0765452Y0249008D02*
X0765202Y0249008D01*
X0754164Y0249008D02*
X0732064Y0249008D01*
X0733263Y0250207D02*
X0753043Y0250207D01*
X0760832Y0256199D02*
X0761802Y0256199D01*
X0761802Y0255001D02*
X0761665Y0255001D01*
X0732050Y0253802D02*
X0665608Y0253802D01*
X0664410Y0252604D02*
X0730852Y0252604D01*
X0729653Y0251405D02*
X0663211Y0251405D01*
X0662013Y0250207D02*
X0728455Y0250207D01*
X0727256Y0249008D02*
X0660814Y0249008D01*
X0659616Y0247810D02*
X0726058Y0247810D01*
X0724859Y0246611D02*
X0658417Y0246611D01*
X0657219Y0245413D02*
X0723660Y0245413D01*
X0722462Y0244214D02*
X0656020Y0244214D01*
X0654822Y0243016D02*
X0721263Y0243016D01*
X0720065Y0241817D02*
X0653623Y0241817D01*
X0652425Y0240619D02*
X0718866Y0240619D01*
X0717668Y0239420D02*
X0651226Y0239420D01*
X0650028Y0238222D02*
X0716469Y0238222D01*
X0715271Y0237023D02*
X0648829Y0237023D01*
X0647631Y0235825D02*
X0714072Y0235825D01*
X0712874Y0234626D02*
X0646432Y0234626D01*
X0645234Y0233428D02*
X0711675Y0233428D01*
X0710477Y0232229D02*
X0644035Y0232229D01*
X0642837Y0231031D02*
X0709278Y0231031D01*
X0708080Y0229832D02*
X0641638Y0229832D01*
X0640440Y0228634D02*
X0706881Y0228634D01*
X0705683Y0227435D02*
X0639241Y0227435D01*
X0638043Y0226237D02*
X0704484Y0226237D01*
X0703286Y0225038D02*
X0636844Y0225038D01*
X0635646Y0223839D02*
X0702087Y0223839D01*
X0700889Y0222641D02*
X0634447Y0222641D01*
X0633249Y0221442D02*
X0699690Y0221442D01*
X0698492Y0220244D02*
X0632050Y0220244D01*
X0630852Y0219045D02*
X0697293Y0219045D01*
X0696095Y0217847D02*
X0629653Y0217847D01*
X0628455Y0216648D02*
X0694896Y0216648D01*
X0693698Y0215450D02*
X0627256Y0215450D01*
X0626058Y0214251D02*
X0692499Y0214251D01*
X0691301Y0213053D02*
X0634909Y0213053D01*
X0634795Y0213100D02*
X0632209Y0213100D01*
X0629820Y0212110D01*
X0627992Y0210282D01*
X0627002Y0207893D01*
X0627002Y0205307D01*
X0627992Y0202918D01*
X0629820Y0201090D01*
X0632209Y0200100D01*
X0634795Y0200100D01*
X0637184Y0201090D01*
X0639012Y0202918D01*
X0640002Y0205307D01*
X0640002Y0207893D01*
X0639012Y0210282D01*
X0637184Y0212110D01*
X0634795Y0213100D01*
X0632095Y0213053D02*
X0624859Y0213053D01*
X0623660Y0211854D02*
X0629564Y0211854D01*
X0628365Y0210656D02*
X0622462Y0210656D01*
X0621263Y0209457D02*
X0627650Y0209457D01*
X0627154Y0208259D02*
X0620065Y0208259D01*
X0618866Y0207060D02*
X0627002Y0207060D01*
X0627002Y0205862D02*
X0617668Y0205862D01*
X0616469Y0204663D02*
X0627269Y0204663D01*
X0627765Y0203465D02*
X0615271Y0203465D01*
X0614072Y0202266D02*
X0628643Y0202266D01*
X0629873Y0201068D02*
X0612874Y0201068D01*
X0611675Y0199869D02*
X0678117Y0199869D01*
X0676919Y0198671D02*
X0610477Y0198671D01*
X0609278Y0197472D02*
X0675720Y0197472D01*
X0674522Y0196274D02*
X0608080Y0196274D01*
X0606881Y0195075D02*
X0673323Y0195075D01*
X0672125Y0193877D02*
X0605683Y0193877D01*
X0604484Y0192678D02*
X0670926Y0192678D01*
X0669727Y0191480D02*
X0603286Y0191480D01*
X0602087Y0190281D02*
X0668529Y0190281D01*
X0667330Y0189083D02*
X0600889Y0189083D01*
X0599690Y0187884D02*
X0666132Y0187884D01*
X0664933Y0186686D02*
X0598492Y0186686D01*
X0597293Y0185487D02*
X0663735Y0185487D01*
X0662536Y0184289D02*
X0596095Y0184289D01*
X0594896Y0183090D02*
X0661338Y0183090D01*
X0660139Y0181892D02*
X0593698Y0181892D01*
X0592499Y0180693D02*
X0658941Y0180693D01*
X0657742Y0179495D02*
X0591301Y0179495D01*
X0590102Y0178296D02*
X0656544Y0178296D01*
X0655345Y0177098D02*
X0588904Y0177098D01*
X0587705Y0175899D02*
X0654147Y0175899D01*
X0652948Y0174701D02*
X0587139Y0174701D01*
X0586280Y0173502D02*
X0651750Y0173502D01*
X0650551Y0172303D02*
X0461498Y0172303D01*
X0462697Y0171105D02*
X0649353Y0171105D01*
X0648154Y0169906D02*
X0463895Y0169906D01*
X0465094Y0168708D02*
X0646956Y0168708D01*
X0645757Y0167509D02*
X0466292Y0167509D01*
X0467491Y0166311D02*
X0644559Y0166311D01*
X0643360Y0165112D02*
X0468689Y0165112D01*
X0469888Y0163914D02*
X0642162Y0163914D01*
X0640963Y0162715D02*
X0471086Y0162715D01*
X0472285Y0161517D02*
X0639765Y0161517D01*
X0638566Y0160318D02*
X0473483Y0160318D01*
X0474682Y0159120D02*
X0637368Y0159120D01*
X0636169Y0157921D02*
X0475880Y0157921D01*
X0477079Y0156723D02*
X0634971Y0156723D01*
X0637382Y0154326D02*
X0642574Y0154326D01*
X0643772Y0155524D02*
X0638580Y0155524D01*
X0639779Y0156723D02*
X0644971Y0156723D01*
X0646169Y0157921D02*
X0640977Y0157921D01*
X0642176Y0159120D02*
X0647368Y0159120D01*
X0648566Y0160318D02*
X0643375Y0160318D01*
X0644573Y0161517D02*
X0649765Y0161517D01*
X0650963Y0162715D02*
X0645772Y0162715D01*
X0646970Y0163914D02*
X0652162Y0163914D01*
X0653360Y0165112D02*
X0648169Y0165112D01*
X0649367Y0166311D02*
X0654559Y0166311D01*
X0655757Y0167509D02*
X0650566Y0167509D01*
X0651764Y0168708D02*
X0656956Y0168708D01*
X0658154Y0169906D02*
X0652963Y0169906D01*
X0654161Y0171105D02*
X0659353Y0171105D01*
X0660551Y0172303D02*
X0655360Y0172303D01*
X0656558Y0173502D02*
X0661750Y0173502D01*
X0662948Y0174701D02*
X0657757Y0174701D01*
X0658955Y0175899D02*
X0664147Y0175899D01*
X0665345Y0177098D02*
X0660154Y0177098D01*
X0661352Y0178296D02*
X0666544Y0178296D01*
X0667742Y0179495D02*
X0662551Y0179495D01*
X0663749Y0180693D02*
X0668941Y0180693D01*
X0670139Y0181892D02*
X0664948Y0181892D01*
X0666146Y0183090D02*
X0671338Y0183090D01*
X0672536Y0184289D02*
X0667345Y0184289D01*
X0668543Y0185487D02*
X0673735Y0185487D01*
X0674933Y0186686D02*
X0669742Y0186686D01*
X0670940Y0187884D02*
X0676132Y0187884D01*
X0677330Y0189083D02*
X0672139Y0189083D01*
X0673337Y0190281D02*
X0678529Y0190281D01*
X0679727Y0191480D02*
X0674536Y0191480D01*
X0675734Y0192678D02*
X0680926Y0192678D01*
X0682125Y0193877D02*
X0676933Y0193877D01*
X0678131Y0195075D02*
X0683323Y0195075D01*
X0684522Y0196274D02*
X0679330Y0196274D01*
X0680528Y0197472D02*
X0685720Y0197472D01*
X0686919Y0198671D02*
X0681727Y0198671D01*
X0682925Y0199869D02*
X0688117Y0199869D01*
X0689316Y0201068D02*
X0684124Y0201068D01*
X0685322Y0202266D02*
X0690514Y0202266D01*
X0691115Y0203465D02*
X0686521Y0203465D01*
X0687719Y0204663D02*
X0691939Y0204663D01*
X0686507Y0208259D02*
X0639850Y0208259D01*
X0640002Y0207060D02*
X0685308Y0207060D01*
X0684110Y0205862D02*
X0640002Y0205862D01*
X0639735Y0204663D02*
X0682911Y0204663D01*
X0681713Y0203465D02*
X0639239Y0203465D01*
X0638361Y0202266D02*
X0680514Y0202266D01*
X0679316Y0201068D02*
X0637131Y0201068D01*
X0639354Y0209457D02*
X0687705Y0209457D01*
X0688904Y0210656D02*
X0638638Y0210656D01*
X0637440Y0211854D02*
X0690102Y0211854D01*
X0647616Y0240619D02*
X0586452Y0240619D01*
X0586452Y0241817D02*
X0648815Y0241817D01*
X0650013Y0243016D02*
X0586452Y0243016D01*
X0586452Y0244214D02*
X0651212Y0244214D01*
X0652410Y0245413D02*
X0586452Y0245413D01*
X0586452Y0246611D02*
X0653609Y0246611D01*
X0654808Y0247810D02*
X0586452Y0247810D01*
X0586452Y0249008D02*
X0656006Y0249008D01*
X0657205Y0250207D02*
X0586452Y0250207D01*
X0586452Y0251405D02*
X0658403Y0251405D01*
X0659602Y0252604D02*
X0586452Y0252604D01*
X0586452Y0253802D02*
X0660800Y0253802D01*
X0661999Y0255001D02*
X0586452Y0255001D01*
X0586452Y0256199D02*
X0663197Y0256199D01*
X0664396Y0257398D02*
X0586452Y0257398D01*
X0586452Y0258596D02*
X0665594Y0258596D01*
X0666793Y0259795D02*
X0586452Y0259795D01*
X0586452Y0260993D02*
X0667991Y0260993D01*
X0669190Y0262192D02*
X0586452Y0262192D01*
X0586452Y0263390D02*
X0670388Y0263390D01*
X0671587Y0264589D02*
X0586452Y0264589D01*
X0586452Y0265787D02*
X0672785Y0265787D01*
X0673984Y0266986D02*
X0586452Y0266986D01*
X0586452Y0268184D02*
X0675182Y0268184D01*
X0676381Y0269383D02*
X0586452Y0269383D01*
X0586452Y0270581D02*
X0677579Y0270581D01*
X0678778Y0271780D02*
X0586452Y0271780D01*
X0586452Y0272978D02*
X0679976Y0272978D01*
X0681175Y0274177D02*
X0586452Y0274177D01*
X0586452Y0275375D02*
X0682373Y0275375D01*
X0683572Y0276574D02*
X0586452Y0276574D01*
X0586452Y0277772D02*
X0684770Y0277772D01*
X0685969Y0278971D02*
X0586452Y0278971D01*
X0586452Y0280170D02*
X0687167Y0280170D01*
X0688366Y0281368D02*
X0586452Y0281368D01*
X0586452Y0282567D02*
X0689564Y0282567D01*
X0690763Y0283765D02*
X0586452Y0283765D01*
X0586452Y0284964D02*
X0691961Y0284964D01*
X0692365Y0286162D02*
X0586452Y0286162D01*
X0587139Y0287361D02*
X0693386Y0287361D01*
X0646418Y0239420D02*
X0586452Y0239420D01*
X0586452Y0238222D02*
X0645219Y0238222D01*
X0644021Y0237023D02*
X0586452Y0237023D01*
X0586452Y0235825D02*
X0642822Y0235825D01*
X0641624Y0234626D02*
X0586452Y0234626D01*
X0586452Y0233428D02*
X0640425Y0233428D01*
X0639227Y0232229D02*
X0586452Y0232229D01*
X0586452Y0231031D02*
X0638028Y0231031D01*
X0636830Y0229832D02*
X0586452Y0229832D01*
X0586452Y0228634D02*
X0635631Y0228634D01*
X0634433Y0227435D02*
X0586452Y0227435D01*
X0586452Y0226237D02*
X0633234Y0226237D01*
X0632036Y0225038D02*
X0586452Y0225038D01*
X0587139Y0223839D02*
X0630837Y0223839D01*
X0629639Y0222641D02*
X0587139Y0222641D01*
X0586721Y0221442D02*
X0628440Y0221442D01*
X0627242Y0220244D02*
X0444550Y0220244D01*
X0443352Y0219045D02*
X0626043Y0219045D01*
X0624845Y0217847D02*
X0442153Y0217847D01*
X0440955Y0216648D02*
X0623646Y0216648D01*
X0622448Y0215450D02*
X0439756Y0215450D01*
X0438558Y0214251D02*
X0621249Y0214251D01*
X0620051Y0213053D02*
X0437359Y0213053D01*
X0436160Y0211854D02*
X0618852Y0211854D01*
X0617654Y0210656D02*
X0434962Y0210656D01*
X0433763Y0209457D02*
X0616455Y0209457D01*
X0615257Y0208259D02*
X0432565Y0208259D01*
X0431366Y0207060D02*
X0614058Y0207060D01*
X0612860Y0205862D02*
X0430168Y0205862D01*
X0428969Y0204663D02*
X0611661Y0204663D01*
X0610463Y0203465D02*
X0427771Y0203465D01*
X0426572Y0202266D02*
X0609264Y0202266D01*
X0608066Y0201068D02*
X0425374Y0201068D01*
X0424175Y0199869D02*
X0606867Y0199869D01*
X0605669Y0198671D02*
X0422977Y0198671D01*
X0421778Y0197472D02*
X0604470Y0197472D01*
X0603272Y0196274D02*
X0420580Y0196274D01*
X0419381Y0195075D02*
X0602073Y0195075D01*
X0600875Y0193877D02*
X0418183Y0193877D01*
X0416984Y0192678D02*
X0599676Y0192678D01*
X0598477Y0191480D02*
X0415786Y0191480D01*
X0414587Y0190281D02*
X0597279Y0190281D01*
X0596080Y0189083D02*
X0445646Y0189083D01*
X0445918Y0187884D02*
X0594882Y0187884D01*
X0593683Y0186686D02*
X0447116Y0186686D01*
X0448315Y0185487D02*
X0592485Y0185487D01*
X0591286Y0184289D02*
X0449513Y0184289D01*
X0450712Y0183090D02*
X0590088Y0183090D01*
X0588889Y0181892D02*
X0451910Y0181892D01*
X0453109Y0180693D02*
X0587691Y0180693D01*
X0586492Y0179495D02*
X0454307Y0179495D01*
X0455506Y0178296D02*
X0585294Y0178296D01*
X0583123Y0177098D02*
X0456704Y0177098D01*
X0457903Y0175899D02*
X0582365Y0175899D01*
X0582365Y0174701D02*
X0459101Y0174701D01*
X0460300Y0173502D02*
X0583224Y0173502D01*
X0636183Y0153127D02*
X0641375Y0153127D01*
X0640177Y0151929D02*
X0484707Y0151929D01*
X0483071Y0150730D02*
X0638978Y0150730D01*
X0637780Y0149532D02*
X0484270Y0149532D01*
X0485468Y0148333D02*
X0636581Y0148333D01*
X0647513Y0078987D02*
X0646115Y0077589D01*
X0646115Y0075611D01*
X0647513Y0074213D01*
X0649491Y0074213D01*
X0650178Y0074900D01*
X0710298Y0074900D01*
X0728615Y0056583D01*
X0728615Y0055611D01*
X0730013Y0054213D01*
X0731991Y0054213D01*
X0733389Y0055611D01*
X0733389Y0057589D01*
X0731991Y0058987D01*
X0731019Y0058987D01*
X0711706Y0078300D01*
X0650178Y0078300D01*
X0649491Y0078987D01*
X0647513Y0078987D01*
X0647345Y0078820D02*
X0274659Y0078820D01*
X0274491Y0078987D02*
X0272513Y0078987D01*
X0271115Y0077589D01*
X0271115Y0075611D01*
X0272513Y0074213D01*
X0273485Y0074213D01*
X0292798Y0054900D01*
X0354326Y0054900D01*
X0355013Y0054213D01*
X0356991Y0054213D01*
X0358389Y0055611D01*
X0358389Y0057589D01*
X0356991Y0058987D01*
X0355013Y0058987D01*
X0354326Y0058300D01*
X0294206Y0058300D01*
X0275889Y0076617D01*
X0275889Y0077589D01*
X0274491Y0078987D01*
X0275857Y0077621D02*
X0646147Y0077621D01*
X0646115Y0076423D02*
X0276084Y0076423D01*
X0277282Y0075224D02*
X0646502Y0075224D01*
X0649659Y0078820D02*
X0817652Y0078820D01*
X0817652Y0080018D02*
X0210204Y0080018D01*
X0211403Y0078820D02*
X0272345Y0078820D01*
X0271147Y0077621D02*
X0212601Y0077621D01*
X0213800Y0076423D02*
X0271115Y0076423D01*
X0271502Y0075224D02*
X0214998Y0075224D01*
X0216197Y0074026D02*
X0273672Y0074026D01*
X0274871Y0072827D02*
X0217395Y0072827D01*
X0218594Y0071629D02*
X0276069Y0071629D01*
X0277268Y0070430D02*
X0219792Y0070430D01*
X0220991Y0069232D02*
X0278466Y0069232D01*
X0279665Y0068033D02*
X0222189Y0068033D01*
X0223388Y0066834D02*
X0280863Y0066834D01*
X0282062Y0065636D02*
X0224586Y0065636D01*
X0225785Y0064437D02*
X0283260Y0064437D01*
X0284459Y0063239D02*
X0226983Y0063239D01*
X0228182Y0062040D02*
X0285657Y0062040D01*
X0286856Y0060842D02*
X0229380Y0060842D01*
X0230579Y0059643D02*
X0288054Y0059643D01*
X0289253Y0058445D02*
X0231777Y0058445D01*
X0232976Y0057246D02*
X0290451Y0057246D01*
X0291650Y0056048D02*
X0234174Y0056048D01*
X0235373Y0054849D02*
X0354376Y0054849D01*
X0357628Y0054849D02*
X0466876Y0054849D01*
X0467513Y0054213D02*
X0466115Y0055611D01*
X0466115Y0057589D01*
X0467513Y0058987D01*
X0469491Y0058987D01*
X0470178Y0058300D01*
X0549326Y0058300D01*
X0550013Y0058987D01*
X0551991Y0058987D01*
X0553389Y0057589D01*
X0553389Y0055611D01*
X0551991Y0054213D01*
X0550013Y0054213D01*
X0549326Y0054900D01*
X0470178Y0054900D01*
X0469491Y0054213D01*
X0467513Y0054213D01*
X0466115Y0056048D02*
X0358389Y0056048D01*
X0358389Y0057246D02*
X0466115Y0057246D01*
X0466971Y0058445D02*
X0357533Y0058445D01*
X0354471Y0058445D02*
X0294061Y0058445D01*
X0292863Y0059643D02*
X0725554Y0059643D01*
X0726753Y0058445D02*
X0552533Y0058445D01*
X0553389Y0057246D02*
X0727951Y0057246D01*
X0728615Y0056048D02*
X0553389Y0056048D01*
X0552628Y0054849D02*
X0729376Y0054849D01*
X0732628Y0054849D02*
X0817652Y0054849D01*
X0817652Y0053651D02*
X0236571Y0053651D01*
X0237770Y0052452D02*
X0817652Y0052452D01*
X0817652Y0051254D02*
X0238968Y0051254D01*
X0240167Y0050055D02*
X0817652Y0050055D01*
X0817652Y0048857D02*
X0272399Y0048857D01*
X0273598Y0047658D02*
X0817652Y0047658D01*
X0817652Y0046460D02*
X0274796Y0046460D01*
X0275995Y0045261D02*
X0817652Y0045261D01*
X0817652Y0044063D02*
X0277193Y0044063D01*
X0278392Y0042864D02*
X0817652Y0042864D01*
X0817652Y0041666D02*
X0279590Y0041666D01*
X0280202Y0040467D02*
X0817652Y0040467D01*
X0817652Y0039269D02*
X0280202Y0039269D01*
X0280202Y0038070D02*
X0817652Y0038070D01*
X0817652Y0036872D02*
X0280202Y0036872D01*
X0280202Y0035673D02*
X0817652Y0035673D01*
X0817652Y0034475D02*
X0280202Y0034475D01*
X0281224Y0033276D02*
X0285233Y0033276D01*
X0284114Y0032078D02*
X0282454Y0032078D01*
X0283069Y0030879D02*
X0283507Y0030879D01*
X0283519Y0027284D02*
X0283053Y0027284D01*
X0282417Y0026085D02*
X0284141Y0026085D01*
X0285284Y0024887D02*
X0281134Y0024887D01*
X0275870Y0024887D02*
X0271134Y0024887D01*
X0272417Y0026085D02*
X0274587Y0026085D01*
X0273951Y0027284D02*
X0273053Y0027284D01*
X0273402Y0028482D02*
X0273602Y0028482D01*
X0273602Y0029681D02*
X0273402Y0029681D01*
X0273069Y0030879D02*
X0273935Y0030879D01*
X0274550Y0032078D02*
X0272454Y0032078D01*
X0271224Y0033276D02*
X0275780Y0033276D01*
X0276802Y0034475D02*
X0270202Y0034475D01*
X0270202Y0035673D02*
X0276802Y0035673D01*
X0276802Y0036872D02*
X0270202Y0036872D01*
X0270202Y0038070D02*
X0276802Y0038070D01*
X0276802Y0039269D02*
X0270202Y0039269D01*
X0270202Y0040467D02*
X0275981Y0040467D01*
X0274782Y0041666D02*
X0270202Y0041666D01*
X0270202Y0042864D02*
X0273584Y0042864D01*
X0272385Y0044063D02*
X0269693Y0044063D01*
X0268495Y0045261D02*
X0271187Y0045261D01*
X0266084Y0042864D02*
X0257142Y0042864D01*
X0258340Y0041666D02*
X0266802Y0041666D01*
X0266802Y0040467D02*
X0259539Y0040467D01*
X0260202Y0039269D02*
X0266802Y0039269D01*
X0266802Y0038070D02*
X0260202Y0038070D01*
X0260202Y0036872D02*
X0266802Y0036872D01*
X0266802Y0035673D02*
X0260202Y0035673D01*
X0260202Y0034475D02*
X0266802Y0034475D01*
X0265780Y0033276D02*
X0261224Y0033276D01*
X0262454Y0032078D02*
X0264550Y0032078D01*
X0263935Y0030879D02*
X0263069Y0030879D01*
X0263402Y0029681D02*
X0263602Y0029681D01*
X0263602Y0028482D02*
X0263402Y0028482D01*
X0263053Y0027284D02*
X0263951Y0027284D01*
X0264587Y0026085D02*
X0262417Y0026085D01*
X0261134Y0024887D02*
X0265870Y0024887D01*
X0255870Y0024887D02*
X0251134Y0024887D01*
X0252417Y0026085D02*
X0254587Y0026085D01*
X0253951Y0027284D02*
X0253053Y0027284D01*
X0253402Y0028482D02*
X0253602Y0028482D01*
X0253602Y0029681D02*
X0253402Y0029681D01*
X0253069Y0030879D02*
X0253935Y0030879D01*
X0254550Y0032078D02*
X0252454Y0032078D01*
X0251224Y0033276D02*
X0255780Y0033276D01*
X0256802Y0034475D02*
X0250202Y0034475D01*
X0250202Y0035673D02*
X0256802Y0035673D01*
X0256802Y0036872D02*
X0250202Y0036872D01*
X0249436Y0038070D02*
X0256802Y0038070D01*
X0255929Y0039269D02*
X0248237Y0039269D01*
X0247039Y0040467D02*
X0254731Y0040467D01*
X0255943Y0044063D02*
X0264885Y0044063D01*
X0288102Y0033276D02*
X0288902Y0033276D01*
X0288902Y0032078D02*
X0288102Y0032078D01*
X0288102Y0030879D02*
X0288902Y0030879D01*
X0288902Y0029681D02*
X0288102Y0029681D01*
X0288102Y0028482D02*
X0288902Y0028482D01*
X0288902Y0027284D02*
X0288102Y0027284D01*
X0288102Y0026085D02*
X0288902Y0026085D01*
X0288902Y0024887D02*
X0288102Y0024887D01*
X0291720Y0024887D02*
X0295870Y0024887D01*
X0294587Y0026085D02*
X0292863Y0026085D01*
X0293485Y0027284D02*
X0293951Y0027284D01*
X0293935Y0030879D02*
X0293497Y0030879D01*
X0292890Y0032078D02*
X0294550Y0032078D01*
X0295780Y0033276D02*
X0291771Y0033276D01*
X0301224Y0033276D02*
X0817652Y0033276D01*
X0817260Y0032078D02*
X0302454Y0032078D01*
X0303069Y0030879D02*
X0816061Y0030879D01*
X0814863Y0029681D02*
X0303402Y0029681D01*
X0303402Y0028482D02*
X0813664Y0028482D01*
X0812466Y0027284D02*
X0303053Y0027284D01*
X0302417Y0026085D02*
X0811267Y0026085D01*
X0810069Y0024887D02*
X0301134Y0024887D01*
X0246802Y0034475D02*
X0240202Y0034475D01*
X0240202Y0035673D02*
X0246802Y0035673D01*
X0245826Y0036872D02*
X0240202Y0036872D01*
X0240202Y0038070D02*
X0244628Y0038070D01*
X0243429Y0039269D02*
X0239487Y0039269D01*
X0236802Y0036872D02*
X0139809Y0036872D01*
X0141007Y0035673D02*
X0236802Y0035673D01*
X0236802Y0034475D02*
X0142206Y0034475D01*
X0143404Y0033276D02*
X0215780Y0033276D01*
X0214550Y0032078D02*
X0144603Y0032078D01*
X0145801Y0030879D02*
X0213935Y0030879D01*
X0215870Y0024887D02*
X0078185Y0024887D01*
X0076987Y0026085D02*
X0144938Y0026085D01*
X0143740Y0027284D02*
X0075788Y0027284D01*
X0074590Y0028482D02*
X0142541Y0028482D01*
X0141343Y0029681D02*
X0073391Y0029681D01*
X0072193Y0030879D02*
X0140144Y0030879D01*
X0138946Y0032078D02*
X0070994Y0032078D01*
X0070602Y0033276D02*
X0137747Y0033276D01*
X0136549Y0034475D02*
X0070602Y0034475D01*
X0070602Y0035673D02*
X0135350Y0035673D01*
X0134152Y0036872D02*
X0070602Y0036872D01*
X0070602Y0038070D02*
X0132953Y0038070D01*
X0136213Y0040467D02*
X0233481Y0040467D01*
X0234679Y0039269D02*
X0137412Y0039269D01*
X0138610Y0038070D02*
X0235878Y0038070D01*
X0235780Y0033276D02*
X0231771Y0033276D01*
X0232890Y0032078D02*
X0234550Y0032078D01*
X0233935Y0030879D02*
X0233497Y0030879D01*
X0233485Y0027284D02*
X0233951Y0027284D01*
X0234587Y0026085D02*
X0232863Y0026085D01*
X0231720Y0024887D02*
X0235870Y0024887D01*
X0241134Y0024887D02*
X0245870Y0024887D01*
X0244587Y0026085D02*
X0242417Y0026085D01*
X0243053Y0027284D02*
X0243951Y0027284D01*
X0243602Y0028482D02*
X0243402Y0028482D01*
X0243402Y0029681D02*
X0243602Y0029681D01*
X0243935Y0030879D02*
X0243069Y0030879D01*
X0242454Y0032078D02*
X0244550Y0032078D01*
X0245780Y0033276D02*
X0241224Y0033276D01*
X0232282Y0041666D02*
X0135015Y0041666D01*
X0133816Y0042864D02*
X0231084Y0042864D01*
X0229885Y0044063D02*
X0132618Y0044063D01*
X0131419Y0045261D02*
X0228687Y0045261D01*
X0227488Y0046460D02*
X0130221Y0046460D01*
X0131139Y0047658D02*
X0226289Y0047658D01*
X0225091Y0048857D02*
X0132337Y0048857D01*
X0133536Y0050055D02*
X0223892Y0050055D01*
X0222694Y0051254D02*
X0134734Y0051254D01*
X0135502Y0052452D02*
X0221495Y0052452D01*
X0220297Y0053651D02*
X0135502Y0053651D01*
X0135502Y0054849D02*
X0219098Y0054849D01*
X0217900Y0056048D02*
X0135502Y0056048D01*
X0135502Y0057246D02*
X0216701Y0057246D01*
X0215503Y0058445D02*
X0135502Y0058445D01*
X0135502Y0059643D02*
X0214304Y0059643D01*
X0213106Y0060842D02*
X0135502Y0060842D01*
X0135502Y0062040D02*
X0211907Y0062040D01*
X0210709Y0063239D02*
X0135502Y0063239D01*
X0135502Y0064437D02*
X0209510Y0064437D01*
X0208312Y0065636D02*
X0135502Y0065636D01*
X0135502Y0066834D02*
X0207113Y0066834D01*
X0205915Y0068033D02*
X0135811Y0068033D01*
X0135889Y0069232D02*
X0154994Y0069232D01*
X0153796Y0070430D02*
X0135548Y0070430D01*
X0131456Y0070430D02*
X0130746Y0070430D01*
X0130827Y0071629D02*
X0153615Y0071629D01*
X0153853Y0072827D02*
X0130489Y0072827D01*
X0130140Y0069232D02*
X0131115Y0069232D01*
X0131193Y0068033D02*
X0130140Y0068033D01*
X0129728Y0066834D02*
X0131502Y0066834D01*
X0131502Y0065636D02*
X0128530Y0065636D01*
X0129144Y0066250D02*
X0129144Y0066250D01*
X0127331Y0064437D02*
X0131502Y0064437D01*
X0131502Y0063239D02*
X0126133Y0063239D01*
X0124934Y0062040D02*
X0131502Y0062040D01*
X0131502Y0060842D02*
X0124461Y0060842D01*
X0123672Y0059643D02*
X0131502Y0059643D01*
X0131502Y0058445D02*
X0098252Y0058445D01*
X0098252Y0059643D02*
X0120475Y0059643D01*
X0119686Y0060842D02*
X0097773Y0060842D01*
X0096574Y0062040D02*
X0119686Y0062040D01*
X0113615Y0066834D02*
X0110963Y0066834D01*
X0112089Y0068033D02*
X0114059Y0068033D01*
X0112388Y0069232D02*
X0117479Y0069232D01*
X0118678Y0070430D02*
X0113586Y0070430D01*
X0114785Y0071629D02*
X0119876Y0071629D01*
X0121075Y0072827D02*
X0115983Y0072827D01*
X0117182Y0074026D02*
X0122273Y0074026D01*
X0123472Y0075224D02*
X0118380Y0075224D01*
X0119579Y0076423D02*
X0124670Y0076423D01*
X0125869Y0077621D02*
X0120777Y0077621D01*
X0121976Y0078820D02*
X0127067Y0078820D01*
X0128266Y0080018D02*
X0123174Y0080018D01*
X0117702Y0087209D02*
X0153507Y0087209D01*
X0154706Y0088408D02*
X0128686Y0088408D01*
X0129639Y0089606D02*
X0155904Y0089606D01*
X0157103Y0090805D02*
X0129639Y0090805D01*
X0129252Y0092003D02*
X0158301Y0092003D01*
X0159500Y0093202D02*
X0129252Y0093202D01*
X0129252Y0094400D02*
X0160698Y0094400D01*
X0161897Y0095599D02*
X0129252Y0095599D01*
X0129252Y0096797D02*
X0163095Y0096797D01*
X0162024Y0097996D02*
X0164294Y0097996D01*
X0163223Y0099194D02*
X0165492Y0099194D01*
X0166691Y0100393D02*
X0163389Y0100393D01*
X0163137Y0101591D02*
X0167889Y0101591D01*
X0169088Y0102790D02*
X0135333Y0102790D01*
X0134135Y0103988D02*
X0145809Y0103988D01*
X0144611Y0105187D02*
X0133239Y0105187D01*
X0132710Y0106385D02*
X0143412Y0106385D01*
X0142214Y0107584D02*
X0140062Y0107584D01*
X0140439Y0108782D02*
X0141015Y0108782D01*
X0143427Y0111179D02*
X0210552Y0111179D01*
X0210552Y0109981D02*
X0144625Y0109981D01*
X0145824Y0108782D02*
X0189808Y0108782D01*
X0192196Y0108782D02*
X0210552Y0108782D01*
X0210552Y0107584D02*
X0193389Y0107584D01*
X0193389Y0106385D02*
X0210552Y0106385D01*
X0210552Y0105187D02*
X0192965Y0105187D01*
X0179089Y0102790D02*
X0210552Y0102790D01*
X0210552Y0103988D02*
X0178390Y0103988D01*
X0179089Y0101591D02*
X0210552Y0101591D01*
X0210552Y0100393D02*
X0178171Y0100393D01*
X0176000Y0099194D02*
X0210552Y0099194D01*
X0210552Y0097996D02*
X0174802Y0097996D01*
X0173603Y0096797D02*
X0210552Y0096797D01*
X0210552Y0095599D02*
X0172405Y0095599D01*
X0169994Y0097996D02*
X0169102Y0097996D01*
X0168795Y0096797D02*
X0167903Y0096797D01*
X0167597Y0095599D02*
X0166705Y0095599D01*
X0166398Y0094400D02*
X0165506Y0094400D01*
X0165200Y0093202D02*
X0164308Y0093202D01*
X0164001Y0092003D02*
X0163109Y0092003D01*
X0162803Y0090805D02*
X0161911Y0090805D01*
X0159980Y0097996D02*
X0129252Y0097996D01*
X0129252Y0099194D02*
X0134120Y0099194D01*
X0132922Y0100393D02*
X0129252Y0100393D01*
X0129252Y0101591D02*
X0131723Y0101591D01*
X0129553Y0102790D02*
X0129252Y0102790D01*
X0127996Y0107584D02*
X0136042Y0107584D01*
X0135665Y0108782D02*
X0126798Y0108782D01*
X0126147Y0109981D02*
X0129345Y0109981D01*
X0131609Y0109981D02*
X0135317Y0109981D01*
X0134118Y0111179D02*
X0132808Y0111179D01*
X0132864Y0112378D02*
X0132920Y0112378D01*
X0130523Y0114775D02*
X0107702Y0114775D01*
X0107702Y0115973D02*
X0129324Y0115973D01*
X0128126Y0117172D02*
X0107702Y0117172D01*
X0107702Y0118370D02*
X0126927Y0118370D01*
X0125729Y0119569D02*
X0107702Y0119569D01*
X0107702Y0120768D02*
X0124530Y0120768D01*
X0123332Y0121966D02*
X0108389Y0121966D01*
X0108389Y0123165D02*
X0122133Y0123165D01*
X0120935Y0124363D02*
X0107865Y0124363D01*
X0107202Y0125562D02*
X0119736Y0125562D01*
X0118538Y0126760D02*
X0107202Y0126760D01*
X0107202Y0127959D02*
X0117339Y0127959D01*
X0116141Y0129157D02*
X0107202Y0129157D01*
X0107202Y0130356D02*
X0114942Y0130356D01*
X0113744Y0131554D02*
X0107202Y0131554D01*
X0107202Y0132753D02*
X0112545Y0132753D01*
X0111347Y0133951D02*
X0107202Y0133951D01*
X0107202Y0135150D02*
X0110148Y0135150D01*
X0109302Y0136348D02*
X0107202Y0136348D01*
X0107202Y0137547D02*
X0109302Y0137547D01*
X0109302Y0138745D02*
X0107202Y0138745D01*
X0107202Y0139944D02*
X0109302Y0139944D01*
X0109302Y0141142D02*
X0107202Y0141142D01*
X0107202Y0142341D02*
X0109302Y0142341D01*
X0109302Y0143539D02*
X0107202Y0143539D01*
X0107202Y0144738D02*
X0109302Y0144738D01*
X0109302Y0145936D02*
X0107202Y0145936D01*
X0107202Y0147135D02*
X0109302Y0147135D01*
X0109302Y0148333D02*
X0107202Y0148333D01*
X0107202Y0149532D02*
X0109302Y0149532D01*
X0109302Y0150730D02*
X0107202Y0150730D01*
X0107202Y0151929D02*
X0109302Y0151929D01*
X0109302Y0153127D02*
X0107202Y0153127D01*
X0107202Y0154326D02*
X0109302Y0154326D01*
X0109302Y0155524D02*
X0107202Y0155524D01*
X0107202Y0156723D02*
X0109302Y0156723D01*
X0109302Y0157921D02*
X0107202Y0157921D01*
X0107202Y0159120D02*
X0109302Y0159120D01*
X0109302Y0160318D02*
X0107202Y0160318D01*
X0107202Y0161517D02*
X0109302Y0161517D01*
X0109302Y0162715D02*
X0107202Y0162715D01*
X0107202Y0163914D02*
X0109302Y0163914D01*
X0109302Y0165112D02*
X0107202Y0165112D01*
X0107202Y0166311D02*
X0109302Y0166311D01*
X0109302Y0167509D02*
X0107202Y0167509D01*
X0107202Y0168708D02*
X0109302Y0168708D01*
X0109302Y0169906D02*
X0107202Y0169906D01*
X0107202Y0171105D02*
X0109302Y0171105D01*
X0109302Y0172303D02*
X0107202Y0172303D01*
X0107202Y0173502D02*
X0109302Y0173502D01*
X0109302Y0174701D02*
X0107202Y0174701D01*
X0107202Y0175899D02*
X0109302Y0175899D01*
X0109302Y0177098D02*
X0107202Y0177098D01*
X0107202Y0178296D02*
X0109302Y0178296D01*
X0109302Y0179495D02*
X0107202Y0179495D01*
X0107202Y0180693D02*
X0109302Y0180693D01*
X0109302Y0181892D02*
X0107202Y0181892D01*
X0107202Y0183090D02*
X0109302Y0183090D01*
X0109302Y0184289D02*
X0107202Y0184289D01*
X0107202Y0185487D02*
X0109302Y0185487D01*
X0109302Y0186686D02*
X0107202Y0186686D01*
X0107202Y0187884D02*
X0109302Y0187884D01*
X0109302Y0189083D02*
X0107202Y0189083D01*
X0107202Y0190281D02*
X0109302Y0190281D01*
X0109302Y0191480D02*
X0107202Y0191480D01*
X0107202Y0192678D02*
X0109302Y0192678D01*
X0109302Y0193877D02*
X0107202Y0193877D01*
X0107202Y0195075D02*
X0109302Y0195075D01*
X0109302Y0196274D02*
X0107202Y0196274D01*
X0107202Y0197472D02*
X0109302Y0197472D01*
X0109302Y0198671D02*
X0107202Y0198671D01*
X0107202Y0199869D02*
X0109302Y0199869D01*
X0109302Y0201068D02*
X0107202Y0201068D01*
X0107202Y0202266D02*
X0109302Y0202266D01*
X0109302Y0203465D02*
X0107202Y0203465D01*
X0107202Y0204663D02*
X0109302Y0204663D01*
X0109302Y0205862D02*
X0107202Y0205862D01*
X0107202Y0207060D02*
X0109302Y0207060D01*
X0109302Y0208259D02*
X0107202Y0208259D01*
X0107202Y0209457D02*
X0109302Y0209457D01*
X0109302Y0210656D02*
X0107202Y0210656D01*
X0107202Y0211854D02*
X0109302Y0211854D01*
X0109302Y0213053D02*
X0107202Y0213053D01*
X0107202Y0214251D02*
X0109302Y0214251D01*
X0109302Y0215450D02*
X0107202Y0215450D01*
X0107202Y0216648D02*
X0109302Y0216648D01*
X0109302Y0217847D02*
X0107202Y0217847D01*
X0107202Y0219045D02*
X0109302Y0219045D01*
X0109302Y0220244D02*
X0107202Y0220244D01*
X0107202Y0221442D02*
X0109302Y0221442D01*
X0109302Y0222641D02*
X0107202Y0222641D01*
X0107202Y0223839D02*
X0109302Y0223839D01*
X0109302Y0225038D02*
X0107202Y0225038D01*
X0107202Y0226237D02*
X0109302Y0226237D01*
X0109302Y0227435D02*
X0107202Y0227435D01*
X0107202Y0228634D02*
X0109302Y0228634D01*
X0109302Y0229832D02*
X0107202Y0229832D01*
X0107202Y0231031D02*
X0109302Y0231031D01*
X0109302Y0232229D02*
X0107202Y0232229D01*
X0107202Y0233428D02*
X0109302Y0233428D01*
X0109302Y0234626D02*
X0107202Y0234626D01*
X0107202Y0235825D02*
X0109302Y0235825D01*
X0109302Y0237023D02*
X0107202Y0237023D01*
X0107202Y0238222D02*
X0109302Y0238222D01*
X0109302Y0239420D02*
X0107202Y0239420D01*
X0107202Y0240619D02*
X0109302Y0240619D01*
X0109302Y0241817D02*
X0107202Y0241817D01*
X0107202Y0243016D02*
X0109302Y0243016D01*
X0109302Y0244214D02*
X0107202Y0244214D01*
X0107202Y0245413D02*
X0109302Y0245413D01*
X0109302Y0246611D02*
X0107202Y0246611D01*
X0107202Y0247810D02*
X0109302Y0247810D01*
X0109302Y0249008D02*
X0107202Y0249008D01*
X0107202Y0250207D02*
X0109302Y0250207D01*
X0109302Y0251405D02*
X0107202Y0251405D01*
X0107202Y0252604D02*
X0109302Y0252604D01*
X0109302Y0253802D02*
X0107202Y0253802D01*
X0107202Y0255001D02*
X0109302Y0255001D01*
X0109302Y0256199D02*
X0107202Y0256199D01*
X0107202Y0257398D02*
X0109302Y0257398D01*
X0109302Y0258596D02*
X0107202Y0258596D01*
X0107202Y0259795D02*
X0109302Y0259795D01*
X0109302Y0260993D02*
X0107202Y0260993D01*
X0107202Y0262192D02*
X0109302Y0262192D01*
X0109302Y0263390D02*
X0107202Y0263390D01*
X0107202Y0264589D02*
X0109302Y0264589D01*
X0109302Y0265787D02*
X0107202Y0265787D01*
X0107202Y0266986D02*
X0109302Y0266986D01*
X0109302Y0268184D02*
X0106963Y0268184D01*
X0105889Y0269383D02*
X0109302Y0269383D01*
X0109302Y0270581D02*
X0105397Y0270581D01*
X0103502Y0269100D02*
X0105377Y0267225D01*
X0105402Y0267200D01*
X0105402Y0123450D01*
X0106002Y0122850D01*
X0103602Y0123165D02*
X0078020Y0123165D01*
X0078379Y0124363D02*
X0080399Y0124363D01*
X0080212Y0124441D02*
X0082244Y0123599D01*
X0084445Y0123599D01*
X0086477Y0124441D01*
X0088033Y0125997D01*
X0088875Y0128029D01*
X0088875Y0130230D01*
X0088033Y0132262D01*
X0086477Y0133818D01*
X0084445Y0134660D01*
X0082244Y0134660D01*
X0080212Y0133818D01*
X0078656Y0132262D01*
X0077814Y0130230D01*
X0077814Y0128029D01*
X0078656Y0125997D01*
X0080212Y0124441D01*
X0079091Y0125562D02*
X0078448Y0125562D01*
X0078340Y0126760D02*
X0078194Y0126760D01*
X0077843Y0127959D02*
X0077606Y0127959D01*
X0077814Y0129157D02*
X0076461Y0129157D01*
X0077866Y0130356D02*
X0070602Y0130356D01*
X0070602Y0131554D02*
X0078362Y0131554D01*
X0079146Y0132753D02*
X0070602Y0132753D01*
X0070602Y0133951D02*
X0080532Y0133951D01*
X0086157Y0133951D02*
X0103602Y0133951D01*
X0103602Y0132753D02*
X0087543Y0132753D01*
X0088327Y0131554D02*
X0103602Y0131554D01*
X0103602Y0130356D02*
X0088823Y0130356D01*
X0088875Y0129157D02*
X0103602Y0129157D01*
X0103602Y0127959D02*
X0088846Y0127959D01*
X0088349Y0126760D02*
X0103602Y0126760D01*
X0103602Y0125562D02*
X0087598Y0125562D01*
X0086290Y0124363D02*
X0103602Y0124363D01*
X0103615Y0121966D02*
X0077271Y0121966D01*
X0075713Y0120768D02*
X0104302Y0120768D01*
X0104302Y0119569D02*
X0070602Y0119569D01*
X0070602Y0120768D02*
X0071291Y0120768D01*
X0073315Y0120768D02*
X0073689Y0120768D01*
X0073689Y0121966D02*
X0073315Y0121966D01*
X0073315Y0123165D02*
X0073689Y0123165D01*
X0073689Y0124363D02*
X0073315Y0124363D01*
X0073315Y0125562D02*
X0073689Y0125562D01*
X0073689Y0126760D02*
X0073315Y0126760D01*
X0073315Y0127959D02*
X0073689Y0127959D01*
X0073689Y0129157D02*
X0073315Y0129157D01*
X0070602Y0135150D02*
X0103602Y0135150D01*
X0103602Y0136348D02*
X0070602Y0136348D01*
X0070602Y0137547D02*
X0103602Y0137547D01*
X0103602Y0138745D02*
X0070602Y0138745D01*
X0070602Y0139944D02*
X0103602Y0139944D01*
X0103602Y0141142D02*
X0070602Y0141142D01*
X0070602Y0142341D02*
X0103602Y0142341D01*
X0103602Y0143539D02*
X0070602Y0143539D01*
X0070602Y0144738D02*
X0103602Y0144738D01*
X0103602Y0145936D02*
X0070602Y0145936D01*
X0070602Y0147135D02*
X0103602Y0147135D01*
X0103602Y0148333D02*
X0070602Y0148333D01*
X0070602Y0149532D02*
X0103602Y0149532D01*
X0103602Y0150730D02*
X0070602Y0150730D01*
X0070602Y0151929D02*
X0103602Y0151929D01*
X0103602Y0153127D02*
X0070602Y0153127D01*
X0070602Y0154326D02*
X0103602Y0154326D01*
X0103602Y0155524D02*
X0070602Y0155524D01*
X0070602Y0156723D02*
X0091253Y0156723D01*
X0090054Y0157921D02*
X0070602Y0157921D01*
X0070602Y0159120D02*
X0089865Y0159120D01*
X0090094Y0160318D02*
X0084072Y0160318D01*
X0083545Y0160100D02*
X0085934Y0161090D01*
X0087762Y0162918D01*
X0088752Y0165307D01*
X0088752Y0167893D01*
X0087762Y0170282D01*
X0085934Y0172110D01*
X0083545Y0173100D01*
X0080959Y0173100D01*
X0078570Y0172110D01*
X0076742Y0170282D01*
X0075752Y0167893D01*
X0075752Y0165307D01*
X0076742Y0162918D01*
X0078570Y0161090D01*
X0080959Y0160100D01*
X0083545Y0160100D01*
X0080432Y0160318D02*
X0070602Y0160318D01*
X0070602Y0161517D02*
X0078143Y0161517D01*
X0076944Y0162715D02*
X0070602Y0162715D01*
X0070602Y0163914D02*
X0076329Y0163914D01*
X0075833Y0165112D02*
X0070602Y0165112D01*
X0070602Y0166311D02*
X0075752Y0166311D01*
X0075752Y0167509D02*
X0070602Y0167509D01*
X0070602Y0168708D02*
X0076090Y0168708D01*
X0076586Y0169906D02*
X0070602Y0169906D01*
X0070602Y0171105D02*
X0077565Y0171105D01*
X0079036Y0172303D02*
X0070602Y0172303D01*
X0070602Y0173502D02*
X0103602Y0173502D01*
X0103602Y0174701D02*
X0070602Y0174701D01*
X0070602Y0175899D02*
X0103602Y0175899D01*
X0103602Y0177098D02*
X0070602Y0177098D01*
X0070602Y0178296D02*
X0103602Y0178296D01*
X0103602Y0179495D02*
X0070602Y0179495D01*
X0070602Y0180693D02*
X0103602Y0180693D01*
X0103602Y0181892D02*
X0070602Y0181892D01*
X0070602Y0183090D02*
X0103602Y0183090D01*
X0103602Y0184289D02*
X0070602Y0184289D01*
X0070602Y0185487D02*
X0103602Y0185487D01*
X0103602Y0186686D02*
X0070602Y0186686D01*
X0070602Y0187884D02*
X0103602Y0187884D01*
X0103602Y0189083D02*
X0070602Y0189083D01*
X0070602Y0190281D02*
X0103602Y0190281D01*
X0103602Y0191480D02*
X0070602Y0191480D01*
X0070602Y0192678D02*
X0103602Y0192678D01*
X0103602Y0193877D02*
X0070602Y0193877D01*
X0070602Y0195075D02*
X0103602Y0195075D01*
X0103602Y0196274D02*
X0070602Y0196274D01*
X0070602Y0197472D02*
X0103602Y0197472D01*
X0103602Y0198671D02*
X0070602Y0198671D01*
X0070602Y0199869D02*
X0103602Y0199869D01*
X0103602Y0201068D02*
X0070602Y0201068D01*
X0070602Y0202266D02*
X0103602Y0202266D01*
X0103602Y0203465D02*
X0070602Y0203465D01*
X0070602Y0204663D02*
X0103602Y0204663D01*
X0103602Y0205862D02*
X0070602Y0205862D01*
X0070602Y0207060D02*
X0103602Y0207060D01*
X0103602Y0208259D02*
X0070602Y0208259D01*
X0070602Y0209457D02*
X0103602Y0209457D01*
X0103602Y0210656D02*
X0070602Y0210656D01*
X0070602Y0211854D02*
X0103602Y0211854D01*
X0103602Y0213053D02*
X0070602Y0213053D01*
X0070602Y0214251D02*
X0103602Y0214251D01*
X0103602Y0215450D02*
X0070602Y0215450D01*
X0070602Y0216648D02*
X0103602Y0216648D01*
X0103602Y0217847D02*
X0070602Y0217847D01*
X0070602Y0219045D02*
X0103602Y0219045D01*
X0103602Y0220244D02*
X0070602Y0220244D01*
X0070602Y0221442D02*
X0103602Y0221442D01*
X0103602Y0222641D02*
X0070602Y0222641D01*
X0070602Y0223839D02*
X0103602Y0223839D01*
X0103602Y0225038D02*
X0070602Y0225038D01*
X0070602Y0226237D02*
X0103602Y0226237D01*
X0103602Y0227435D02*
X0070602Y0227435D01*
X0070602Y0228634D02*
X0103602Y0228634D01*
X0103602Y0229832D02*
X0070602Y0229832D01*
X0070602Y0231031D02*
X0103602Y0231031D01*
X0103602Y0232229D02*
X0070602Y0232229D01*
X0070602Y0233428D02*
X0103602Y0233428D01*
X0103602Y0234626D02*
X0070602Y0234626D01*
X0070602Y0235825D02*
X0103602Y0235825D01*
X0103602Y0237023D02*
X0070602Y0237023D01*
X0070602Y0238222D02*
X0103602Y0238222D01*
X0103602Y0239420D02*
X0070602Y0239420D01*
X0070602Y0240619D02*
X0103602Y0240619D01*
X0103602Y0241817D02*
X0070602Y0241817D01*
X0070602Y0243016D02*
X0103602Y0243016D01*
X0103602Y0244214D02*
X0070602Y0244214D01*
X0070602Y0245413D02*
X0103602Y0245413D01*
X0103602Y0246611D02*
X0070602Y0246611D01*
X0070602Y0247810D02*
X0103602Y0247810D01*
X0103602Y0249008D02*
X0070602Y0249008D01*
X0070602Y0250207D02*
X0103602Y0250207D01*
X0103602Y0251405D02*
X0070602Y0251405D01*
X0070602Y0252604D02*
X0103602Y0252604D01*
X0103602Y0253802D02*
X0070602Y0253802D01*
X0070602Y0255001D02*
X0103602Y0255001D01*
X0103602Y0256199D02*
X0070602Y0256199D01*
X0070602Y0257398D02*
X0103602Y0257398D01*
X0103602Y0258596D02*
X0070602Y0258596D01*
X0070602Y0259795D02*
X0103602Y0259795D01*
X0103602Y0260993D02*
X0070602Y0260993D01*
X0070602Y0262192D02*
X0103602Y0262192D01*
X0103602Y0263390D02*
X0070602Y0263390D01*
X0070602Y0264589D02*
X0103602Y0264589D01*
X0103602Y0265787D02*
X0070602Y0265787D01*
X0070602Y0266986D02*
X0102240Y0266986D01*
X0101115Y0268184D02*
X0070602Y0268184D01*
X0070602Y0269383D02*
X0101115Y0269383D01*
X0101607Y0270581D02*
X0070602Y0270581D01*
X0070602Y0271780D02*
X0109302Y0271780D01*
X0109302Y0272978D02*
X0070602Y0272978D01*
X0070602Y0274177D02*
X0109302Y0274177D01*
X0109302Y0275375D02*
X0070602Y0275375D01*
X0070602Y0276574D02*
X0109872Y0276574D01*
X0111070Y0277772D02*
X0070602Y0277772D01*
X0070602Y0278971D02*
X0111565Y0278971D01*
X0112495Y0280170D02*
X0093951Y0280170D01*
X0093728Y0279946D02*
X0095106Y0281324D01*
X0095852Y0283125D01*
X0095852Y0285075D01*
X0095106Y0286876D01*
X0093728Y0288254D01*
X0091927Y0289000D01*
X0082577Y0289000D01*
X0080776Y0288254D01*
X0079398Y0286876D01*
X0078652Y0285075D01*
X0078652Y0283125D01*
X0079398Y0281324D01*
X0080776Y0279946D01*
X0082577Y0279200D01*
X0091927Y0279200D01*
X0093728Y0279946D01*
X0095124Y0281368D02*
X0211802Y0281368D01*
X0211802Y0280170D02*
X0115409Y0280170D01*
X0116339Y0278971D02*
X0211802Y0278971D01*
X0211802Y0277772D02*
X0116339Y0277772D01*
X0115652Y0276574D02*
X0211802Y0276574D01*
X0211802Y0275375D02*
X0113482Y0275375D01*
X0112702Y0274177D02*
X0211802Y0274177D01*
X0211802Y0272978D02*
X0112702Y0272978D01*
X0112702Y0271780D02*
X0211802Y0271780D01*
X0211802Y0270581D02*
X0112702Y0270581D01*
X0112702Y0269383D02*
X0211802Y0269383D01*
X0211802Y0268184D02*
X0112702Y0268184D01*
X0112702Y0266986D02*
X0211802Y0266986D01*
X0211802Y0265787D02*
X0112702Y0265787D01*
X0112702Y0264589D02*
X0129365Y0264589D01*
X0128615Y0263390D02*
X0112702Y0263390D01*
X0112702Y0262192D02*
X0128615Y0262192D01*
X0129482Y0260993D02*
X0112702Y0260993D01*
X0112702Y0259795D02*
X0131653Y0259795D01*
X0132851Y0258596D02*
X0112702Y0258596D01*
X0112702Y0257398D02*
X0134050Y0257398D01*
X0135249Y0256199D02*
X0112702Y0256199D01*
X0112702Y0255001D02*
X0136447Y0255001D01*
X0137646Y0253802D02*
X0112702Y0253802D01*
X0112702Y0252604D02*
X0138844Y0252604D01*
X0140043Y0251405D02*
X0112702Y0251405D01*
X0112702Y0250207D02*
X0141241Y0250207D01*
X0142440Y0249008D02*
X0112702Y0249008D01*
X0112702Y0247810D02*
X0143638Y0247810D01*
X0144837Y0246611D02*
X0112702Y0246611D01*
X0112702Y0245413D02*
X0146035Y0245413D01*
X0147234Y0244214D02*
X0112702Y0244214D01*
X0112702Y0243016D02*
X0148432Y0243016D01*
X0149631Y0241817D02*
X0112702Y0241817D01*
X0112702Y0240619D02*
X0150829Y0240619D01*
X0152028Y0239420D02*
X0112702Y0239420D01*
X0112702Y0238222D02*
X0153226Y0238222D01*
X0154425Y0237023D02*
X0112702Y0237023D01*
X0112702Y0235825D02*
X0155623Y0235825D01*
X0156822Y0234626D02*
X0112702Y0234626D01*
X0112702Y0233428D02*
X0158020Y0233428D01*
X0159219Y0232229D02*
X0112702Y0232229D01*
X0112702Y0231031D02*
X0160417Y0231031D01*
X0161616Y0229832D02*
X0112702Y0229832D01*
X0112702Y0228634D02*
X0162814Y0228634D01*
X0164013Y0227435D02*
X0112702Y0227435D01*
X0112702Y0226237D02*
X0165211Y0226237D01*
X0166410Y0225038D02*
X0112702Y0225038D01*
X0112702Y0223839D02*
X0167608Y0223839D01*
X0168807Y0222641D02*
X0112702Y0222641D01*
X0112702Y0221442D02*
X0170005Y0221442D01*
X0171204Y0220244D02*
X0112702Y0220244D01*
X0112702Y0219045D02*
X0172402Y0219045D01*
X0173601Y0217847D02*
X0112702Y0217847D01*
X0112702Y0216648D02*
X0174799Y0216648D01*
X0175998Y0215450D02*
X0112702Y0215450D01*
X0112702Y0214251D02*
X0177196Y0214251D01*
X0178395Y0213053D02*
X0112702Y0213053D01*
X0112702Y0211854D02*
X0179593Y0211854D01*
X0180792Y0210656D02*
X0112702Y0210656D01*
X0112702Y0209457D02*
X0181990Y0209457D01*
X0183189Y0208259D02*
X0112702Y0208259D01*
X0112702Y0207060D02*
X0184387Y0207060D01*
X0185586Y0205862D02*
X0112702Y0205862D01*
X0112702Y0204663D02*
X0186784Y0204663D01*
X0187983Y0203465D02*
X0112702Y0203465D01*
X0112702Y0202266D02*
X0189182Y0202266D01*
X0190380Y0201068D02*
X0112702Y0201068D01*
X0112702Y0199869D02*
X0191579Y0199869D01*
X0192777Y0198671D02*
X0112702Y0198671D01*
X0112702Y0197472D02*
X0193976Y0197472D01*
X0195174Y0196274D02*
X0112702Y0196274D01*
X0112702Y0195075D02*
X0196373Y0195075D01*
X0197571Y0193877D02*
X0112702Y0193877D01*
X0112702Y0192678D02*
X0198770Y0192678D01*
X0199968Y0191480D02*
X0112702Y0191480D01*
X0112702Y0190281D02*
X0201167Y0190281D01*
X0202365Y0189083D02*
X0112702Y0189083D01*
X0112702Y0187884D02*
X0203564Y0187884D01*
X0204762Y0186686D02*
X0112702Y0186686D01*
X0112702Y0185487D02*
X0205961Y0185487D01*
X0207159Y0184289D02*
X0112702Y0184289D01*
X0112702Y0183090D02*
X0208358Y0183090D01*
X0209556Y0181892D02*
X0112702Y0181892D01*
X0112702Y0180693D02*
X0210552Y0180693D01*
X0210552Y0179495D02*
X0112702Y0179495D01*
X0112702Y0178296D02*
X0210552Y0178296D01*
X0210552Y0177098D02*
X0112702Y0177098D01*
X0112702Y0175899D02*
X0210552Y0175899D01*
X0210552Y0174701D02*
X0112702Y0174701D01*
X0112702Y0173502D02*
X0210552Y0173502D01*
X0210552Y0172303D02*
X0112702Y0172303D01*
X0112702Y0171105D02*
X0210552Y0171105D01*
X0210552Y0169906D02*
X0112702Y0169906D01*
X0112702Y0168708D02*
X0210552Y0168708D01*
X0210552Y0167509D02*
X0112702Y0167509D01*
X0112702Y0166311D02*
X0210552Y0166311D01*
X0210552Y0165112D02*
X0112702Y0165112D01*
X0112702Y0163914D02*
X0137902Y0163914D01*
X0137902Y0162715D02*
X0112702Y0162715D01*
X0112702Y0161517D02*
X0137902Y0161517D01*
X0137902Y0160318D02*
X0112702Y0160318D01*
X0112702Y0159120D02*
X0137902Y0159120D01*
X0137902Y0157921D02*
X0112702Y0157921D01*
X0112702Y0156723D02*
X0137902Y0156723D01*
X0137902Y0155524D02*
X0112702Y0155524D01*
X0112702Y0154326D02*
X0137902Y0154326D01*
X0137902Y0153127D02*
X0112702Y0153127D01*
X0112702Y0151929D02*
X0137902Y0151929D01*
X0137902Y0150730D02*
X0112702Y0150730D01*
X0112702Y0149532D02*
X0137902Y0149532D01*
X0137902Y0148333D02*
X0112702Y0148333D01*
X0112702Y0147135D02*
X0137902Y0147135D01*
X0137902Y0145936D02*
X0112702Y0145936D01*
X0112702Y0144738D02*
X0137902Y0144738D01*
X0137902Y0143539D02*
X0112702Y0143539D01*
X0112702Y0142341D02*
X0137902Y0142341D01*
X0137902Y0141142D02*
X0112702Y0141142D01*
X0112702Y0139944D02*
X0137902Y0139944D01*
X0137902Y0138745D02*
X0112702Y0138745D01*
X0112702Y0137547D02*
X0137902Y0137547D01*
X0137902Y0136348D02*
X0113758Y0136348D01*
X0114956Y0135150D02*
X0119625Y0135150D01*
X0118615Y0133951D02*
X0116155Y0133951D01*
X0117353Y0132753D02*
X0118615Y0132753D01*
X0118552Y0131554D02*
X0119222Y0131554D01*
X0123052Y0131554D02*
X0137902Y0131554D01*
X0137902Y0130356D02*
X0124251Y0130356D01*
X0125449Y0129157D02*
X0137902Y0129157D01*
X0137902Y0127959D02*
X0126648Y0127959D01*
X0127846Y0126760D02*
X0137902Y0126760D01*
X0137902Y0125562D02*
X0129045Y0125562D01*
X0130243Y0124363D02*
X0137902Y0124363D01*
X0137902Y0123165D02*
X0131442Y0123165D01*
X0132640Y0121966D02*
X0137902Y0121966D01*
X0135037Y0119569D02*
X0210552Y0119569D01*
X0210552Y0120768D02*
X0133839Y0120768D01*
X0136236Y0118370D02*
X0210552Y0118370D01*
X0210552Y0117172D02*
X0137434Y0117172D01*
X0138633Y0115973D02*
X0210552Y0115973D01*
X0210552Y0114775D02*
X0139831Y0114775D01*
X0141030Y0113576D02*
X0210552Y0113576D01*
X0210552Y0112378D02*
X0142228Y0112378D01*
X0147022Y0107584D02*
X0162360Y0107584D01*
X0164644Y0107584D02*
X0173882Y0107584D01*
X0172683Y0106385D02*
X0165843Y0106385D01*
X0165889Y0105187D02*
X0171485Y0105187D01*
X0170286Y0103988D02*
X0165517Y0103988D01*
X0170300Y0099194D02*
X0171192Y0099194D01*
X0171499Y0100393D02*
X0172391Y0100393D01*
X0172697Y0101591D02*
X0173589Y0101591D01*
X0173896Y0102790D02*
X0174315Y0102790D01*
X0197378Y0094400D02*
X0210552Y0094400D01*
X0210552Y0093202D02*
X0197689Y0093202D01*
X0198219Y0092003D02*
X0210552Y0092003D01*
X0210552Y0090805D02*
X0199418Y0090805D01*
X0200616Y0089606D02*
X0210552Y0089606D01*
X0210552Y0088408D02*
X0201815Y0088408D01*
X0203013Y0087209D02*
X0210552Y0087209D01*
X0204716Y0069232D02*
X0157010Y0069232D01*
X0131502Y0057246D02*
X0098252Y0057246D01*
X0098252Y0056048D02*
X0131502Y0056048D01*
X0131502Y0054849D02*
X0099329Y0054849D01*
X0099789Y0053651D02*
X0131474Y0053651D01*
X0130276Y0052452D02*
X0099789Y0052452D01*
X0081538Y0054849D02*
X0080181Y0054849D01*
X0081181Y0056048D02*
X0078987Y0056048D01*
X0075102Y0056048D02*
X0075102Y0056048D01*
X0075102Y0054849D02*
X0075102Y0054849D01*
X0075102Y0053651D02*
X0075102Y0053651D01*
X0075102Y0052452D02*
X0075102Y0052452D01*
X0075102Y0051254D02*
X0075102Y0051254D01*
X0075102Y0050055D02*
X0075102Y0050055D01*
X0124722Y0041666D02*
X0129358Y0041666D01*
X0128159Y0042864D02*
X0125920Y0042864D01*
X0097721Y0090805D02*
X0070602Y0090805D01*
X0070602Y0092003D02*
X0097315Y0092003D01*
X0097327Y0093202D02*
X0070602Y0093202D01*
X0070602Y0094400D02*
X0098526Y0094400D01*
X0100697Y0095599D02*
X0070602Y0095599D01*
X0070602Y0096797D02*
X0080416Y0096797D01*
X0080212Y0096882D02*
X0082244Y0096040D01*
X0084445Y0096040D01*
X0086477Y0096882D01*
X0088033Y0098438D01*
X0088875Y0100470D01*
X0088875Y0102671D01*
X0088033Y0104703D01*
X0086477Y0106259D01*
X0084445Y0107101D01*
X0082244Y0107101D01*
X0080212Y0106259D01*
X0078656Y0104703D01*
X0077814Y0102671D01*
X0077814Y0100470D01*
X0078656Y0098438D01*
X0080212Y0096882D01*
X0079098Y0097996D02*
X0070602Y0097996D01*
X0070602Y0099194D02*
X0078342Y0099194D01*
X0077846Y0100393D02*
X0070602Y0100393D01*
X0070602Y0101591D02*
X0071076Y0101591D01*
X0075928Y0101591D02*
X0077814Y0101591D01*
X0077863Y0102790D02*
X0077214Y0102790D01*
X0077794Y0103988D02*
X0078360Y0103988D01*
X0078048Y0105187D02*
X0079139Y0105187D01*
X0078048Y0106385D02*
X0080516Y0106385D01*
X0077563Y0107584D02*
X0104302Y0107584D01*
X0104302Y0108782D02*
X0076657Y0108782D01*
X0074583Y0109981D02*
X0104302Y0109981D01*
X0104302Y0111179D02*
X0070602Y0111179D01*
X0070602Y0109981D02*
X0072421Y0109981D01*
X0070602Y0112378D02*
X0104302Y0112378D01*
X0104302Y0113576D02*
X0070602Y0113576D01*
X0070602Y0114775D02*
X0104302Y0114775D01*
X0104302Y0115973D02*
X0070602Y0115973D01*
X0070602Y0117172D02*
X0104302Y0117172D01*
X0104302Y0118370D02*
X0070602Y0118370D01*
X0086173Y0106385D02*
X0104302Y0106385D01*
X0104302Y0105187D02*
X0087550Y0105187D01*
X0088329Y0103988D02*
X0104302Y0103988D01*
X0104302Y0102790D02*
X0088826Y0102790D01*
X0088875Y0101591D02*
X0104302Y0101591D01*
X0104302Y0100393D02*
X0088843Y0100393D01*
X0088347Y0099194D02*
X0104292Y0099194D01*
X0103094Y0097996D02*
X0087591Y0097996D01*
X0086273Y0096797D02*
X0101895Y0096797D01*
X0107702Y0112378D02*
X0119726Y0112378D01*
X0120924Y0113576D02*
X0107702Y0113576D01*
X0123389Y0132753D02*
X0137902Y0132753D01*
X0137902Y0133951D02*
X0123389Y0133951D01*
X0122379Y0135150D02*
X0137902Y0135150D01*
X0103602Y0156723D02*
X0093251Y0156723D01*
X0096459Y0157921D02*
X0103602Y0157921D01*
X0103602Y0159120D02*
X0097657Y0159120D01*
X0096933Y0158396D02*
X0096933Y0158396D01*
X0098856Y0160318D02*
X0103602Y0160318D01*
X0103602Y0161517D02*
X0100054Y0161517D01*
X0101253Y0162715D02*
X0103602Y0162715D01*
X0103602Y0163914D02*
X0103423Y0163914D01*
X0103602Y0167509D02*
X0102700Y0167509D01*
X0103602Y0168708D02*
X0088414Y0168708D01*
X0088752Y0167509D02*
X0100266Y0167509D01*
X0099096Y0166311D02*
X0088752Y0166311D01*
X0088671Y0165112D02*
X0098841Y0165112D01*
X0097643Y0163914D02*
X0088175Y0163914D01*
X0087560Y0162715D02*
X0096444Y0162715D01*
X0095246Y0161517D02*
X0086361Y0161517D01*
X0087918Y0169906D02*
X0103602Y0169906D01*
X0103602Y0171105D02*
X0086939Y0171105D01*
X0085468Y0172303D02*
X0103602Y0172303D01*
X0173615Y0222641D02*
X0211115Y0222641D01*
X0211115Y0223839D02*
X0172417Y0223839D01*
X0171218Y0225038D02*
X0211802Y0225038D01*
X0211802Y0226237D02*
X0170020Y0226237D01*
X0168821Y0227435D02*
X0211802Y0227435D01*
X0211802Y0228634D02*
X0167623Y0228634D01*
X0166424Y0229832D02*
X0211802Y0229832D01*
X0211802Y0231031D02*
X0165226Y0231031D01*
X0164027Y0232229D02*
X0211802Y0232229D01*
X0211802Y0233428D02*
X0162829Y0233428D01*
X0161630Y0234626D02*
X0211802Y0234626D01*
X0211802Y0235825D02*
X0160432Y0235825D01*
X0159233Y0237023D02*
X0211802Y0237023D01*
X0211802Y0238222D02*
X0158034Y0238222D01*
X0156836Y0239420D02*
X0211802Y0239420D01*
X0211802Y0240619D02*
X0155637Y0240619D01*
X0154439Y0241817D02*
X0211802Y0241817D01*
X0211802Y0243016D02*
X0153240Y0243016D01*
X0152042Y0244214D02*
X0211802Y0244214D01*
X0211802Y0245413D02*
X0150843Y0245413D01*
X0149645Y0246611D02*
X0211802Y0246611D01*
X0211802Y0247810D02*
X0148446Y0247810D01*
X0147248Y0249008D02*
X0211802Y0249008D01*
X0211802Y0250207D02*
X0146049Y0250207D01*
X0144851Y0251405D02*
X0211802Y0251405D01*
X0211802Y0252604D02*
X0143652Y0252604D01*
X0142454Y0253802D02*
X0211802Y0253802D01*
X0211802Y0255001D02*
X0141255Y0255001D01*
X0140057Y0256199D02*
X0211802Y0256199D01*
X0211802Y0257398D02*
X0138858Y0257398D01*
X0137660Y0258596D02*
X0211802Y0258596D01*
X0211802Y0259795D02*
X0136461Y0259795D01*
X0135263Y0260993D02*
X0211802Y0260993D01*
X0211802Y0262192D02*
X0134064Y0262192D01*
X0133389Y0263390D02*
X0211802Y0263390D01*
X0211802Y0264589D02*
X0132639Y0264589D01*
X0095620Y0282567D02*
X0211802Y0282567D01*
X0211802Y0283765D02*
X0095852Y0283765D01*
X0095852Y0284964D02*
X0211802Y0284964D01*
X0211802Y0286162D02*
X0095402Y0286162D01*
X0094621Y0287361D02*
X0211802Y0287361D01*
X0211802Y0288559D02*
X0092991Y0288559D01*
X0093273Y0289758D02*
X0211802Y0289758D01*
X0279461Y0251405D02*
X0388052Y0251405D01*
X0388052Y0250207D02*
X0278263Y0250207D01*
X0277064Y0249008D02*
X0388052Y0249008D01*
X0388052Y0247810D02*
X0275866Y0247810D01*
X0274667Y0246611D02*
X0388052Y0246611D01*
X0388052Y0245413D02*
X0273469Y0245413D01*
X0272270Y0244214D02*
X0388052Y0244214D01*
X0388052Y0243016D02*
X0271072Y0243016D01*
X0269873Y0241817D02*
X0388052Y0241817D01*
X0388052Y0240619D02*
X0268675Y0240619D01*
X0267476Y0239420D02*
X0388052Y0239420D01*
X0388052Y0238222D02*
X0266278Y0238222D01*
X0265079Y0237023D02*
X0388052Y0237023D01*
X0388052Y0235825D02*
X0263881Y0235825D01*
X0262682Y0234626D02*
X0388052Y0234626D01*
X0388052Y0233428D02*
X0261484Y0233428D01*
X0260285Y0232229D02*
X0388052Y0232229D01*
X0388052Y0231031D02*
X0259087Y0231031D01*
X0257888Y0229832D02*
X0388052Y0229832D01*
X0388052Y0228634D02*
X0256690Y0228634D01*
X0255491Y0227435D02*
X0388052Y0227435D01*
X0388052Y0226237D02*
X0254293Y0226237D01*
X0253094Y0225038D02*
X0388052Y0225038D01*
X0387365Y0223839D02*
X0251896Y0223839D01*
X0250697Y0222641D02*
X0387365Y0222641D01*
X0387783Y0221442D02*
X0249499Y0221442D01*
X0248300Y0220244D02*
X0439742Y0220244D01*
X0440940Y0221442D02*
X0391721Y0221442D01*
X0392139Y0222641D02*
X0442139Y0222641D01*
X0443337Y0223839D02*
X0392139Y0223839D01*
X0391452Y0225038D02*
X0444536Y0225038D01*
X0445734Y0226237D02*
X0391452Y0226237D01*
X0391452Y0227435D02*
X0446933Y0227435D01*
X0448131Y0228634D02*
X0391452Y0228634D01*
X0391452Y0229832D02*
X0449330Y0229832D01*
X0450528Y0231031D02*
X0391452Y0231031D01*
X0391452Y0232229D02*
X0451727Y0232229D01*
X0452925Y0233428D02*
X0391452Y0233428D01*
X0391452Y0234626D02*
X0454124Y0234626D01*
X0455322Y0235825D02*
X0391452Y0235825D01*
X0391452Y0237023D02*
X0456521Y0237023D01*
X0457719Y0238222D02*
X0391452Y0238222D01*
X0391452Y0239420D02*
X0458918Y0239420D01*
X0460116Y0240619D02*
X0391452Y0240619D01*
X0391452Y0241817D02*
X0461315Y0241817D01*
X0462513Y0243016D02*
X0391452Y0243016D01*
X0391452Y0244214D02*
X0463712Y0244214D01*
X0464910Y0245413D02*
X0391452Y0245413D01*
X0391452Y0246611D02*
X0466109Y0246611D01*
X0467308Y0247810D02*
X0391452Y0247810D01*
X0391452Y0249008D02*
X0468506Y0249008D01*
X0469705Y0250207D02*
X0391452Y0250207D01*
X0391452Y0251405D02*
X0470903Y0251405D01*
X0472102Y0252604D02*
X0391452Y0252604D01*
X0391452Y0253802D02*
X0473300Y0253802D01*
X0474499Y0255001D02*
X0391452Y0255001D01*
X0391452Y0256199D02*
X0475697Y0256199D01*
X0476896Y0257398D02*
X0391452Y0257398D01*
X0391452Y0258596D02*
X0478094Y0258596D01*
X0479293Y0259795D02*
X0391452Y0259795D01*
X0391452Y0260993D02*
X0480491Y0260993D01*
X0481690Y0262192D02*
X0391452Y0262192D01*
X0391452Y0263390D02*
X0482888Y0263390D01*
X0484087Y0264589D02*
X0391452Y0264589D01*
X0391452Y0265787D02*
X0485285Y0265787D01*
X0486484Y0266986D02*
X0391452Y0266986D01*
X0391452Y0268184D02*
X0487682Y0268184D01*
X0488881Y0269383D02*
X0391452Y0269383D01*
X0391452Y0270581D02*
X0490079Y0270581D01*
X0491278Y0271780D02*
X0391452Y0271780D01*
X0391452Y0272978D02*
X0492476Y0272978D01*
X0493675Y0274177D02*
X0391452Y0274177D01*
X0391452Y0275375D02*
X0494873Y0275375D01*
X0496072Y0276574D02*
X0391452Y0276574D01*
X0391452Y0277772D02*
X0497270Y0277772D01*
X0498469Y0278971D02*
X0391452Y0278971D01*
X0391452Y0280170D02*
X0499667Y0280170D01*
X0500866Y0281368D02*
X0391452Y0281368D01*
X0391452Y0282567D02*
X0502064Y0282567D01*
X0503263Y0283765D02*
X0391452Y0283765D01*
X0391452Y0284964D02*
X0504461Y0284964D01*
X0505660Y0286162D02*
X0391452Y0286162D01*
X0391452Y0287361D02*
X0519636Y0287361D01*
X0522368Y0287361D02*
X0582365Y0287361D01*
X0582365Y0288559D02*
X0391452Y0288559D01*
X0392139Y0289758D02*
X0583283Y0289758D01*
X0583052Y0286162D02*
X0523389Y0286162D01*
X0523389Y0284964D02*
X0583052Y0284964D01*
X0583052Y0283765D02*
X0522793Y0283765D01*
X0506873Y0282567D02*
X0583052Y0282567D01*
X0583052Y0281368D02*
X0505674Y0281368D01*
X0504476Y0280170D02*
X0583052Y0280170D01*
X0583052Y0278971D02*
X0503277Y0278971D01*
X0502079Y0277772D02*
X0583052Y0277772D01*
X0583052Y0276574D02*
X0500880Y0276574D01*
X0499682Y0275375D02*
X0583052Y0275375D01*
X0583052Y0274177D02*
X0498483Y0274177D01*
X0497285Y0272978D02*
X0583052Y0272978D01*
X0583052Y0271780D02*
X0496086Y0271780D01*
X0494888Y0270581D02*
X0583052Y0270581D01*
X0583052Y0269383D02*
X0493689Y0269383D01*
X0492491Y0268184D02*
X0583052Y0268184D01*
X0583052Y0266986D02*
X0491292Y0266986D01*
X0490094Y0265787D02*
X0583052Y0265787D01*
X0583052Y0264589D02*
X0488895Y0264589D01*
X0487696Y0263390D02*
X0583052Y0263390D01*
X0583052Y0262192D02*
X0486498Y0262192D01*
X0485299Y0260993D02*
X0583052Y0260993D01*
X0583052Y0259795D02*
X0484101Y0259795D01*
X0482902Y0258596D02*
X0583052Y0258596D01*
X0583052Y0257398D02*
X0481704Y0257398D01*
X0480505Y0256199D02*
X0583052Y0256199D01*
X0583052Y0255001D02*
X0479307Y0255001D01*
X0478108Y0253802D02*
X0583052Y0253802D01*
X0583052Y0252604D02*
X0476910Y0252604D01*
X0475711Y0251405D02*
X0583052Y0251405D01*
X0583052Y0250207D02*
X0474513Y0250207D01*
X0473314Y0249008D02*
X0583052Y0249008D01*
X0583052Y0247810D02*
X0472116Y0247810D01*
X0470917Y0246611D02*
X0583052Y0246611D01*
X0583052Y0245413D02*
X0469719Y0245413D01*
X0468520Y0244214D02*
X0583052Y0244214D01*
X0583052Y0243016D02*
X0467322Y0243016D01*
X0466123Y0241817D02*
X0583052Y0241817D01*
X0583052Y0240619D02*
X0464925Y0240619D01*
X0463726Y0239420D02*
X0583052Y0239420D01*
X0583052Y0238222D02*
X0462528Y0238222D01*
X0461329Y0237023D02*
X0583052Y0237023D01*
X0583052Y0235825D02*
X0460131Y0235825D01*
X0458932Y0234626D02*
X0583052Y0234626D01*
X0583052Y0233428D02*
X0457734Y0233428D01*
X0456535Y0232229D02*
X0583052Y0232229D01*
X0583052Y0231031D02*
X0455337Y0231031D01*
X0454138Y0229832D02*
X0583052Y0229832D01*
X0583052Y0228634D02*
X0452940Y0228634D01*
X0451741Y0227435D02*
X0583052Y0227435D01*
X0583052Y0226237D02*
X0450543Y0226237D01*
X0449344Y0225038D02*
X0583052Y0225038D01*
X0582365Y0223839D02*
X0448146Y0223839D01*
X0446947Y0222641D02*
X0582365Y0222641D01*
X0582783Y0221442D02*
X0445749Y0221442D01*
X0438543Y0219045D02*
X0247102Y0219045D01*
X0245903Y0217847D02*
X0437345Y0217847D01*
X0436146Y0216648D02*
X0244705Y0216648D01*
X0243506Y0215450D02*
X0434948Y0215450D01*
X0433749Y0214251D02*
X0242308Y0214251D01*
X0241109Y0213053D02*
X0257095Y0213053D01*
X0257209Y0213100D02*
X0254820Y0212110D01*
X0252992Y0210282D01*
X0252002Y0207893D01*
X0252002Y0205307D01*
X0252992Y0202918D01*
X0254820Y0201090D01*
X0257209Y0200100D01*
X0259795Y0200100D01*
X0262184Y0201090D01*
X0264012Y0202918D01*
X0265002Y0205307D01*
X0265002Y0207893D01*
X0264012Y0210282D01*
X0262184Y0212110D01*
X0259795Y0213100D01*
X0257209Y0213100D01*
X0259909Y0213053D02*
X0432551Y0213053D01*
X0431352Y0211854D02*
X0262440Y0211854D01*
X0263638Y0210656D02*
X0430154Y0210656D01*
X0428955Y0209457D02*
X0264354Y0209457D01*
X0264850Y0208259D02*
X0427757Y0208259D01*
X0426558Y0207060D02*
X0265002Y0207060D01*
X0265002Y0205862D02*
X0425360Y0205862D01*
X0424161Y0204663D02*
X0264735Y0204663D01*
X0264239Y0203465D02*
X0422963Y0203465D01*
X0421764Y0202266D02*
X0263361Y0202266D01*
X0262131Y0201068D02*
X0420566Y0201068D01*
X0419367Y0199869D02*
X0227925Y0199869D01*
X0226727Y0198671D02*
X0418169Y0198671D01*
X0416970Y0197472D02*
X0225528Y0197472D01*
X0224330Y0196274D02*
X0415772Y0196274D01*
X0414573Y0195075D02*
X0223131Y0195075D01*
X0221933Y0193877D02*
X0413375Y0193877D01*
X0412176Y0192678D02*
X0220889Y0192678D01*
X0220508Y0191480D02*
X0410977Y0191480D01*
X0413389Y0189083D02*
X0441358Y0189083D01*
X0441115Y0187884D02*
X0412190Y0187884D01*
X0410992Y0186686D02*
X0441290Y0186686D01*
X0442489Y0185487D02*
X0409793Y0185487D01*
X0408595Y0184289D02*
X0444705Y0184289D01*
X0445903Y0183090D02*
X0407396Y0183090D01*
X0406198Y0181892D02*
X0447102Y0181892D01*
X0448300Y0180693D02*
X0404999Y0180693D01*
X0403801Y0179495D02*
X0449499Y0179495D01*
X0450697Y0178296D02*
X0402602Y0178296D01*
X0401404Y0177098D02*
X0451896Y0177098D01*
X0453094Y0175899D02*
X0400889Y0175899D01*
X0399979Y0174701D02*
X0454293Y0174701D01*
X0442786Y0172303D02*
X0213952Y0172303D01*
X0213952Y0171105D02*
X0441315Y0171105D01*
X0440336Y0169906D02*
X0213952Y0169906D01*
X0213952Y0168708D02*
X0439840Y0168708D01*
X0439502Y0167509D02*
X0213952Y0167509D01*
X0213952Y0166311D02*
X0439502Y0166311D01*
X0439583Y0165112D02*
X0213952Y0165112D01*
X0213952Y0163914D02*
X0440079Y0163914D01*
X0440694Y0162715D02*
X0213952Y0162715D01*
X0213952Y0161517D02*
X0441893Y0161517D01*
X0478277Y0155524D02*
X0481550Y0155524D01*
X0481115Y0154326D02*
X0479476Y0154326D01*
X0480674Y0153127D02*
X0481115Y0153127D01*
X0481873Y0151929D02*
X0482297Y0151929D01*
X0470033Y0058445D02*
X0549471Y0058445D01*
X0549376Y0054849D02*
X0470128Y0054849D01*
X0291664Y0060842D02*
X0724356Y0060842D01*
X0723157Y0062040D02*
X0290466Y0062040D01*
X0289267Y0063239D02*
X0721959Y0063239D01*
X0720760Y0064437D02*
X0288069Y0064437D01*
X0286870Y0065636D02*
X0719562Y0065636D01*
X0718363Y0066834D02*
X0285672Y0066834D01*
X0284473Y0068033D02*
X0717165Y0068033D01*
X0715966Y0069232D02*
X0283275Y0069232D01*
X0282076Y0070430D02*
X0714768Y0070430D01*
X0713569Y0071629D02*
X0280878Y0071629D01*
X0279679Y0072827D02*
X0712371Y0072827D01*
X0711172Y0074026D02*
X0278481Y0074026D01*
X0228902Y0033276D02*
X0228102Y0033276D01*
X0228102Y0032078D02*
X0228902Y0032078D01*
X0228902Y0030879D02*
X0228102Y0030879D01*
X0228102Y0029681D02*
X0228902Y0029681D01*
X0228902Y0028482D02*
X0228102Y0028482D01*
X0228102Y0027284D02*
X0228902Y0027284D01*
X0228902Y0026085D02*
X0228102Y0026085D01*
X0228102Y0024887D02*
X0228902Y0024887D01*
X0225284Y0024887D02*
X0221134Y0024887D01*
X0222417Y0026085D02*
X0224141Y0026085D01*
X0223519Y0027284D02*
X0223053Y0027284D01*
X0223069Y0030879D02*
X0223507Y0030879D01*
X0224114Y0032078D02*
X0222454Y0032078D01*
X0221224Y0033276D02*
X0225233Y0033276D01*
X0229124Y0201068D02*
X0254873Y0201068D01*
X0253643Y0202266D02*
X0230322Y0202266D01*
X0231521Y0203465D02*
X0252765Y0203465D01*
X0252269Y0204663D02*
X0232719Y0204663D01*
X0233918Y0205862D02*
X0252002Y0205862D01*
X0252002Y0207060D02*
X0235116Y0207060D01*
X0236315Y0208259D02*
X0252154Y0208259D01*
X0252650Y0209457D02*
X0237513Y0209457D01*
X0238712Y0210656D02*
X0253365Y0210656D01*
X0254564Y0211854D02*
X0239910Y0211854D01*
X0211533Y0221442D02*
X0174814Y0221442D01*
X0280660Y0252604D02*
X0388052Y0252604D01*
X0388052Y0253802D02*
X0281858Y0253802D01*
X0283057Y0255001D02*
X0388052Y0255001D01*
X0388052Y0256199D02*
X0284255Y0256199D01*
X0285454Y0257398D02*
X0388052Y0257398D01*
X0388052Y0258596D02*
X0286652Y0258596D01*
X0287851Y0259795D02*
X0388052Y0259795D01*
X0388052Y0260993D02*
X0289049Y0260993D01*
X0290248Y0262192D02*
X0388052Y0262192D01*
X0388052Y0263390D02*
X0291446Y0263390D01*
X0292645Y0264589D02*
X0388052Y0264589D01*
X0388052Y0265787D02*
X0293844Y0265787D01*
X0295042Y0266986D02*
X0388052Y0266986D01*
X0388052Y0268184D02*
X0296241Y0268184D01*
X0297439Y0269383D02*
X0388052Y0269383D01*
X0388052Y0270581D02*
X0298638Y0270581D01*
X0299836Y0271780D02*
X0388052Y0271780D01*
X0388052Y0272978D02*
X0301035Y0272978D01*
X0302233Y0274177D02*
X0388052Y0274177D01*
X0388052Y0275375D02*
X0303432Y0275375D01*
X0304630Y0276574D02*
X0388052Y0276574D01*
X0388052Y0277772D02*
X0305829Y0277772D01*
X0307027Y0278971D02*
X0388052Y0278971D01*
X0388052Y0280170D02*
X0308226Y0280170D01*
X0309424Y0281368D02*
X0388052Y0281368D01*
X0388052Y0282567D02*
X0310623Y0282567D01*
X0329993Y0283765D02*
X0388052Y0283765D01*
X0388052Y0284964D02*
X0330239Y0284964D01*
X0330066Y0286162D02*
X0388052Y0286162D01*
X0392139Y0290956D02*
X0789063Y0290956D01*
X0817652Y0077621D02*
X0712385Y0077621D01*
X0713584Y0076423D02*
X0817652Y0076423D01*
X0817652Y0075224D02*
X0714782Y0075224D01*
X0715981Y0074026D02*
X0817652Y0074026D01*
X0817652Y0072827D02*
X0717179Y0072827D01*
X0718378Y0071629D02*
X0817652Y0071629D01*
X0817652Y0070430D02*
X0719576Y0070430D01*
X0720775Y0069232D02*
X0817652Y0069232D01*
X0817652Y0068033D02*
X0721973Y0068033D01*
X0723172Y0066834D02*
X0817652Y0066834D01*
X0817652Y0065636D02*
X0724370Y0065636D01*
X0725569Y0064437D02*
X0817652Y0064437D01*
X0817652Y0063239D02*
X0726767Y0063239D01*
X0727966Y0062040D02*
X0817652Y0062040D01*
X0817652Y0060842D02*
X0729164Y0060842D01*
X0730363Y0059643D02*
X0817652Y0059643D01*
X0817652Y0058445D02*
X0732533Y0058445D01*
X0733389Y0057246D02*
X0817652Y0057246D01*
X0817652Y0056048D02*
X0733389Y0056048D01*
X0108724Y0296949D02*
X0105780Y0296949D01*
X0106643Y0298147D02*
X0107861Y0298147D01*
X0107364Y0299346D02*
X0107140Y0299346D01*
X0107152Y0300544D02*
X0107352Y0300544D01*
X0107525Y0301743D02*
X0106979Y0301743D01*
X0106482Y0302941D02*
X0108022Y0302941D01*
X0109112Y0304140D02*
X0105392Y0304140D01*
X0099112Y0304140D02*
X0087752Y0304140D01*
X0086752Y0304140D02*
X0074012Y0304140D01*
X0075210Y0305338D02*
X0078382Y0305338D01*
X0078845Y0306537D02*
X0076409Y0306537D01*
X0077607Y0307735D02*
X0079692Y0307735D01*
X0078806Y0308934D02*
X0081365Y0308934D01*
X0086752Y0308934D02*
X0087752Y0308934D01*
X0087752Y0307735D02*
X0086752Y0307735D01*
X0086752Y0306537D02*
X0087752Y0306537D01*
X0087752Y0305338D02*
X0086752Y0305338D01*
X0079612Y0300544D02*
X0070602Y0300544D01*
X0070602Y0299346D02*
X0081209Y0299346D01*
X0080670Y0298147D02*
X0070602Y0298147D01*
X0070602Y0296949D02*
X0079471Y0296949D01*
X0078932Y0295750D02*
X0070602Y0295750D01*
X0070602Y0294552D02*
X0078652Y0294552D01*
X0078652Y0293353D02*
X0070602Y0293353D01*
X0070602Y0292155D02*
X0079054Y0292155D01*
X0079766Y0290956D02*
X0070602Y0290956D01*
X0070602Y0289758D02*
X0081231Y0289758D01*
X0081513Y0288559D02*
X0070602Y0288559D01*
X0070602Y0287361D02*
X0079883Y0287361D01*
X0079102Y0286162D02*
X0070602Y0286162D01*
X0070602Y0284964D02*
X0078652Y0284964D01*
X0078652Y0283765D02*
X0070602Y0283765D01*
X0070602Y0282567D02*
X0078883Y0282567D01*
X0079380Y0281368D02*
X0070602Y0281368D01*
X0070602Y0280170D02*
X0080553Y0280170D01*
X0095033Y0296949D02*
X0098724Y0296949D01*
X0097861Y0298147D02*
X0093834Y0298147D01*
X0093295Y0299346D02*
X0097364Y0299346D01*
X0097352Y0300544D02*
X0094891Y0300544D01*
X0095699Y0301743D02*
X0097525Y0301743D01*
X0098022Y0302941D02*
X0096134Y0302941D01*
X0078805Y0301743D02*
X0071615Y0301743D01*
X0072813Y0302941D02*
X0078369Y0302941D01*
D17*
X0108752Y0054600D03*
D18*
X0101502Y0042850D02*
X0100502Y0041850D01*
X0101502Y0042850D02*
X0123502Y0042850D01*
X0127252Y0046600D01*
X0122073Y0061421D02*
X0122073Y0061584D01*
X0128440Y0067950D01*
X0128440Y0071500D01*
X0129752Y0079100D02*
X0117252Y0066600D01*
X0116002Y0066600D01*
X0109702Y0068950D02*
X0125552Y0084800D01*
X0153502Y0084800D01*
X0175302Y0106600D01*
X0191002Y0106600D01*
X0176702Y0102300D02*
X0153502Y0079100D01*
X0129752Y0079100D01*
X0116002Y0081600D02*
X0116002Y0106250D01*
X0121977Y0112225D01*
X0130477Y0112225D01*
X0130852Y0104867D02*
X0135369Y0100350D01*
X0161002Y0100350D01*
X0163502Y0105350D02*
X0146852Y0105350D01*
X0121002Y0131200D01*
X0121002Y0133150D01*
X0111002Y0136700D02*
X0111002Y0275300D01*
X0113952Y0278250D01*
X0133652Y0294100D02*
X0087252Y0294100D01*
X0133652Y0294100D02*
X0133702Y0294050D01*
X0131002Y0262850D02*
X0212252Y0181600D01*
X0212252Y0084100D01*
X0206243Y0075200D02*
X0238593Y0042850D01*
X0254752Y0042850D01*
X0258502Y0039100D01*
X0258502Y0029100D01*
X0268502Y0029100D02*
X0268502Y0042850D01*
X0265302Y0046050D01*
X0239223Y0046050D01*
X0231798Y0053475D01*
X0231627Y0053475D01*
X0197252Y0087850D01*
X0193502Y0087850D01*
X0189752Y0091600D01*
X0195302Y0092516D02*
X0195302Y0093100D01*
X0195302Y0092516D02*
X0239968Y0047850D01*
X0271002Y0047850D01*
X0278502Y0040350D01*
X0278502Y0029100D01*
X0248502Y0029100D02*
X0248502Y0036600D01*
X0244052Y0041050D01*
X0237848Y0041050D01*
X0205498Y0073400D01*
X0180498Y0073400D01*
X0162952Y0073400D01*
X0159752Y0076600D01*
X0163502Y0080350D02*
X0168652Y0075200D01*
X0206243Y0075200D01*
X0204752Y0071600D02*
X0238502Y0037850D01*
X0238502Y0029100D01*
X0273502Y0076600D02*
X0293502Y0056600D01*
X0356002Y0056600D01*
X0468502Y0056600D02*
X0551002Y0056600D01*
X0648502Y0076600D02*
X0711002Y0076600D01*
X0731002Y0056600D01*
X0637252Y0146600D02*
X0693502Y0202850D01*
X0763502Y0222850D02*
X0763502Y0286750D01*
X0763452Y0286800D01*
X0760002Y0282531D02*
X0757252Y0279781D01*
X0757252Y0262850D01*
X0757252Y0252850D02*
X0733502Y0252850D01*
X0634752Y0154100D01*
X0483502Y0154100D01*
X0484798Y0146600D02*
X0443548Y0187850D01*
X0443502Y0187850D01*
X0398502Y0176600D02*
X0507252Y0285350D01*
X0521002Y0285350D01*
X0584752Y0287850D02*
X0584752Y0222850D01*
X0584752Y0175350D02*
X0694752Y0285350D01*
X0637252Y0146600D02*
X0484798Y0146600D01*
X0389752Y0222850D02*
X0389752Y0290350D01*
X0327852Y0285000D02*
X0310652Y0285000D01*
X0218502Y0192850D01*
X0213502Y0222850D02*
X0213502Y0291600D01*
X0101483Y0165350D02*
X0095233Y0159100D01*
X0092252Y0159100D01*
X0111002Y0136700D02*
X0138002Y0109700D01*
X0138002Y0109000D01*
X0138052Y0108950D01*
X0106002Y0098500D02*
X0099702Y0092200D01*
X0106002Y0098500D02*
X0106002Y0122850D01*
X0116002Y0081600D02*
X0104349Y0069947D01*
X0104349Y0067386D01*
X0156002Y0071600D02*
X0178502Y0071600D01*
X0203502Y0071600D01*
X0204752Y0071600D01*
D19*
X0133502Y0069100D02*
X0133502Y0052850D01*
X0127252Y0046600D01*
X0146002Y0027850D01*
X0217252Y0027850D01*
X0218502Y0029100D01*
X0127252Y0090350D02*
X0127252Y0105500D01*
X0124052Y0108700D01*
D20*
X0089352Y0067000D02*
X0081402Y0067000D01*
X0081551Y0063843D02*
X0089359Y0063843D01*
X0093552Y0059650D01*
X0096652Y0059700D02*
X0089352Y0067000D01*
X0096652Y0059700D02*
X0096652Y0054050D01*
X0097302Y0053400D01*
X0097402Y0053400D01*
M02*
