%
M48
M72
T01C0.01575
T02C0.02165
T03C0.02362
T04C0.03150
T05C0.04000
T06C0.04400
T07C0.04724
T08C0.10000
%
T01
X81002Y45350
X75102Y52978
X80952Y58800
X81551Y63843
X81402Y67000
X75102Y75222
X88502Y86600
X99702Y92200
X127252Y90350
X130852Y104867
X130477Y112225
X124052Y108700
X138052Y108950
X161002Y100350
X163502Y105350
X176702Y102300
X191002Y106600
X195302Y93100
X189752Y91600
X212252Y84100
X218502Y89100
X234752Y77850
X258502Y77850
X273502Y76600
X333502Y106600
X372252Y105350
X356002Y56600
X397252Y56600
X453502Y40350
X468502Y56600
X522252Y104100
X559752Y104100
X551002Y56600
X591002Y56600
X633502Y32850
X648502Y76600
X699752Y105350
X746002Y105350
X792252Y139100
X791002Y186600
X769752Y215350
X763502Y222850
X739752Y227850
X699752Y227850
X693502Y202850
X648502Y175350
X612252Y162850
X584752Y175350
X584752Y222850
X569752Y225350
X524752Y225350
X463502Y256600
X521002Y285350
X584752Y287850
X603502Y297850
X641002Y256600
X694752Y285350
X760002Y282531
X763452Y286800
X483502Y154100
X444752Y155350
X412252Y164100
X398502Y176600
X443502Y187850
X389752Y222850
X372252Y222850
X317252Y222850
X263502Y259100
X202252Y255350
X213502Y222850
X218502Y192850
X221002Y170350
X236002Y159100
X261002Y141600
X163502Y80350
X159752Y76600
X156002Y71600
X133502Y69100
X128440Y71500
X116002Y66600
X109702Y68950
X104349Y67386
X99752Y64100
X93552Y59650
X97402Y53400
X100502Y41850
X123502Y52850
X127252Y46600
X122073Y61421
X142752Y25550
X186002Y50350
X208502Y40350
X114752Y116600
X106002Y122850
X92252Y120350
X79752Y114100
X121002Y133150
X125752Y139900
X126002Y157850
X101483Y165350
X92252Y159100
X128502Y250350
X131002Y262850
X117252Y269100
X113952Y278250
X103502Y269100
X133702Y294050
X213502Y291600
X261002Y295350
X327852Y285000
X389752Y290350
X451002Y296600
X731002Y56600
X772252Y57850
X793502Y37850
T02
X83763Y56226
X83763Y71974
T03
X108752Y54600
T04
X73502Y105507
X73502Y125193
T05
X218502Y29100
X228502Y29100
X238502Y29100
X248502Y29100
X258502Y29100
X268502Y29100
X278502Y29100
X288502Y29100
X298502Y29100
X757252Y252850
X757252Y262850
X773502Y262850
X773502Y252850
X773502Y272850
X112252Y300350
X102252Y300350
T06
X87252Y304100
X87252Y294100
X87252Y284100
X801002Y284100
X801002Y294100
X801002Y304100
T07
X83344Y129130
X83344Y101570
T08
X82252Y166600
X258502Y126600
X258502Y206600
X446002Y166600
X633502Y126600
X633502Y206600
X806252Y166600
M30
