G75*
%MOIN*%
%OFA0B0*%
%FSLAX25Y25*%
%IPPOS*%
%LPD*%
%AMOC8*
5,1,8,0,0,1.08239X$1,22.5*
%
%ADD10C,0.00800*%
%ADD11C,0.00600*%
%ADD12C,0.02600*%
%ADD13C,0.00400*%
D10*
X0377848Y0084700D02*
X0382252Y0087636D01*
X0377848Y0090572D01*
X0382252Y0093508D02*
X0382252Y0084700D01*
X0385220Y0084700D02*
X0389623Y0084700D01*
X0391091Y0086168D01*
X0391091Y0089104D01*
X0389623Y0090572D01*
X0385220Y0090572D01*
X0394059Y0089104D02*
X0394059Y0086168D01*
X0395527Y0084700D01*
X0398463Y0084700D01*
X0399931Y0086168D01*
X0399931Y0089104D01*
X0398463Y0090572D01*
X0395527Y0090572D01*
X0394059Y0089104D01*
X0402888Y0084700D02*
X0405824Y0084700D01*
X0404356Y0084700D02*
X0404356Y0093508D01*
X0405824Y0093508D01*
X0408792Y0092040D02*
X0410260Y0093508D01*
X0413196Y0093508D01*
X0414664Y0092040D01*
X0414664Y0086168D01*
X0413196Y0084700D01*
X0410260Y0084700D01*
X0408792Y0086168D01*
X0417621Y0084700D02*
X0419089Y0086168D01*
X0419089Y0092040D01*
X0420557Y0090572D02*
X0417621Y0090572D01*
X0423524Y0089104D02*
X0423524Y0084700D01*
X0423524Y0089104D02*
X0424992Y0090572D01*
X0429396Y0090572D01*
X0429396Y0084700D01*
X0432364Y0087636D02*
X0438236Y0087636D01*
X0438236Y0089104D02*
X0436768Y0090572D01*
X0433832Y0090572D01*
X0432364Y0089104D01*
X0432364Y0087636D01*
X0433832Y0084700D02*
X0436768Y0084700D01*
X0438236Y0086168D01*
X0438236Y0089104D01*
X0441204Y0089104D02*
X0441204Y0084700D01*
X0444139Y0084700D02*
X0444139Y0089104D01*
X0442671Y0090572D01*
X0441204Y0089104D01*
X0444139Y0089104D02*
X0445607Y0090572D01*
X0447075Y0090572D01*
X0447075Y0084700D01*
X0450043Y0084700D02*
X0454447Y0084700D01*
X0455915Y0086168D01*
X0455915Y0089104D01*
X0454447Y0090572D01*
X0450043Y0090572D01*
X0450043Y0083232D01*
X0451511Y0081764D01*
X0452979Y0081764D01*
X0460351Y0084700D02*
X0463286Y0084700D01*
X0464754Y0086168D01*
X0464754Y0089104D01*
X0463286Y0090572D01*
X0460351Y0090572D01*
X0458883Y0089104D01*
X0458883Y0087636D01*
X0464754Y0087636D01*
X0467722Y0087636D02*
X0467722Y0086168D01*
X0469190Y0084700D01*
X0472126Y0084700D01*
X0473594Y0086168D01*
X0472126Y0089104D02*
X0469190Y0089104D01*
X0467722Y0087636D01*
X0467722Y0092040D02*
X0469190Y0093508D01*
X0472126Y0093508D01*
X0473594Y0092040D01*
X0473594Y0090572D01*
X0472126Y0089104D01*
X0476556Y0090572D02*
X0478024Y0090572D01*
X0480960Y0087636D01*
X0480960Y0084700D02*
X0480960Y0090572D01*
X0483928Y0089104D02*
X0483928Y0087636D01*
X0489800Y0087636D01*
X0489800Y0089104D02*
X0488332Y0090572D01*
X0485396Y0090572D01*
X0483928Y0089104D01*
X0485396Y0084700D02*
X0488332Y0084700D01*
X0489800Y0086168D01*
X0489800Y0089104D01*
X0492768Y0090572D02*
X0497171Y0090572D01*
X0498639Y0089104D01*
X0497171Y0087636D01*
X0494236Y0087636D01*
X0492768Y0086168D01*
X0494236Y0084700D01*
X0498639Y0084700D01*
X0501607Y0084700D02*
X0506011Y0084700D01*
X0507479Y0086168D01*
X0506011Y0087636D01*
X0501607Y0087636D01*
X0501607Y0089104D02*
X0501607Y0084700D01*
X0501607Y0089104D02*
X0503075Y0090572D01*
X0506011Y0090572D01*
X0510447Y0084700D02*
X0516318Y0084700D01*
X0516318Y0093508D01*
D11*
X0477930Y0078305D02*
X0477930Y0071900D01*
X0477930Y0074035D02*
X0474727Y0074035D01*
X0473659Y0075103D01*
X0473659Y0077238D01*
X0474727Y0078305D01*
X0477930Y0078305D01*
X0475794Y0074035D02*
X0473659Y0071900D01*
X0471484Y0071900D02*
X0467214Y0071900D01*
X0465039Y0074035D02*
X0462903Y0071900D01*
X0460768Y0074035D01*
X0460768Y0078305D01*
X0465039Y0078305D02*
X0465039Y0074035D01*
X0469349Y0075103D02*
X0471484Y0075103D01*
X0471484Y0078305D02*
X0467214Y0078305D01*
X0471484Y0078305D02*
X0471484Y0071900D01*
X0470850Y0065838D02*
X0469616Y0064603D01*
X0469616Y0063369D01*
X0474553Y0063369D01*
X0474553Y0064603D02*
X0474553Y0062134D01*
X0473319Y0060900D01*
X0470850Y0060900D01*
X0467187Y0062134D02*
X0465953Y0060900D01*
X0462249Y0060900D01*
X0458586Y0062134D02*
X0457352Y0060900D01*
X0458586Y0062134D02*
X0458586Y0067072D01*
X0459821Y0065838D02*
X0457352Y0065838D01*
X0454910Y0064603D02*
X0453675Y0065838D01*
X0451207Y0065838D01*
X0449972Y0064603D01*
X0449972Y0063369D01*
X0454910Y0063369D01*
X0454910Y0064603D02*
X0454910Y0062134D01*
X0453675Y0060900D01*
X0451207Y0060900D01*
X0447544Y0062134D02*
X0447544Y0064603D01*
X0446309Y0065838D01*
X0442606Y0065838D01*
X0440177Y0065838D02*
X0438943Y0065838D01*
X0437709Y0064603D01*
X0436474Y0065838D01*
X0435240Y0064603D01*
X0435240Y0060900D01*
X0437709Y0060900D02*
X0437709Y0064603D01*
X0440177Y0065838D02*
X0440177Y0060900D01*
X0442606Y0060900D02*
X0446309Y0060900D01*
X0447544Y0062134D01*
X0442606Y0060900D02*
X0442606Y0068306D01*
X0442499Y0071900D02*
X0444634Y0071900D01*
X0445702Y0072968D01*
X0441432Y0077238D01*
X0441432Y0072968D01*
X0442499Y0071900D01*
X0439257Y0071900D02*
X0434986Y0071900D01*
X0437121Y0071900D02*
X0437121Y0078305D01*
X0439257Y0076170D01*
X0441432Y0077238D02*
X0442499Y0078305D01*
X0444634Y0078305D01*
X0445702Y0077238D01*
X0445702Y0072968D01*
X0447877Y0071900D02*
X0452148Y0071900D01*
X0447877Y0076170D01*
X0447877Y0077238D01*
X0448945Y0078305D01*
X0451080Y0078305D01*
X0452148Y0077238D01*
X0462249Y0065838D02*
X0465953Y0065838D01*
X0467187Y0064603D01*
X0467187Y0062134D01*
X0470850Y0065838D02*
X0473319Y0065838D01*
X0474553Y0064603D01*
X0476982Y0064603D02*
X0476982Y0062134D01*
X0478216Y0060900D01*
X0481920Y0060900D01*
X0484348Y0060900D02*
X0489286Y0065838D01*
X0491715Y0064603D02*
X0491715Y0063369D01*
X0496652Y0063369D01*
X0496652Y0064603D02*
X0496652Y0062134D01*
X0495418Y0060900D01*
X0492949Y0060900D01*
X0489286Y0060900D02*
X0484348Y0065838D01*
X0481920Y0065838D02*
X0478216Y0065838D01*
X0476982Y0064603D01*
X0481920Y0065838D02*
X0481920Y0058431D01*
X0491715Y0064603D02*
X0492949Y0065838D01*
X0495418Y0065838D01*
X0496652Y0064603D01*
X0499081Y0064603D02*
X0499081Y0060900D01*
X0499081Y0064603D02*
X0500315Y0065838D01*
X0504018Y0065838D01*
X0504018Y0060900D01*
X0506447Y0060900D02*
X0506447Y0065838D01*
X0511385Y0065838D02*
X0511385Y0062134D01*
X0510150Y0060900D01*
X0506447Y0060900D01*
X0432811Y0062134D02*
X0431577Y0063369D01*
X0427873Y0063369D01*
X0427873Y0064603D02*
X0427873Y0060900D01*
X0431577Y0060900D01*
X0432811Y0062134D01*
X0431577Y0065838D02*
X0429108Y0065838D01*
X0427873Y0064603D01*
X0425445Y0063369D02*
X0421742Y0065838D01*
X0419306Y0064603D02*
X0419306Y0062134D01*
X0418072Y0060900D01*
X0415603Y0060900D01*
X0414369Y0063369D02*
X0419306Y0063369D01*
X0419306Y0064603D02*
X0418072Y0065838D01*
X0415603Y0065838D01*
X0414369Y0064603D01*
X0414369Y0063369D01*
X0411940Y0063369D02*
X0409471Y0065838D01*
X0408237Y0065838D01*
X0411940Y0065838D02*
X0411940Y0060900D01*
X0405801Y0060900D02*
X0404567Y0060900D01*
X0404567Y0062134D01*
X0405801Y0062134D01*
X0405801Y0060900D01*
X0402118Y0062134D02*
X0402118Y0064603D01*
X0400884Y0065838D01*
X0397181Y0065838D01*
X0394752Y0064603D02*
X0394752Y0062134D01*
X0393517Y0060900D01*
X0391049Y0060900D01*
X0389814Y0062134D01*
X0389814Y0064603D01*
X0391049Y0065838D01*
X0393517Y0065838D01*
X0394752Y0064603D01*
X0397181Y0060900D02*
X0400884Y0060900D01*
X0402118Y0062134D01*
X0387386Y0060900D02*
X0387386Y0065838D01*
X0386151Y0065838D01*
X0384917Y0064603D01*
X0383682Y0065838D01*
X0382448Y0064603D01*
X0382448Y0060900D01*
X0384917Y0060900D02*
X0384917Y0064603D01*
X0415650Y0075103D02*
X0419920Y0075103D01*
X0416717Y0078305D01*
X0416717Y0071900D01*
X0422095Y0075103D02*
X0426366Y0075103D01*
X0428541Y0076170D02*
X0429608Y0075103D01*
X0431743Y0075103D01*
X0432811Y0076170D01*
X0432811Y0077238D01*
X0431743Y0078305D01*
X0429608Y0078305D01*
X0428541Y0077238D01*
X0428541Y0076170D01*
X0429608Y0075103D02*
X0428541Y0074035D01*
X0428541Y0072968D01*
X0429608Y0071900D01*
X0431743Y0071900D01*
X0432811Y0072968D01*
X0432811Y0074035D01*
X0431743Y0075103D01*
X0425445Y0068306D02*
X0425445Y0060900D01*
X0425445Y0063369D02*
X0421742Y0060900D01*
D12*
X0415500Y0234000D02*
X0412097Y0234000D01*
X0410395Y0235701D01*
X0410395Y0244209D01*
X0405415Y0244209D02*
X0398609Y0234000D01*
X0398609Y0244209D01*
X0393629Y0244209D02*
X0393629Y0234000D01*
X0386823Y0234000D01*
X0381843Y0234000D02*
X0375037Y0244209D01*
X0370057Y0244209D02*
X0364952Y0244209D01*
X0363251Y0242507D01*
X0363251Y0239104D01*
X0364952Y0237403D01*
X0370057Y0237403D01*
X0370057Y0234000D02*
X0370057Y0244209D01*
X0358271Y0244209D02*
X0358271Y0234000D01*
X0351465Y0234000D01*
X0346485Y0235701D02*
X0344783Y0234000D01*
X0341380Y0234000D01*
X0339679Y0235701D01*
X0346485Y0235701D02*
X0346485Y0242507D01*
X0344783Y0244209D01*
X0341380Y0244209D01*
X0339679Y0242507D01*
X0334699Y0244209D02*
X0327893Y0244209D01*
X0331296Y0244209D02*
X0331296Y0234000D01*
X0322913Y0234000D02*
X0316107Y0234000D01*
X0311126Y0234000D02*
X0306022Y0234000D01*
X0304321Y0235701D01*
X0304321Y0242507D01*
X0306022Y0244209D01*
X0311126Y0244209D01*
X0311126Y0234000D01*
X0319510Y0239104D02*
X0322913Y0239104D01*
X0322913Y0234000D02*
X0322913Y0244209D01*
X0316107Y0244209D01*
X0351465Y0244209D02*
X0358271Y0244209D01*
X0358271Y0239104D02*
X0354868Y0239104D01*
X0375037Y0234000D02*
X0381843Y0244209D01*
X0386823Y0244209D02*
X0393629Y0244209D01*
X0393629Y0239104D02*
X0390226Y0239104D01*
X0405415Y0234000D02*
X0405415Y0244209D01*
X0417201Y0244209D02*
X0417201Y0235701D01*
X0415500Y0234000D01*
X0433967Y0235701D02*
X0433967Y0239104D01*
X0437370Y0239104D01*
X0433967Y0235701D02*
X0435669Y0234000D01*
X0439072Y0234000D01*
X0440773Y0235701D01*
X0440773Y0242507D01*
X0439072Y0244209D01*
X0435669Y0244209D01*
X0433967Y0242507D01*
X0445754Y0244209D02*
X0445754Y0234000D01*
X0452559Y0244209D01*
X0452559Y0234000D01*
X0457014Y0234000D02*
X0460417Y0234000D01*
X0458715Y0234000D02*
X0458715Y0244209D01*
X0457014Y0244209D02*
X0460417Y0244209D01*
X0465397Y0244209D02*
X0465397Y0234000D01*
X0465397Y0239104D02*
X0472203Y0239104D01*
X0472203Y0234000D02*
X0472203Y0244209D01*
X0477183Y0244209D02*
X0483989Y0244209D01*
X0480586Y0244209D02*
X0480586Y0234000D01*
X0488969Y0234000D02*
X0495775Y0234000D01*
X0495775Y0244209D01*
X0488969Y0244209D01*
X0492372Y0239104D02*
X0495775Y0239104D01*
X0500755Y0244209D02*
X0500755Y0234000D01*
X0507561Y0234000D02*
X0507561Y0244209D01*
X0504158Y0240806D01*
X0500755Y0244209D01*
X0512541Y0242507D02*
X0512541Y0235701D01*
X0514243Y0234000D01*
X0517646Y0234000D01*
X0519347Y0235701D01*
X0519347Y0242507D01*
X0517646Y0244209D01*
X0514243Y0244209D01*
X0512541Y0242507D01*
X0524327Y0242507D02*
X0526029Y0244209D01*
X0529432Y0244209D01*
X0531133Y0242507D01*
X0531133Y0240806D01*
X0529432Y0239104D01*
X0526029Y0239104D01*
X0524327Y0237403D01*
X0524327Y0235701D01*
X0526029Y0234000D01*
X0529432Y0234000D01*
X0531133Y0235701D01*
X0547900Y0234000D02*
X0554705Y0234000D01*
X0554705Y0244209D01*
X0547900Y0244209D01*
X0551302Y0239104D02*
X0554705Y0239104D01*
X0559686Y0234000D02*
X0564790Y0239104D01*
X0566491Y0237403D02*
X0559686Y0244209D01*
X0566491Y0244209D02*
X0566491Y0234000D01*
X0571472Y0234000D02*
X0571472Y0240806D01*
X0574875Y0244209D01*
X0578277Y0240806D01*
X0578277Y0234000D01*
X0583258Y0234000D02*
X0583258Y0244209D01*
X0586661Y0240806D01*
X0590064Y0244209D01*
X0590064Y0234000D01*
X0578277Y0239104D02*
X0571472Y0239104D01*
D13*
X0217169Y0035500D02*
X0216402Y0036267D01*
X0216402Y0037802D01*
X0217169Y0038569D01*
X0217937Y0038569D01*
X0218704Y0037802D01*
X0218704Y0037035D01*
X0218704Y0037802D02*
X0219471Y0038569D01*
X0220239Y0038569D01*
X0221006Y0037802D01*
X0221006Y0036267D01*
X0220239Y0035500D01*
X0217169Y0040104D02*
X0217169Y0040871D01*
X0216402Y0040871D01*
X0216402Y0040104D01*
X0217169Y0040104D01*
X0217169Y0042406D02*
X0216402Y0043173D01*
X0216402Y0044708D01*
X0217169Y0045475D01*
X0217937Y0045475D01*
X0218704Y0044708D01*
X0218704Y0043941D01*
X0218704Y0044708D02*
X0219471Y0045475D01*
X0220239Y0045475D01*
X0221006Y0044708D01*
X0221006Y0043173D01*
X0220239Y0042406D01*
X0221006Y0047010D02*
X0217937Y0047010D01*
X0216402Y0048544D01*
X0217937Y0050079D01*
X0221006Y0050079D01*
X0226402Y0047010D02*
X0227169Y0047777D01*
X0230239Y0047777D01*
X0231006Y0047010D01*
X0231006Y0044708D01*
X0226402Y0044708D01*
X0226402Y0047010D01*
X0226402Y0043173D02*
X0231006Y0043173D01*
X0231006Y0040104D02*
X0226402Y0043173D01*
X0226402Y0040104D02*
X0231006Y0040104D01*
X0230239Y0038569D02*
X0231006Y0037802D01*
X0231006Y0036267D01*
X0230239Y0035500D01*
X0227169Y0035500D01*
X0226402Y0036267D01*
X0226402Y0037802D01*
X0227169Y0038569D01*
X0228704Y0038569D01*
X0228704Y0037035D01*
X0236402Y0038569D02*
X0241006Y0038569D01*
X0239471Y0037035D01*
X0241006Y0035500D01*
X0236402Y0035500D01*
X0237169Y0040104D02*
X0236402Y0040871D01*
X0236402Y0042406D01*
X0237169Y0043173D01*
X0240239Y0043173D01*
X0241006Y0042406D01*
X0241006Y0040871D01*
X0240239Y0040104D01*
X0237169Y0040104D01*
X0237169Y0044708D02*
X0236402Y0045475D01*
X0236402Y0047010D01*
X0237169Y0047777D01*
X0237937Y0047777D01*
X0238704Y0047010D01*
X0238704Y0045475D01*
X0239471Y0044708D01*
X0240239Y0044708D01*
X0241006Y0045475D01*
X0241006Y0047010D01*
X0240239Y0047777D01*
X0241006Y0049312D02*
X0241006Y0050846D01*
X0241006Y0050079D02*
X0236402Y0050079D01*
X0236402Y0049312D02*
X0236402Y0050846D01*
X0236402Y0052381D02*
X0241006Y0055450D01*
X0239471Y0056985D02*
X0241006Y0058520D01*
X0236402Y0058520D01*
X0236402Y0060054D02*
X0236402Y0056985D01*
X0237169Y0061589D02*
X0236402Y0062356D01*
X0236402Y0063891D01*
X0237169Y0064658D01*
X0237937Y0064658D01*
X0238704Y0063891D01*
X0238704Y0063124D01*
X0238704Y0063891D02*
X0239471Y0064658D01*
X0240239Y0064658D01*
X0241006Y0063891D01*
X0241006Y0062356D01*
X0240239Y0061589D01*
X0246402Y0061589D02*
X0249471Y0064658D01*
X0250239Y0064658D01*
X0251006Y0063891D01*
X0251006Y0062356D01*
X0250239Y0061589D01*
X0251006Y0058520D02*
X0246402Y0058520D01*
X0246402Y0060054D02*
X0246402Y0056985D01*
X0249471Y0056985D02*
X0251006Y0058520D01*
X0251006Y0055450D02*
X0246402Y0052381D01*
X0247169Y0050846D02*
X0250239Y0050846D01*
X0251006Y0050079D01*
X0251006Y0048544D01*
X0250239Y0047777D01*
X0247169Y0047777D01*
X0246402Y0048544D01*
X0246402Y0050079D01*
X0247169Y0050846D01*
X0247169Y0046242D02*
X0246402Y0045475D01*
X0246402Y0043941D01*
X0247169Y0043173D01*
X0246402Y0041639D02*
X0246402Y0040104D01*
X0246402Y0040871D02*
X0251006Y0040871D01*
X0251006Y0040104D02*
X0251006Y0041639D01*
X0250239Y0043173D02*
X0249471Y0043173D01*
X0248704Y0043941D01*
X0248704Y0045475D01*
X0247937Y0046242D01*
X0247169Y0046242D01*
X0250239Y0046242D02*
X0251006Y0045475D01*
X0251006Y0043941D01*
X0250239Y0043173D01*
X0251006Y0038569D02*
X0246402Y0038569D01*
X0246402Y0035500D02*
X0251006Y0035500D01*
X0249471Y0037035D01*
X0251006Y0038569D01*
X0256402Y0037802D02*
X0256402Y0036267D01*
X0257169Y0035500D01*
X0258704Y0036267D02*
X0258704Y0037802D01*
X0257937Y0038569D01*
X0257169Y0038569D01*
X0256402Y0037802D01*
X0257169Y0040104D02*
X0256402Y0040871D01*
X0256402Y0042406D01*
X0257169Y0043173D01*
X0256402Y0044708D02*
X0261006Y0044708D01*
X0260239Y0043173D02*
X0261006Y0042406D01*
X0261006Y0040871D01*
X0260239Y0040104D01*
X0257169Y0040104D01*
X0260239Y0038569D02*
X0261006Y0037802D01*
X0261006Y0036267D01*
X0260239Y0035500D01*
X0259471Y0035500D01*
X0258704Y0036267D01*
X0266402Y0036267D02*
X0266402Y0037802D01*
X0267169Y0038569D01*
X0267937Y0038569D01*
X0268704Y0037802D01*
X0268704Y0036267D01*
X0269471Y0035500D01*
X0270239Y0035500D01*
X0271006Y0036267D01*
X0271006Y0037802D01*
X0270239Y0038569D01*
X0270239Y0040104D02*
X0267169Y0040104D01*
X0266402Y0040871D01*
X0266402Y0042406D01*
X0267169Y0043173D01*
X0266402Y0044708D02*
X0266402Y0047777D01*
X0266402Y0049312D02*
X0271006Y0052381D01*
X0271006Y0053916D02*
X0268704Y0053916D01*
X0269471Y0055450D01*
X0269471Y0056218D01*
X0268704Y0056985D01*
X0267169Y0056985D01*
X0266402Y0056218D01*
X0266402Y0054683D01*
X0267169Y0053916D01*
X0271006Y0053916D02*
X0271006Y0056985D01*
X0276402Y0056218D02*
X0281006Y0056218D01*
X0278704Y0053916D01*
X0278704Y0056985D01*
X0281006Y0052381D02*
X0276402Y0049312D01*
X0276402Y0047777D02*
X0279471Y0047777D01*
X0281006Y0046242D01*
X0279471Y0044708D01*
X0276402Y0044708D01*
X0277169Y0043173D02*
X0280239Y0043173D01*
X0281006Y0042406D01*
X0281006Y0040104D01*
X0276402Y0040104D01*
X0276402Y0042406D01*
X0277169Y0043173D01*
X0278704Y0044708D02*
X0278704Y0047777D01*
X0286402Y0047010D02*
X0286402Y0044708D01*
X0291006Y0044708D01*
X0291006Y0047010D01*
X0290239Y0047777D01*
X0287169Y0047777D01*
X0286402Y0047010D01*
X0286402Y0043173D02*
X0291006Y0043173D01*
X0291006Y0040104D02*
X0286402Y0040104D01*
X0287169Y0038569D02*
X0288704Y0038569D01*
X0288704Y0037035D01*
X0290239Y0038569D02*
X0291006Y0037802D01*
X0291006Y0036267D01*
X0290239Y0035500D01*
X0287169Y0035500D01*
X0286402Y0036267D01*
X0286402Y0037802D01*
X0287169Y0038569D01*
X0291006Y0040104D02*
X0286402Y0043173D01*
X0281006Y0037802D02*
X0280239Y0038569D01*
X0281006Y0037802D02*
X0281006Y0036267D01*
X0280239Y0035500D01*
X0279471Y0035500D01*
X0278704Y0036267D01*
X0278704Y0037802D01*
X0277937Y0038569D01*
X0277169Y0038569D01*
X0276402Y0037802D01*
X0276402Y0036267D01*
X0277169Y0035500D01*
X0271006Y0040871D02*
X0270239Y0040104D01*
X0271006Y0040871D02*
X0271006Y0042406D01*
X0270239Y0043173D01*
X0271006Y0044708D02*
X0266402Y0044708D01*
X0261006Y0047777D02*
X0257937Y0044708D01*
X0258704Y0045475D02*
X0256402Y0047777D01*
X0256402Y0049312D02*
X0261006Y0052381D01*
X0259471Y0053916D02*
X0261006Y0055450D01*
X0256402Y0055450D01*
X0256402Y0053916D02*
X0256402Y0056985D01*
X0258704Y0058520D02*
X0258704Y0061589D01*
X0261006Y0060822D02*
X0258704Y0058520D01*
X0256402Y0060822D02*
X0261006Y0060822D01*
X0246402Y0061589D02*
X0246402Y0064658D01*
X0296402Y0041639D02*
X0297937Y0043173D01*
X0301006Y0043173D01*
X0301006Y0040104D02*
X0297937Y0040104D01*
X0296402Y0041639D01*
X0297169Y0038569D02*
X0296402Y0037802D01*
X0296402Y0036267D01*
X0297169Y0035500D01*
X0298704Y0035500D02*
X0299471Y0037035D01*
X0299471Y0037802D01*
X0298704Y0038569D01*
X0297169Y0038569D01*
X0298704Y0035500D02*
X0301006Y0035500D01*
X0301006Y0038569D01*
X0267169Y0035500D02*
X0266402Y0036267D01*
X0091646Y0270950D02*
X0089911Y0270950D01*
X0090779Y0270950D02*
X0090779Y0276154D01*
X0091646Y0276154D02*
X0089911Y0276154D01*
X0088208Y0276154D02*
X0084739Y0270950D01*
X0084739Y0276154D01*
X0088208Y0276154D02*
X0088208Y0270950D01*
X0076567Y0281500D02*
X0074832Y0283235D01*
X0074832Y0286704D01*
X0078302Y0286704D02*
X0078302Y0283235D01*
X0076567Y0281500D01*
X0075700Y0291500D02*
X0074832Y0292367D01*
X0074832Y0295837D01*
X0075700Y0296704D01*
X0078302Y0296704D01*
X0078302Y0291500D01*
X0075700Y0291500D01*
X0075700Y0301500D02*
X0074832Y0302367D01*
X0074832Y0304102D01*
X0076567Y0304102D01*
X0078302Y0302367D02*
X0077435Y0301500D01*
X0075700Y0301500D01*
X0078302Y0302367D02*
X0078302Y0305837D01*
X0077435Y0306704D01*
X0075700Y0306704D01*
X0074832Y0305837D01*
X0776970Y0306704D02*
X0780439Y0306704D01*
X0782126Y0306704D02*
X0782126Y0302367D01*
X0782993Y0301500D01*
X0784728Y0301500D01*
X0785596Y0302367D01*
X0785596Y0306704D01*
X0787282Y0305837D02*
X0788150Y0306704D01*
X0789885Y0306704D01*
X0790752Y0305837D01*
X0790752Y0302367D01*
X0789885Y0301500D01*
X0788150Y0301500D01*
X0787282Y0302367D01*
X0787282Y0305837D01*
X0778704Y0306704D02*
X0778704Y0301500D01*
X0809832Y0302367D02*
X0809832Y0304102D01*
X0811567Y0304102D01*
X0809832Y0302367D02*
X0810700Y0301500D01*
X0812435Y0301500D01*
X0813302Y0302367D01*
X0813302Y0305837D01*
X0812435Y0306704D01*
X0810700Y0306704D01*
X0809832Y0305837D01*
X0810700Y0296704D02*
X0813302Y0296704D01*
X0813302Y0291500D01*
X0810700Y0291500D01*
X0809832Y0292367D01*
X0809832Y0295837D01*
X0810700Y0296704D01*
X0809832Y0286704D02*
X0809832Y0283235D01*
X0811567Y0281500D01*
X0813302Y0283235D01*
X0813302Y0286704D01*
M02*
