G75*
%MOIN*%
%OFA0B0*%
%FSLAX25Y25*%
%IPPOS*%
%LPD*%
%AMOC8*
5,1,8,0,0,1.08239X$1,22.5*
%
%ADD10C,0.00000*%
D10*
X0073082Y0051994D02*
X0077135Y0051994D01*
X0077134Y0051993D02*
X0077195Y0051994D01*
X0077255Y0051998D01*
X0077314Y0052006D01*
X0077374Y0052017D01*
X0077432Y0052032D01*
X0077489Y0052050D01*
X0077545Y0052072D01*
X0077600Y0052097D01*
X0077653Y0052126D01*
X0077704Y0052157D01*
X0077754Y0052192D01*
X0077801Y0052230D01*
X0077846Y0052270D01*
X0077888Y0052313D01*
X0077927Y0052358D01*
X0077964Y0052406D01*
X0077998Y0052456D01*
X0078029Y0052508D01*
X0078056Y0052561D01*
X0078080Y0052616D01*
X0078101Y0052673D01*
X0078119Y0052730D01*
X0078133Y0052789D01*
X0078143Y0052848D01*
X0078150Y0052908D01*
X0078153Y0052968D01*
X0078152Y0053029D01*
X0078148Y0053090D01*
X0078140Y0053151D01*
X0078128Y0053211D01*
X0078112Y0053270D01*
X0078092Y0053328D01*
X0078069Y0053384D01*
X0078043Y0053439D01*
X0078013Y0053492D01*
X0077980Y0053544D01*
X0077944Y0053593D01*
X0077904Y0053639D01*
X0077862Y0053684D01*
X0077817Y0053725D01*
X0077770Y0053763D01*
X0077720Y0053799D01*
X0077668Y0053831D01*
X0077614Y0053860D01*
X0077559Y0053886D01*
X0077502Y0053908D01*
X0077444Y0053926D01*
X0077384Y0053940D01*
X0077324Y0053951D01*
X0077264Y0053958D01*
X0077203Y0053962D01*
X0072988Y0053962D01*
X0072928Y0053959D01*
X0072868Y0053951D01*
X0072809Y0053941D01*
X0072751Y0053926D01*
X0072693Y0053908D01*
X0072637Y0053886D01*
X0072582Y0053861D01*
X0072529Y0053833D01*
X0072478Y0053801D01*
X0072429Y0053766D01*
X0072382Y0053728D01*
X0072338Y0053687D01*
X0072296Y0053644D01*
X0072257Y0053597D01*
X0072222Y0053549D01*
X0072189Y0053498D01*
X0072159Y0053446D01*
X0072133Y0053392D01*
X0072111Y0053336D01*
X0072091Y0053279D01*
X0072076Y0053220D01*
X0072064Y0053161D01*
X0072056Y0053102D01*
X0072052Y0053042D01*
X0072051Y0052981D01*
X0072050Y0052981D02*
X0072054Y0052918D01*
X0072061Y0052855D01*
X0072072Y0052793D01*
X0072087Y0052731D01*
X0072106Y0052670D01*
X0072129Y0052611D01*
X0072156Y0052553D01*
X0072186Y0052498D01*
X0072219Y0052444D01*
X0072256Y0052392D01*
X0072296Y0052343D01*
X0072339Y0052296D01*
X0072385Y0052252D01*
X0072433Y0052211D01*
X0072484Y0052173D01*
X0072537Y0052139D01*
X0072593Y0052108D01*
X0072650Y0052080D01*
X0072708Y0052056D01*
X0072769Y0052036D01*
X0072830Y0052020D01*
X0072892Y0052007D01*
X0072955Y0051998D01*
X0073018Y0051994D01*
X0073082Y0051993D01*
X0073121Y0074250D02*
X0077174Y0074250D01*
X0077235Y0074252D01*
X0077297Y0074257D01*
X0077357Y0074267D01*
X0077418Y0074280D01*
X0077477Y0074296D01*
X0077535Y0074316D01*
X0077592Y0074340D01*
X0077647Y0074367D01*
X0077701Y0074397D01*
X0077752Y0074430D01*
X0077802Y0074467D01*
X0077849Y0074506D01*
X0077894Y0074548D01*
X0077936Y0074593D01*
X0077975Y0074640D01*
X0078012Y0074690D01*
X0078045Y0074741D01*
X0078075Y0074795D01*
X0078102Y0074850D01*
X0078126Y0074907D01*
X0078146Y0074965D01*
X0078162Y0075024D01*
X0078175Y0075085D01*
X0078185Y0075145D01*
X0078190Y0075207D01*
X0078192Y0075268D01*
X0078190Y0075328D01*
X0078185Y0075387D01*
X0078175Y0075446D01*
X0078162Y0075504D01*
X0078146Y0075562D01*
X0078125Y0075618D01*
X0078102Y0075672D01*
X0078074Y0075726D01*
X0078044Y0075777D01*
X0078011Y0075826D01*
X0077974Y0075874D01*
X0077935Y0075918D01*
X0077892Y0075961D01*
X0077848Y0076000D01*
X0077800Y0076037D01*
X0077751Y0076070D01*
X0077700Y0076100D01*
X0077646Y0076128D01*
X0077592Y0076151D01*
X0077536Y0076172D01*
X0077478Y0076188D01*
X0077420Y0076201D01*
X0077361Y0076211D01*
X0077302Y0076216D01*
X0077242Y0076218D01*
X0073028Y0076218D01*
X0072969Y0076216D01*
X0072911Y0076211D01*
X0072852Y0076201D01*
X0072795Y0076189D01*
X0072738Y0076172D01*
X0072683Y0076152D01*
X0072629Y0076129D01*
X0072577Y0076102D01*
X0072526Y0076072D01*
X0072477Y0076039D01*
X0072431Y0076003D01*
X0072387Y0075964D01*
X0072345Y0075922D01*
X0072306Y0075878D01*
X0072270Y0075832D01*
X0072237Y0075783D01*
X0072207Y0075732D01*
X0072180Y0075680D01*
X0072157Y0075626D01*
X0072137Y0075571D01*
X0072120Y0075514D01*
X0072108Y0075457D01*
X0072098Y0075398D01*
X0072093Y0075340D01*
X0072091Y0075281D01*
X0072090Y0075281D02*
X0072092Y0075219D01*
X0072098Y0075157D01*
X0072107Y0075095D01*
X0072120Y0075034D01*
X0072137Y0074974D01*
X0072157Y0074915D01*
X0072181Y0074858D01*
X0072208Y0074802D01*
X0072239Y0074748D01*
X0072273Y0074695D01*
X0072309Y0074645D01*
X0072349Y0074597D01*
X0072392Y0074552D01*
X0072437Y0074509D01*
X0072485Y0074469D01*
X0072535Y0074433D01*
X0072588Y0074399D01*
X0072642Y0074368D01*
X0072698Y0074341D01*
X0072755Y0074317D01*
X0072814Y0074297D01*
X0072874Y0074280D01*
X0072935Y0074267D01*
X0072997Y0074258D01*
X0073059Y0074252D01*
X0073121Y0074250D01*
M02*
