G75*
%MOIN*%
%OFA0B0*%
%FSLAX25Y25*%
%IPPOS*%
%LPD*%
%AMOC8*
5,1,8,0,0,1.08239X$1,22.5*
%
%ADD10C,0.10800*%
%ADD11R,0.06706X0.04343*%
%ADD12R,0.05918X0.07099*%
%ADD13R,0.07099X0.05918*%
%ADD14R,0.05918X0.05524*%
%ADD15R,0.05524X0.02965*%
%ADD16R,0.08674X0.05524*%
%ADD17R,0.05524X0.08674*%
%ADD18R,0.03950X0.03950*%
%ADD19R,0.04343X0.04343*%
%ADD20C,0.01351*%
%ADD21R,0.10643X0.10643*%
%ADD22R,0.06509X0.02375*%
%ADD23R,0.08280X0.08280*%
%ADD24C,0.02965*%
%ADD25C,0.04800*%
%ADD26R,0.03950X0.04343*%
%ADD27C,0.08200*%
%ADD28R,0.05524X0.05524*%
%ADD29R,0.05524X0.05918*%
%ADD30C,0.03500*%
%ADD31C,0.05000*%
%ADD32C,0.08200*%
%ADD33R,0.04800X0.03300*%
D10*
X0258502Y0126600D03*
X0258502Y0206600D03*
X0082252Y0166600D03*
X0446002Y0166600D03*
X0633502Y0126600D03*
X0633502Y0206600D03*
X0806252Y0166600D03*
D11*
X0731248Y0160104D03*
X0711956Y0160104D03*
X0711956Y0173096D03*
X0731248Y0173096D03*
X0776356Y0222604D03*
X0776356Y0235596D03*
X0795648Y0235596D03*
X0795648Y0222604D03*
X0731248Y0285104D03*
X0711956Y0285104D03*
X0711956Y0298096D03*
X0731248Y0298096D03*
X0667148Y0235596D03*
X0647856Y0235596D03*
X0647856Y0222604D03*
X0667148Y0222604D03*
X0615648Y0222604D03*
X0596356Y0222604D03*
X0596356Y0235596D03*
X0615648Y0235596D03*
X0551248Y0285104D03*
X0531956Y0285104D03*
X0531956Y0298096D03*
X0551248Y0298096D03*
X0487148Y0235596D03*
X0467856Y0235596D03*
X0467856Y0222604D03*
X0487148Y0222604D03*
X0455648Y0200596D03*
X0455648Y0187604D03*
X0436356Y0187604D03*
X0436356Y0200596D03*
X0420648Y0222604D03*
X0401356Y0222604D03*
X0401356Y0235596D03*
X0420648Y0235596D03*
X0356248Y0285104D03*
X0356248Y0298096D03*
X0336956Y0298096D03*
X0336956Y0285104D03*
X0292148Y0235596D03*
X0272856Y0235596D03*
X0272856Y0222604D03*
X0292148Y0222604D03*
X0240648Y0222604D03*
X0240648Y0235596D03*
X0221356Y0235596D03*
X0221356Y0222604D03*
X0176248Y0173096D03*
X0176248Y0160104D03*
X0156956Y0160104D03*
X0156956Y0173096D03*
X0112148Y0222604D03*
X0092856Y0222604D03*
X0092856Y0235596D03*
X0112148Y0235596D03*
X0156956Y0285104D03*
X0156956Y0298096D03*
X0176248Y0298096D03*
X0176248Y0285104D03*
X0336956Y0173096D03*
X0336956Y0160104D03*
X0356248Y0160104D03*
X0356248Y0173096D03*
X0436356Y0145596D03*
X0436356Y0132604D03*
X0455648Y0132604D03*
X0455648Y0145596D03*
X0467856Y0110596D03*
X0487148Y0110596D03*
X0487148Y0097604D03*
X0467856Y0097604D03*
X0420648Y0097604D03*
X0401356Y0097604D03*
X0401356Y0110596D03*
X0420648Y0110596D03*
X0356248Y0048096D03*
X0356248Y0035104D03*
X0336956Y0035104D03*
X0336956Y0048096D03*
X0292148Y0097604D03*
X0272856Y0097604D03*
X0272856Y0110596D03*
X0292148Y0110596D03*
X0240648Y0110596D03*
X0240648Y0097604D03*
X0221356Y0097604D03*
X0221356Y0110596D03*
X0112148Y0110596D03*
X0092856Y0110596D03*
X0092856Y0097604D03*
X0112148Y0097604D03*
X0156956Y0048096D03*
X0156956Y0035104D03*
X0176248Y0035104D03*
X0176248Y0048096D03*
X0531956Y0048096D03*
X0551248Y0048096D03*
X0551248Y0035104D03*
X0531956Y0035104D03*
X0596356Y0097604D03*
X0615648Y0097604D03*
X0615648Y0110596D03*
X0596356Y0110596D03*
X0647856Y0110596D03*
X0667148Y0110596D03*
X0667148Y0097604D03*
X0647856Y0097604D03*
X0711956Y0048096D03*
X0731248Y0048096D03*
X0731248Y0035104D03*
X0711956Y0035104D03*
X0776356Y0097604D03*
X0776356Y0110596D03*
X0795648Y0110596D03*
X0795648Y0097604D03*
X0551248Y0160104D03*
X0531956Y0160104D03*
X0531956Y0173096D03*
X0551248Y0173096D03*
D12*
X0550815Y0149100D03*
X0558689Y0149100D03*
X0615815Y0087850D03*
X0623689Y0087850D03*
X0667065Y0087850D03*
X0674939Y0087850D03*
X0730815Y0149100D03*
X0738689Y0149100D03*
X0788315Y0204100D03*
X0796189Y0204100D03*
X0674939Y0212850D03*
X0667065Y0212850D03*
X0623689Y0212850D03*
X0615815Y0212850D03*
X0559139Y0277250D03*
X0551265Y0277250D03*
X0494939Y0212850D03*
X0487065Y0212850D03*
X0428689Y0214100D03*
X0420815Y0214100D03*
X0364139Y0277250D03*
X0356265Y0277250D03*
X0299639Y0214000D03*
X0291765Y0214000D03*
X0248689Y0214100D03*
X0240815Y0214100D03*
X0196189Y0159100D03*
X0188315Y0159100D03*
X0119939Y0214100D03*
X0112065Y0214100D03*
X0176265Y0276000D03*
X0184139Y0276000D03*
X0357065Y0149100D03*
X0364939Y0149100D03*
X0420815Y0089100D03*
X0428689Y0089100D03*
X0487065Y0087850D03*
X0494939Y0087850D03*
X0557065Y0029100D03*
X0564939Y0029100D03*
X0737065Y0029100D03*
X0744939Y0029100D03*
X0788315Y0081600D03*
X0796189Y0081600D03*
X0740389Y0277250D03*
X0732515Y0277250D03*
X0299939Y0089100D03*
X0292065Y0089100D03*
X0248689Y0089100D03*
X0240815Y0089100D03*
X0191189Y0029100D03*
X0183315Y0029100D03*
X0364565Y0029100D03*
X0372439Y0029100D03*
D13*
X0466002Y0132663D03*
X0466002Y0140537D03*
X0466002Y0187663D03*
X0466002Y0195537D03*
D14*
X0134835Y0037999D03*
X0127061Y0037664D03*
X0127061Y0029664D03*
X0134835Y0029999D03*
X0104444Y0073500D03*
X0097002Y0073500D03*
X0097002Y0081500D03*
X0104444Y0081500D03*
X0127202Y0119750D03*
X0127202Y0127750D03*
X0119752Y0283850D03*
X0111002Y0283850D03*
X0102252Y0283850D03*
X0102252Y0291850D03*
X0111002Y0291850D03*
X0119752Y0291850D03*
D15*
X0114870Y0036340D03*
X0114870Y0028860D03*
X0104633Y0028860D03*
X0104633Y0032600D03*
X0104633Y0036340D03*
D16*
X0145224Y0063448D03*
X0145224Y0071322D03*
X0145224Y0079196D03*
X0145224Y0087070D03*
X0145224Y0094944D03*
X0145224Y0102819D03*
X0145224Y0110693D03*
X0145224Y0118567D03*
X0204280Y0118567D03*
X0204280Y0110693D03*
X0204280Y0102819D03*
X0204280Y0094944D03*
X0204280Y0087070D03*
X0204280Y0079196D03*
X0204280Y0071322D03*
X0204280Y0063448D03*
D17*
X0194437Y0060417D03*
X0186563Y0060417D03*
X0178689Y0060417D03*
X0170815Y0060417D03*
X0162941Y0060417D03*
X0155067Y0060417D03*
D18*
X0133502Y0089850D03*
X0133502Y0095850D03*
X0118902Y0127350D03*
X0112902Y0127350D03*
X0111452Y0148400D03*
X0111502Y0154100D03*
X0117502Y0154100D03*
X0117452Y0148400D03*
X0212602Y0110650D03*
X0212602Y0104650D03*
X0212352Y0071950D03*
X0212352Y0065950D03*
X0079552Y0093400D03*
X0073552Y0093400D03*
X0125852Y0271750D03*
X0125852Y0277750D03*
X0145102Y0278300D03*
X0145102Y0272300D03*
D19*
X0092823Y0151500D03*
X0092823Y0145200D03*
X0076681Y0145200D03*
X0076681Y0151500D03*
D20*
X0103555Y0063774D02*
X0103555Y0061174D01*
X0103555Y0063774D02*
X0104107Y0063774D01*
X0104107Y0061174D01*
X0103555Y0061174D01*
X0103555Y0062457D02*
X0104107Y0062457D01*
X0104107Y0063740D02*
X0103555Y0063740D01*
X0105523Y0063774D02*
X0105523Y0061174D01*
X0105523Y0063774D02*
X0106075Y0063774D01*
X0106075Y0061174D01*
X0105523Y0061174D01*
X0105523Y0062457D02*
X0106075Y0062457D01*
X0106075Y0063740D02*
X0105523Y0063740D01*
X0107492Y0063774D02*
X0107492Y0061174D01*
X0107492Y0063774D02*
X0108044Y0063774D01*
X0108044Y0061174D01*
X0107492Y0061174D01*
X0107492Y0062457D02*
X0108044Y0062457D01*
X0108044Y0063740D02*
X0107492Y0063740D01*
X0109460Y0063774D02*
X0109460Y0061174D01*
X0109460Y0063774D02*
X0110012Y0063774D01*
X0110012Y0061174D01*
X0109460Y0061174D01*
X0109460Y0062457D02*
X0110012Y0062457D01*
X0110012Y0063740D02*
X0109460Y0063740D01*
X0111429Y0063774D02*
X0111429Y0061174D01*
X0111429Y0063774D02*
X0111981Y0063774D01*
X0111981Y0061174D01*
X0111429Y0061174D01*
X0111429Y0062457D02*
X0111981Y0062457D01*
X0111981Y0063740D02*
X0111429Y0063740D01*
X0113397Y0063774D02*
X0113397Y0061174D01*
X0113397Y0063774D02*
X0113949Y0063774D01*
X0113949Y0061174D01*
X0113397Y0061174D01*
X0113397Y0062457D02*
X0113949Y0062457D01*
X0113949Y0063740D02*
X0113397Y0063740D01*
X0115326Y0059245D02*
X0117926Y0059245D01*
X0115326Y0059245D02*
X0115326Y0059797D01*
X0117926Y0059797D01*
X0117926Y0059245D01*
X0117926Y0057277D02*
X0115326Y0057277D01*
X0115326Y0057829D01*
X0117926Y0057829D01*
X0117926Y0057277D01*
X0117926Y0055308D02*
X0115326Y0055308D01*
X0115326Y0055860D01*
X0117926Y0055860D01*
X0117926Y0055308D01*
X0117926Y0053340D02*
X0115326Y0053340D01*
X0115326Y0053892D01*
X0117926Y0053892D01*
X0117926Y0053340D01*
X0117926Y0051371D02*
X0115326Y0051371D01*
X0115326Y0051923D01*
X0117926Y0051923D01*
X0117926Y0051371D01*
X0117926Y0049403D02*
X0115326Y0049403D01*
X0115326Y0049955D01*
X0117926Y0049955D01*
X0117926Y0049403D01*
X0113949Y0048026D02*
X0113949Y0045426D01*
X0113397Y0045426D01*
X0113397Y0048026D01*
X0113949Y0048026D01*
X0113949Y0046709D02*
X0113397Y0046709D01*
X0113397Y0047992D02*
X0113949Y0047992D01*
X0111981Y0048026D02*
X0111981Y0045426D01*
X0111429Y0045426D01*
X0111429Y0048026D01*
X0111981Y0048026D01*
X0111981Y0046709D02*
X0111429Y0046709D01*
X0111429Y0047992D02*
X0111981Y0047992D01*
X0110012Y0048026D02*
X0110012Y0045426D01*
X0109460Y0045426D01*
X0109460Y0048026D01*
X0110012Y0048026D01*
X0110012Y0046709D02*
X0109460Y0046709D01*
X0109460Y0047992D02*
X0110012Y0047992D01*
X0108044Y0048026D02*
X0108044Y0045426D01*
X0107492Y0045426D01*
X0107492Y0048026D01*
X0108044Y0048026D01*
X0108044Y0046709D02*
X0107492Y0046709D01*
X0107492Y0047992D02*
X0108044Y0047992D01*
X0106075Y0048026D02*
X0106075Y0045426D01*
X0105523Y0045426D01*
X0105523Y0048026D01*
X0106075Y0048026D01*
X0106075Y0046709D02*
X0105523Y0046709D01*
X0105523Y0047992D02*
X0106075Y0047992D01*
X0104107Y0048026D02*
X0104107Y0045426D01*
X0103555Y0045426D01*
X0103555Y0048026D01*
X0104107Y0048026D01*
X0104107Y0046709D02*
X0103555Y0046709D01*
X0103555Y0047992D02*
X0104107Y0047992D01*
X0102178Y0049955D02*
X0099578Y0049955D01*
X0102178Y0049955D02*
X0102178Y0049403D01*
X0099578Y0049403D01*
X0099578Y0049955D01*
X0099578Y0051923D02*
X0102178Y0051923D01*
X0102178Y0051371D01*
X0099578Y0051371D01*
X0099578Y0051923D01*
X0099578Y0053892D02*
X0102178Y0053892D01*
X0102178Y0053340D01*
X0099578Y0053340D01*
X0099578Y0053892D01*
X0099578Y0055860D02*
X0102178Y0055860D01*
X0102178Y0055308D01*
X0099578Y0055308D01*
X0099578Y0055860D01*
X0099578Y0057829D02*
X0102178Y0057829D01*
X0102178Y0057277D01*
X0099578Y0057277D01*
X0099578Y0057829D01*
X0099578Y0059797D02*
X0102178Y0059797D01*
X0102178Y0059245D01*
X0099578Y0059245D01*
X0099578Y0059797D01*
D21*
X0108752Y0054600D03*
D22*
X0086519Y0058982D03*
X0086519Y0061541D03*
X0086519Y0064100D03*
X0086519Y0066659D03*
X0086519Y0069218D03*
D23*
X0075102Y0064100D03*
D24*
X0083763Y0071974D03*
X0083763Y0056226D03*
D25*
X0077102Y0052978D02*
X0073102Y0052978D01*
X0073102Y0075222D02*
X0077102Y0075222D01*
D26*
X0115252Y0133269D03*
X0118992Y0141537D03*
X0111512Y0141537D03*
X0111512Y0159663D03*
X0118992Y0159663D03*
X0115252Y0167931D03*
D27*
X0112252Y0300350D03*
X0102252Y0300350D03*
X0218502Y0029100D03*
X0228502Y0029100D03*
X0238502Y0029100D03*
X0248502Y0029100D03*
X0258502Y0029100D03*
X0268502Y0029100D03*
X0278502Y0029100D03*
X0288502Y0029100D03*
X0298502Y0029100D03*
X0757252Y0252850D03*
X0757252Y0262850D03*
X0773502Y0262850D03*
X0773502Y0252850D03*
X0773502Y0272850D03*
D28*
X0076218Y0032900D03*
X0084486Y0032900D03*
D29*
X0084302Y0039300D03*
X0076302Y0039300D03*
D30*
X0073502Y0105507D03*
X0073502Y0125193D03*
D31*
X0083344Y0129130D03*
X0083344Y0101570D03*
D32*
X0083552Y0284100D02*
X0090952Y0284100D01*
X0090952Y0294100D02*
X0083552Y0294100D01*
X0083552Y0304100D02*
X0090952Y0304100D01*
X0797302Y0304100D02*
X0804702Y0304100D01*
X0804702Y0294100D02*
X0797302Y0294100D01*
X0797302Y0284100D02*
X0804702Y0284100D01*
D33*
X0139539Y0274800D03*
X0131665Y0271060D03*
X0131665Y0278540D03*
M02*
