G75*
%MOIN*%
%OFA0B0*%
%FSLAX25Y25*%
%IPPOS*%
%LPD*%
%AMOC8*
5,1,8,0,0,1.08239X$1,22.5*
%
%ADD10C,0.01200*%
%ADD11C,0.00000*%
D10*
X0068502Y0031600D02*
X0068502Y0054100D01*
X0069702Y0056100D01*
X0069702Y0072100D02*
X0068502Y0074100D01*
X0068502Y0301600D01*
X0078502Y0311600D01*
X0809752Y0311600D01*
X0819752Y0301600D01*
X0819752Y0031600D01*
X0809752Y0021600D01*
X0078502Y0021600D01*
X0068502Y0031600D01*
D11*
X0073082Y0051994D02*
X0077135Y0051994D01*
X0077134Y0051993D02*
X0077195Y0051994D01*
X0077255Y0051998D01*
X0077314Y0052006D01*
X0077374Y0052017D01*
X0077432Y0052032D01*
X0077489Y0052050D01*
X0077545Y0052072D01*
X0077600Y0052097D01*
X0077653Y0052126D01*
X0077704Y0052157D01*
X0077754Y0052192D01*
X0077801Y0052230D01*
X0077846Y0052270D01*
X0077888Y0052313D01*
X0077927Y0052358D01*
X0077964Y0052406D01*
X0077998Y0052456D01*
X0078029Y0052508D01*
X0078056Y0052561D01*
X0078080Y0052616D01*
X0078101Y0052673D01*
X0078119Y0052730D01*
X0078133Y0052789D01*
X0078143Y0052848D01*
X0078150Y0052908D01*
X0078153Y0052968D01*
X0078152Y0053029D01*
X0078148Y0053090D01*
X0078140Y0053151D01*
X0078128Y0053211D01*
X0078112Y0053270D01*
X0078092Y0053328D01*
X0078069Y0053384D01*
X0078043Y0053439D01*
X0078013Y0053492D01*
X0077980Y0053544D01*
X0077944Y0053593D01*
X0077904Y0053639D01*
X0077862Y0053684D01*
X0077817Y0053725D01*
X0077770Y0053763D01*
X0077720Y0053799D01*
X0077668Y0053831D01*
X0077614Y0053860D01*
X0077559Y0053886D01*
X0077502Y0053908D01*
X0077444Y0053926D01*
X0077384Y0053940D01*
X0077324Y0053951D01*
X0077264Y0053958D01*
X0077203Y0053962D01*
X0072988Y0053962D01*
X0072928Y0053959D01*
X0072868Y0053951D01*
X0072809Y0053941D01*
X0072751Y0053926D01*
X0072693Y0053908D01*
X0072637Y0053886D01*
X0072582Y0053861D01*
X0072529Y0053833D01*
X0072478Y0053801D01*
X0072429Y0053766D01*
X0072382Y0053728D01*
X0072338Y0053687D01*
X0072296Y0053644D01*
X0072257Y0053597D01*
X0072222Y0053549D01*
X0072189Y0053498D01*
X0072159Y0053446D01*
X0072133Y0053392D01*
X0072111Y0053336D01*
X0072091Y0053279D01*
X0072076Y0053220D01*
X0072064Y0053161D01*
X0072056Y0053102D01*
X0072052Y0053042D01*
X0072051Y0052981D01*
X0072050Y0052981D02*
X0072054Y0052918D01*
X0072061Y0052855D01*
X0072072Y0052793D01*
X0072087Y0052731D01*
X0072106Y0052670D01*
X0072129Y0052611D01*
X0072156Y0052553D01*
X0072186Y0052498D01*
X0072219Y0052444D01*
X0072256Y0052392D01*
X0072296Y0052343D01*
X0072339Y0052296D01*
X0072385Y0052252D01*
X0072433Y0052211D01*
X0072484Y0052173D01*
X0072537Y0052139D01*
X0072593Y0052108D01*
X0072650Y0052080D01*
X0072708Y0052056D01*
X0072769Y0052036D01*
X0072830Y0052020D01*
X0072892Y0052007D01*
X0072955Y0051998D01*
X0073018Y0051994D01*
X0073082Y0051993D01*
X0069702Y0056100D02*
X0069702Y0072100D01*
X0073121Y0074250D02*
X0077174Y0074250D01*
X0077235Y0074252D01*
X0077297Y0074257D01*
X0077357Y0074267D01*
X0077418Y0074280D01*
X0077477Y0074296D01*
X0077535Y0074316D01*
X0077592Y0074340D01*
X0077647Y0074367D01*
X0077701Y0074397D01*
X0077752Y0074430D01*
X0077802Y0074467D01*
X0077849Y0074506D01*
X0077894Y0074548D01*
X0077936Y0074593D01*
X0077975Y0074640D01*
X0078012Y0074690D01*
X0078045Y0074741D01*
X0078075Y0074795D01*
X0078102Y0074850D01*
X0078126Y0074907D01*
X0078146Y0074965D01*
X0078162Y0075024D01*
X0078175Y0075085D01*
X0078185Y0075145D01*
X0078190Y0075207D01*
X0078192Y0075268D01*
X0078190Y0075328D01*
X0078185Y0075387D01*
X0078175Y0075446D01*
X0078162Y0075504D01*
X0078146Y0075562D01*
X0078125Y0075618D01*
X0078102Y0075672D01*
X0078074Y0075726D01*
X0078044Y0075777D01*
X0078011Y0075826D01*
X0077974Y0075874D01*
X0077935Y0075918D01*
X0077892Y0075961D01*
X0077848Y0076000D01*
X0077800Y0076037D01*
X0077751Y0076070D01*
X0077700Y0076100D01*
X0077646Y0076128D01*
X0077592Y0076151D01*
X0077536Y0076172D01*
X0077478Y0076188D01*
X0077420Y0076201D01*
X0077361Y0076211D01*
X0077302Y0076216D01*
X0077242Y0076218D01*
X0073028Y0076218D01*
X0072969Y0076216D01*
X0072911Y0076211D01*
X0072852Y0076201D01*
X0072795Y0076189D01*
X0072738Y0076172D01*
X0072683Y0076152D01*
X0072629Y0076129D01*
X0072577Y0076102D01*
X0072526Y0076072D01*
X0072477Y0076039D01*
X0072431Y0076003D01*
X0072387Y0075964D01*
X0072345Y0075922D01*
X0072306Y0075878D01*
X0072270Y0075832D01*
X0072237Y0075783D01*
X0072207Y0075732D01*
X0072180Y0075680D01*
X0072157Y0075626D01*
X0072137Y0075571D01*
X0072120Y0075514D01*
X0072108Y0075457D01*
X0072098Y0075398D01*
X0072093Y0075340D01*
X0072091Y0075281D01*
X0072090Y0075281D02*
X0072092Y0075219D01*
X0072098Y0075157D01*
X0072107Y0075095D01*
X0072120Y0075034D01*
X0072137Y0074974D01*
X0072157Y0074915D01*
X0072181Y0074858D01*
X0072208Y0074802D01*
X0072239Y0074748D01*
X0072273Y0074695D01*
X0072309Y0074645D01*
X0072349Y0074597D01*
X0072392Y0074552D01*
X0072437Y0074509D01*
X0072485Y0074469D01*
X0072535Y0074433D01*
X0072588Y0074399D01*
X0072642Y0074368D01*
X0072698Y0074341D01*
X0072755Y0074317D01*
X0072814Y0074297D01*
X0072874Y0074280D01*
X0072935Y0074267D01*
X0072997Y0074258D01*
X0073059Y0074252D01*
X0073121Y0074250D01*
X0082680Y0071974D02*
X0082682Y0072039D01*
X0082688Y0072105D01*
X0082698Y0072169D01*
X0082711Y0072233D01*
X0082729Y0072296D01*
X0082750Y0072358D01*
X0082775Y0072418D01*
X0082804Y0072477D01*
X0082836Y0072534D01*
X0082872Y0072589D01*
X0082910Y0072642D01*
X0082952Y0072692D01*
X0082997Y0072740D01*
X0083045Y0072785D01*
X0083095Y0072827D01*
X0083148Y0072865D01*
X0083203Y0072901D01*
X0083260Y0072933D01*
X0083319Y0072962D01*
X0083379Y0072987D01*
X0083441Y0073008D01*
X0083504Y0073026D01*
X0083568Y0073039D01*
X0083632Y0073049D01*
X0083698Y0073055D01*
X0083763Y0073057D01*
X0083828Y0073055D01*
X0083894Y0073049D01*
X0083958Y0073039D01*
X0084022Y0073026D01*
X0084085Y0073008D01*
X0084147Y0072987D01*
X0084207Y0072962D01*
X0084266Y0072933D01*
X0084323Y0072901D01*
X0084378Y0072865D01*
X0084431Y0072827D01*
X0084481Y0072785D01*
X0084529Y0072740D01*
X0084574Y0072692D01*
X0084616Y0072642D01*
X0084654Y0072589D01*
X0084690Y0072534D01*
X0084722Y0072477D01*
X0084751Y0072418D01*
X0084776Y0072358D01*
X0084797Y0072296D01*
X0084815Y0072233D01*
X0084828Y0072169D01*
X0084838Y0072105D01*
X0084844Y0072039D01*
X0084846Y0071974D01*
X0084844Y0071909D01*
X0084838Y0071843D01*
X0084828Y0071779D01*
X0084815Y0071715D01*
X0084797Y0071652D01*
X0084776Y0071590D01*
X0084751Y0071530D01*
X0084722Y0071471D01*
X0084690Y0071414D01*
X0084654Y0071359D01*
X0084616Y0071306D01*
X0084574Y0071256D01*
X0084529Y0071208D01*
X0084481Y0071163D01*
X0084431Y0071121D01*
X0084378Y0071083D01*
X0084323Y0071047D01*
X0084266Y0071015D01*
X0084207Y0070986D01*
X0084147Y0070961D01*
X0084085Y0070940D01*
X0084022Y0070922D01*
X0083958Y0070909D01*
X0083894Y0070899D01*
X0083828Y0070893D01*
X0083763Y0070891D01*
X0083698Y0070893D01*
X0083632Y0070899D01*
X0083568Y0070909D01*
X0083504Y0070922D01*
X0083441Y0070940D01*
X0083379Y0070961D01*
X0083319Y0070986D01*
X0083260Y0071015D01*
X0083203Y0071047D01*
X0083148Y0071083D01*
X0083095Y0071121D01*
X0083045Y0071163D01*
X0082997Y0071208D01*
X0082952Y0071256D01*
X0082910Y0071306D01*
X0082872Y0071359D01*
X0082836Y0071414D01*
X0082804Y0071471D01*
X0082775Y0071530D01*
X0082750Y0071590D01*
X0082729Y0071652D01*
X0082711Y0071715D01*
X0082698Y0071779D01*
X0082688Y0071843D01*
X0082682Y0071909D01*
X0082680Y0071974D01*
X0082680Y0056226D02*
X0082682Y0056291D01*
X0082688Y0056357D01*
X0082698Y0056421D01*
X0082711Y0056485D01*
X0082729Y0056548D01*
X0082750Y0056610D01*
X0082775Y0056670D01*
X0082804Y0056729D01*
X0082836Y0056786D01*
X0082872Y0056841D01*
X0082910Y0056894D01*
X0082952Y0056944D01*
X0082997Y0056992D01*
X0083045Y0057037D01*
X0083095Y0057079D01*
X0083148Y0057117D01*
X0083203Y0057153D01*
X0083260Y0057185D01*
X0083319Y0057214D01*
X0083379Y0057239D01*
X0083441Y0057260D01*
X0083504Y0057278D01*
X0083568Y0057291D01*
X0083632Y0057301D01*
X0083698Y0057307D01*
X0083763Y0057309D01*
X0083828Y0057307D01*
X0083894Y0057301D01*
X0083958Y0057291D01*
X0084022Y0057278D01*
X0084085Y0057260D01*
X0084147Y0057239D01*
X0084207Y0057214D01*
X0084266Y0057185D01*
X0084323Y0057153D01*
X0084378Y0057117D01*
X0084431Y0057079D01*
X0084481Y0057037D01*
X0084529Y0056992D01*
X0084574Y0056944D01*
X0084616Y0056894D01*
X0084654Y0056841D01*
X0084690Y0056786D01*
X0084722Y0056729D01*
X0084751Y0056670D01*
X0084776Y0056610D01*
X0084797Y0056548D01*
X0084815Y0056485D01*
X0084828Y0056421D01*
X0084838Y0056357D01*
X0084844Y0056291D01*
X0084846Y0056226D01*
X0084844Y0056161D01*
X0084838Y0056095D01*
X0084828Y0056031D01*
X0084815Y0055967D01*
X0084797Y0055904D01*
X0084776Y0055842D01*
X0084751Y0055782D01*
X0084722Y0055723D01*
X0084690Y0055666D01*
X0084654Y0055611D01*
X0084616Y0055558D01*
X0084574Y0055508D01*
X0084529Y0055460D01*
X0084481Y0055415D01*
X0084431Y0055373D01*
X0084378Y0055335D01*
X0084323Y0055299D01*
X0084266Y0055267D01*
X0084207Y0055238D01*
X0084147Y0055213D01*
X0084085Y0055192D01*
X0084022Y0055174D01*
X0083958Y0055161D01*
X0083894Y0055151D01*
X0083828Y0055145D01*
X0083763Y0055143D01*
X0083698Y0055145D01*
X0083632Y0055151D01*
X0083568Y0055161D01*
X0083504Y0055174D01*
X0083441Y0055192D01*
X0083379Y0055213D01*
X0083319Y0055238D01*
X0083260Y0055267D01*
X0083203Y0055299D01*
X0083148Y0055335D01*
X0083095Y0055373D01*
X0083045Y0055415D01*
X0082997Y0055460D01*
X0082952Y0055508D01*
X0082910Y0055558D01*
X0082872Y0055611D01*
X0082836Y0055666D01*
X0082804Y0055723D01*
X0082775Y0055782D01*
X0082750Y0055842D01*
X0082729Y0055904D01*
X0082711Y0055967D01*
X0082698Y0056031D01*
X0082688Y0056095D01*
X0082682Y0056161D01*
X0082680Y0056226D01*
X0253502Y0126600D02*
X0253504Y0126741D01*
X0253510Y0126882D01*
X0253520Y0127022D01*
X0253534Y0127162D01*
X0253552Y0127302D01*
X0253573Y0127441D01*
X0253599Y0127580D01*
X0253628Y0127718D01*
X0253662Y0127854D01*
X0253699Y0127990D01*
X0253740Y0128125D01*
X0253785Y0128259D01*
X0253834Y0128391D01*
X0253886Y0128522D01*
X0253942Y0128651D01*
X0254002Y0128778D01*
X0254065Y0128904D01*
X0254131Y0129028D01*
X0254202Y0129151D01*
X0254275Y0129271D01*
X0254352Y0129389D01*
X0254432Y0129505D01*
X0254516Y0129618D01*
X0254602Y0129729D01*
X0254692Y0129838D01*
X0254785Y0129944D01*
X0254880Y0130047D01*
X0254979Y0130148D01*
X0255080Y0130246D01*
X0255184Y0130341D01*
X0255291Y0130433D01*
X0255400Y0130522D01*
X0255512Y0130607D01*
X0255626Y0130690D01*
X0255742Y0130770D01*
X0255861Y0130846D01*
X0255982Y0130918D01*
X0256104Y0130988D01*
X0256229Y0131053D01*
X0256355Y0131116D01*
X0256483Y0131174D01*
X0256613Y0131229D01*
X0256744Y0131281D01*
X0256877Y0131328D01*
X0257011Y0131372D01*
X0257146Y0131413D01*
X0257282Y0131449D01*
X0257419Y0131481D01*
X0257557Y0131510D01*
X0257695Y0131535D01*
X0257835Y0131555D01*
X0257975Y0131572D01*
X0258115Y0131585D01*
X0258256Y0131594D01*
X0258396Y0131599D01*
X0258537Y0131600D01*
X0258678Y0131597D01*
X0258819Y0131590D01*
X0258959Y0131579D01*
X0259099Y0131564D01*
X0259239Y0131545D01*
X0259378Y0131523D01*
X0259516Y0131496D01*
X0259654Y0131466D01*
X0259790Y0131431D01*
X0259926Y0131393D01*
X0260060Y0131351D01*
X0260194Y0131305D01*
X0260326Y0131256D01*
X0260456Y0131202D01*
X0260585Y0131145D01*
X0260712Y0131085D01*
X0260838Y0131021D01*
X0260961Y0130953D01*
X0261083Y0130882D01*
X0261203Y0130808D01*
X0261320Y0130730D01*
X0261435Y0130649D01*
X0261548Y0130565D01*
X0261659Y0130478D01*
X0261767Y0130387D01*
X0261872Y0130294D01*
X0261975Y0130197D01*
X0262075Y0130098D01*
X0262172Y0129996D01*
X0262266Y0129891D01*
X0262357Y0129784D01*
X0262445Y0129674D01*
X0262530Y0129562D01*
X0262612Y0129447D01*
X0262691Y0129330D01*
X0262766Y0129211D01*
X0262838Y0129090D01*
X0262906Y0128967D01*
X0262971Y0128842D01*
X0263033Y0128715D01*
X0263090Y0128586D01*
X0263145Y0128456D01*
X0263195Y0128325D01*
X0263242Y0128192D01*
X0263285Y0128058D01*
X0263324Y0127922D01*
X0263359Y0127786D01*
X0263391Y0127649D01*
X0263418Y0127511D01*
X0263442Y0127372D01*
X0263462Y0127232D01*
X0263478Y0127092D01*
X0263490Y0126952D01*
X0263498Y0126811D01*
X0263502Y0126670D01*
X0263502Y0126530D01*
X0263498Y0126389D01*
X0263490Y0126248D01*
X0263478Y0126108D01*
X0263462Y0125968D01*
X0263442Y0125828D01*
X0263418Y0125689D01*
X0263391Y0125551D01*
X0263359Y0125414D01*
X0263324Y0125278D01*
X0263285Y0125142D01*
X0263242Y0125008D01*
X0263195Y0124875D01*
X0263145Y0124744D01*
X0263090Y0124614D01*
X0263033Y0124485D01*
X0262971Y0124358D01*
X0262906Y0124233D01*
X0262838Y0124110D01*
X0262766Y0123989D01*
X0262691Y0123870D01*
X0262612Y0123753D01*
X0262530Y0123638D01*
X0262445Y0123526D01*
X0262357Y0123416D01*
X0262266Y0123309D01*
X0262172Y0123204D01*
X0262075Y0123102D01*
X0261975Y0123003D01*
X0261872Y0122906D01*
X0261767Y0122813D01*
X0261659Y0122722D01*
X0261548Y0122635D01*
X0261435Y0122551D01*
X0261320Y0122470D01*
X0261203Y0122392D01*
X0261083Y0122318D01*
X0260961Y0122247D01*
X0260838Y0122179D01*
X0260712Y0122115D01*
X0260585Y0122055D01*
X0260456Y0121998D01*
X0260326Y0121944D01*
X0260194Y0121895D01*
X0260060Y0121849D01*
X0259926Y0121807D01*
X0259790Y0121769D01*
X0259654Y0121734D01*
X0259516Y0121704D01*
X0259378Y0121677D01*
X0259239Y0121655D01*
X0259099Y0121636D01*
X0258959Y0121621D01*
X0258819Y0121610D01*
X0258678Y0121603D01*
X0258537Y0121600D01*
X0258396Y0121601D01*
X0258256Y0121606D01*
X0258115Y0121615D01*
X0257975Y0121628D01*
X0257835Y0121645D01*
X0257695Y0121665D01*
X0257557Y0121690D01*
X0257419Y0121719D01*
X0257282Y0121751D01*
X0257146Y0121787D01*
X0257011Y0121828D01*
X0256877Y0121872D01*
X0256744Y0121919D01*
X0256613Y0121971D01*
X0256483Y0122026D01*
X0256355Y0122084D01*
X0256229Y0122147D01*
X0256104Y0122212D01*
X0255982Y0122282D01*
X0255861Y0122354D01*
X0255742Y0122430D01*
X0255626Y0122510D01*
X0255512Y0122593D01*
X0255400Y0122678D01*
X0255291Y0122767D01*
X0255184Y0122859D01*
X0255080Y0122954D01*
X0254979Y0123052D01*
X0254880Y0123153D01*
X0254785Y0123256D01*
X0254692Y0123362D01*
X0254602Y0123471D01*
X0254516Y0123582D01*
X0254432Y0123695D01*
X0254352Y0123811D01*
X0254275Y0123929D01*
X0254202Y0124049D01*
X0254131Y0124172D01*
X0254065Y0124296D01*
X0254002Y0124422D01*
X0253942Y0124549D01*
X0253886Y0124678D01*
X0253834Y0124809D01*
X0253785Y0124941D01*
X0253740Y0125075D01*
X0253699Y0125210D01*
X0253662Y0125346D01*
X0253628Y0125482D01*
X0253599Y0125620D01*
X0253573Y0125759D01*
X0253552Y0125898D01*
X0253534Y0126038D01*
X0253520Y0126178D01*
X0253510Y0126318D01*
X0253504Y0126459D01*
X0253502Y0126600D01*
X0253502Y0206600D02*
X0253504Y0206741D01*
X0253510Y0206882D01*
X0253520Y0207022D01*
X0253534Y0207162D01*
X0253552Y0207302D01*
X0253573Y0207441D01*
X0253599Y0207580D01*
X0253628Y0207718D01*
X0253662Y0207854D01*
X0253699Y0207990D01*
X0253740Y0208125D01*
X0253785Y0208259D01*
X0253834Y0208391D01*
X0253886Y0208522D01*
X0253942Y0208651D01*
X0254002Y0208778D01*
X0254065Y0208904D01*
X0254131Y0209028D01*
X0254202Y0209151D01*
X0254275Y0209271D01*
X0254352Y0209389D01*
X0254432Y0209505D01*
X0254516Y0209618D01*
X0254602Y0209729D01*
X0254692Y0209838D01*
X0254785Y0209944D01*
X0254880Y0210047D01*
X0254979Y0210148D01*
X0255080Y0210246D01*
X0255184Y0210341D01*
X0255291Y0210433D01*
X0255400Y0210522D01*
X0255512Y0210607D01*
X0255626Y0210690D01*
X0255742Y0210770D01*
X0255861Y0210846D01*
X0255982Y0210918D01*
X0256104Y0210988D01*
X0256229Y0211053D01*
X0256355Y0211116D01*
X0256483Y0211174D01*
X0256613Y0211229D01*
X0256744Y0211281D01*
X0256877Y0211328D01*
X0257011Y0211372D01*
X0257146Y0211413D01*
X0257282Y0211449D01*
X0257419Y0211481D01*
X0257557Y0211510D01*
X0257695Y0211535D01*
X0257835Y0211555D01*
X0257975Y0211572D01*
X0258115Y0211585D01*
X0258256Y0211594D01*
X0258396Y0211599D01*
X0258537Y0211600D01*
X0258678Y0211597D01*
X0258819Y0211590D01*
X0258959Y0211579D01*
X0259099Y0211564D01*
X0259239Y0211545D01*
X0259378Y0211523D01*
X0259516Y0211496D01*
X0259654Y0211466D01*
X0259790Y0211431D01*
X0259926Y0211393D01*
X0260060Y0211351D01*
X0260194Y0211305D01*
X0260326Y0211256D01*
X0260456Y0211202D01*
X0260585Y0211145D01*
X0260712Y0211085D01*
X0260838Y0211021D01*
X0260961Y0210953D01*
X0261083Y0210882D01*
X0261203Y0210808D01*
X0261320Y0210730D01*
X0261435Y0210649D01*
X0261548Y0210565D01*
X0261659Y0210478D01*
X0261767Y0210387D01*
X0261872Y0210294D01*
X0261975Y0210197D01*
X0262075Y0210098D01*
X0262172Y0209996D01*
X0262266Y0209891D01*
X0262357Y0209784D01*
X0262445Y0209674D01*
X0262530Y0209562D01*
X0262612Y0209447D01*
X0262691Y0209330D01*
X0262766Y0209211D01*
X0262838Y0209090D01*
X0262906Y0208967D01*
X0262971Y0208842D01*
X0263033Y0208715D01*
X0263090Y0208586D01*
X0263145Y0208456D01*
X0263195Y0208325D01*
X0263242Y0208192D01*
X0263285Y0208058D01*
X0263324Y0207922D01*
X0263359Y0207786D01*
X0263391Y0207649D01*
X0263418Y0207511D01*
X0263442Y0207372D01*
X0263462Y0207232D01*
X0263478Y0207092D01*
X0263490Y0206952D01*
X0263498Y0206811D01*
X0263502Y0206670D01*
X0263502Y0206530D01*
X0263498Y0206389D01*
X0263490Y0206248D01*
X0263478Y0206108D01*
X0263462Y0205968D01*
X0263442Y0205828D01*
X0263418Y0205689D01*
X0263391Y0205551D01*
X0263359Y0205414D01*
X0263324Y0205278D01*
X0263285Y0205142D01*
X0263242Y0205008D01*
X0263195Y0204875D01*
X0263145Y0204744D01*
X0263090Y0204614D01*
X0263033Y0204485D01*
X0262971Y0204358D01*
X0262906Y0204233D01*
X0262838Y0204110D01*
X0262766Y0203989D01*
X0262691Y0203870D01*
X0262612Y0203753D01*
X0262530Y0203638D01*
X0262445Y0203526D01*
X0262357Y0203416D01*
X0262266Y0203309D01*
X0262172Y0203204D01*
X0262075Y0203102D01*
X0261975Y0203003D01*
X0261872Y0202906D01*
X0261767Y0202813D01*
X0261659Y0202722D01*
X0261548Y0202635D01*
X0261435Y0202551D01*
X0261320Y0202470D01*
X0261203Y0202392D01*
X0261083Y0202318D01*
X0260961Y0202247D01*
X0260838Y0202179D01*
X0260712Y0202115D01*
X0260585Y0202055D01*
X0260456Y0201998D01*
X0260326Y0201944D01*
X0260194Y0201895D01*
X0260060Y0201849D01*
X0259926Y0201807D01*
X0259790Y0201769D01*
X0259654Y0201734D01*
X0259516Y0201704D01*
X0259378Y0201677D01*
X0259239Y0201655D01*
X0259099Y0201636D01*
X0258959Y0201621D01*
X0258819Y0201610D01*
X0258678Y0201603D01*
X0258537Y0201600D01*
X0258396Y0201601D01*
X0258256Y0201606D01*
X0258115Y0201615D01*
X0257975Y0201628D01*
X0257835Y0201645D01*
X0257695Y0201665D01*
X0257557Y0201690D01*
X0257419Y0201719D01*
X0257282Y0201751D01*
X0257146Y0201787D01*
X0257011Y0201828D01*
X0256877Y0201872D01*
X0256744Y0201919D01*
X0256613Y0201971D01*
X0256483Y0202026D01*
X0256355Y0202084D01*
X0256229Y0202147D01*
X0256104Y0202212D01*
X0255982Y0202282D01*
X0255861Y0202354D01*
X0255742Y0202430D01*
X0255626Y0202510D01*
X0255512Y0202593D01*
X0255400Y0202678D01*
X0255291Y0202767D01*
X0255184Y0202859D01*
X0255080Y0202954D01*
X0254979Y0203052D01*
X0254880Y0203153D01*
X0254785Y0203256D01*
X0254692Y0203362D01*
X0254602Y0203471D01*
X0254516Y0203582D01*
X0254432Y0203695D01*
X0254352Y0203811D01*
X0254275Y0203929D01*
X0254202Y0204049D01*
X0254131Y0204172D01*
X0254065Y0204296D01*
X0254002Y0204422D01*
X0253942Y0204549D01*
X0253886Y0204678D01*
X0253834Y0204809D01*
X0253785Y0204941D01*
X0253740Y0205075D01*
X0253699Y0205210D01*
X0253662Y0205346D01*
X0253628Y0205482D01*
X0253599Y0205620D01*
X0253573Y0205759D01*
X0253552Y0205898D01*
X0253534Y0206038D01*
X0253520Y0206178D01*
X0253510Y0206318D01*
X0253504Y0206459D01*
X0253502Y0206600D01*
X0077252Y0166600D02*
X0077254Y0166741D01*
X0077260Y0166882D01*
X0077270Y0167022D01*
X0077284Y0167162D01*
X0077302Y0167302D01*
X0077323Y0167441D01*
X0077349Y0167580D01*
X0077378Y0167718D01*
X0077412Y0167854D01*
X0077449Y0167990D01*
X0077490Y0168125D01*
X0077535Y0168259D01*
X0077584Y0168391D01*
X0077636Y0168522D01*
X0077692Y0168651D01*
X0077752Y0168778D01*
X0077815Y0168904D01*
X0077881Y0169028D01*
X0077952Y0169151D01*
X0078025Y0169271D01*
X0078102Y0169389D01*
X0078182Y0169505D01*
X0078266Y0169618D01*
X0078352Y0169729D01*
X0078442Y0169838D01*
X0078535Y0169944D01*
X0078630Y0170047D01*
X0078729Y0170148D01*
X0078830Y0170246D01*
X0078934Y0170341D01*
X0079041Y0170433D01*
X0079150Y0170522D01*
X0079262Y0170607D01*
X0079376Y0170690D01*
X0079492Y0170770D01*
X0079611Y0170846D01*
X0079732Y0170918D01*
X0079854Y0170988D01*
X0079979Y0171053D01*
X0080105Y0171116D01*
X0080233Y0171174D01*
X0080363Y0171229D01*
X0080494Y0171281D01*
X0080627Y0171328D01*
X0080761Y0171372D01*
X0080896Y0171413D01*
X0081032Y0171449D01*
X0081169Y0171481D01*
X0081307Y0171510D01*
X0081445Y0171535D01*
X0081585Y0171555D01*
X0081725Y0171572D01*
X0081865Y0171585D01*
X0082006Y0171594D01*
X0082146Y0171599D01*
X0082287Y0171600D01*
X0082428Y0171597D01*
X0082569Y0171590D01*
X0082709Y0171579D01*
X0082849Y0171564D01*
X0082989Y0171545D01*
X0083128Y0171523D01*
X0083266Y0171496D01*
X0083404Y0171466D01*
X0083540Y0171431D01*
X0083676Y0171393D01*
X0083810Y0171351D01*
X0083944Y0171305D01*
X0084076Y0171256D01*
X0084206Y0171202D01*
X0084335Y0171145D01*
X0084462Y0171085D01*
X0084588Y0171021D01*
X0084711Y0170953D01*
X0084833Y0170882D01*
X0084953Y0170808D01*
X0085070Y0170730D01*
X0085185Y0170649D01*
X0085298Y0170565D01*
X0085409Y0170478D01*
X0085517Y0170387D01*
X0085622Y0170294D01*
X0085725Y0170197D01*
X0085825Y0170098D01*
X0085922Y0169996D01*
X0086016Y0169891D01*
X0086107Y0169784D01*
X0086195Y0169674D01*
X0086280Y0169562D01*
X0086362Y0169447D01*
X0086441Y0169330D01*
X0086516Y0169211D01*
X0086588Y0169090D01*
X0086656Y0168967D01*
X0086721Y0168842D01*
X0086783Y0168715D01*
X0086840Y0168586D01*
X0086895Y0168456D01*
X0086945Y0168325D01*
X0086992Y0168192D01*
X0087035Y0168058D01*
X0087074Y0167922D01*
X0087109Y0167786D01*
X0087141Y0167649D01*
X0087168Y0167511D01*
X0087192Y0167372D01*
X0087212Y0167232D01*
X0087228Y0167092D01*
X0087240Y0166952D01*
X0087248Y0166811D01*
X0087252Y0166670D01*
X0087252Y0166530D01*
X0087248Y0166389D01*
X0087240Y0166248D01*
X0087228Y0166108D01*
X0087212Y0165968D01*
X0087192Y0165828D01*
X0087168Y0165689D01*
X0087141Y0165551D01*
X0087109Y0165414D01*
X0087074Y0165278D01*
X0087035Y0165142D01*
X0086992Y0165008D01*
X0086945Y0164875D01*
X0086895Y0164744D01*
X0086840Y0164614D01*
X0086783Y0164485D01*
X0086721Y0164358D01*
X0086656Y0164233D01*
X0086588Y0164110D01*
X0086516Y0163989D01*
X0086441Y0163870D01*
X0086362Y0163753D01*
X0086280Y0163638D01*
X0086195Y0163526D01*
X0086107Y0163416D01*
X0086016Y0163309D01*
X0085922Y0163204D01*
X0085825Y0163102D01*
X0085725Y0163003D01*
X0085622Y0162906D01*
X0085517Y0162813D01*
X0085409Y0162722D01*
X0085298Y0162635D01*
X0085185Y0162551D01*
X0085070Y0162470D01*
X0084953Y0162392D01*
X0084833Y0162318D01*
X0084711Y0162247D01*
X0084588Y0162179D01*
X0084462Y0162115D01*
X0084335Y0162055D01*
X0084206Y0161998D01*
X0084076Y0161944D01*
X0083944Y0161895D01*
X0083810Y0161849D01*
X0083676Y0161807D01*
X0083540Y0161769D01*
X0083404Y0161734D01*
X0083266Y0161704D01*
X0083128Y0161677D01*
X0082989Y0161655D01*
X0082849Y0161636D01*
X0082709Y0161621D01*
X0082569Y0161610D01*
X0082428Y0161603D01*
X0082287Y0161600D01*
X0082146Y0161601D01*
X0082006Y0161606D01*
X0081865Y0161615D01*
X0081725Y0161628D01*
X0081585Y0161645D01*
X0081445Y0161665D01*
X0081307Y0161690D01*
X0081169Y0161719D01*
X0081032Y0161751D01*
X0080896Y0161787D01*
X0080761Y0161828D01*
X0080627Y0161872D01*
X0080494Y0161919D01*
X0080363Y0161971D01*
X0080233Y0162026D01*
X0080105Y0162084D01*
X0079979Y0162147D01*
X0079854Y0162212D01*
X0079732Y0162282D01*
X0079611Y0162354D01*
X0079492Y0162430D01*
X0079376Y0162510D01*
X0079262Y0162593D01*
X0079150Y0162678D01*
X0079041Y0162767D01*
X0078934Y0162859D01*
X0078830Y0162954D01*
X0078729Y0163052D01*
X0078630Y0163153D01*
X0078535Y0163256D01*
X0078442Y0163362D01*
X0078352Y0163471D01*
X0078266Y0163582D01*
X0078182Y0163695D01*
X0078102Y0163811D01*
X0078025Y0163929D01*
X0077952Y0164049D01*
X0077881Y0164172D01*
X0077815Y0164296D01*
X0077752Y0164422D01*
X0077692Y0164549D01*
X0077636Y0164678D01*
X0077584Y0164809D01*
X0077535Y0164941D01*
X0077490Y0165075D01*
X0077449Y0165210D01*
X0077412Y0165346D01*
X0077378Y0165482D01*
X0077349Y0165620D01*
X0077323Y0165759D01*
X0077302Y0165898D01*
X0077284Y0166038D01*
X0077270Y0166178D01*
X0077260Y0166318D01*
X0077254Y0166459D01*
X0077252Y0166600D01*
X0441002Y0166600D02*
X0441004Y0166741D01*
X0441010Y0166882D01*
X0441020Y0167022D01*
X0441034Y0167162D01*
X0441052Y0167302D01*
X0441073Y0167441D01*
X0441099Y0167580D01*
X0441128Y0167718D01*
X0441162Y0167854D01*
X0441199Y0167990D01*
X0441240Y0168125D01*
X0441285Y0168259D01*
X0441334Y0168391D01*
X0441386Y0168522D01*
X0441442Y0168651D01*
X0441502Y0168778D01*
X0441565Y0168904D01*
X0441631Y0169028D01*
X0441702Y0169151D01*
X0441775Y0169271D01*
X0441852Y0169389D01*
X0441932Y0169505D01*
X0442016Y0169618D01*
X0442102Y0169729D01*
X0442192Y0169838D01*
X0442285Y0169944D01*
X0442380Y0170047D01*
X0442479Y0170148D01*
X0442580Y0170246D01*
X0442684Y0170341D01*
X0442791Y0170433D01*
X0442900Y0170522D01*
X0443012Y0170607D01*
X0443126Y0170690D01*
X0443242Y0170770D01*
X0443361Y0170846D01*
X0443482Y0170918D01*
X0443604Y0170988D01*
X0443729Y0171053D01*
X0443855Y0171116D01*
X0443983Y0171174D01*
X0444113Y0171229D01*
X0444244Y0171281D01*
X0444377Y0171328D01*
X0444511Y0171372D01*
X0444646Y0171413D01*
X0444782Y0171449D01*
X0444919Y0171481D01*
X0445057Y0171510D01*
X0445195Y0171535D01*
X0445335Y0171555D01*
X0445475Y0171572D01*
X0445615Y0171585D01*
X0445756Y0171594D01*
X0445896Y0171599D01*
X0446037Y0171600D01*
X0446178Y0171597D01*
X0446319Y0171590D01*
X0446459Y0171579D01*
X0446599Y0171564D01*
X0446739Y0171545D01*
X0446878Y0171523D01*
X0447016Y0171496D01*
X0447154Y0171466D01*
X0447290Y0171431D01*
X0447426Y0171393D01*
X0447560Y0171351D01*
X0447694Y0171305D01*
X0447826Y0171256D01*
X0447956Y0171202D01*
X0448085Y0171145D01*
X0448212Y0171085D01*
X0448338Y0171021D01*
X0448461Y0170953D01*
X0448583Y0170882D01*
X0448703Y0170808D01*
X0448820Y0170730D01*
X0448935Y0170649D01*
X0449048Y0170565D01*
X0449159Y0170478D01*
X0449267Y0170387D01*
X0449372Y0170294D01*
X0449475Y0170197D01*
X0449575Y0170098D01*
X0449672Y0169996D01*
X0449766Y0169891D01*
X0449857Y0169784D01*
X0449945Y0169674D01*
X0450030Y0169562D01*
X0450112Y0169447D01*
X0450191Y0169330D01*
X0450266Y0169211D01*
X0450338Y0169090D01*
X0450406Y0168967D01*
X0450471Y0168842D01*
X0450533Y0168715D01*
X0450590Y0168586D01*
X0450645Y0168456D01*
X0450695Y0168325D01*
X0450742Y0168192D01*
X0450785Y0168058D01*
X0450824Y0167922D01*
X0450859Y0167786D01*
X0450891Y0167649D01*
X0450918Y0167511D01*
X0450942Y0167372D01*
X0450962Y0167232D01*
X0450978Y0167092D01*
X0450990Y0166952D01*
X0450998Y0166811D01*
X0451002Y0166670D01*
X0451002Y0166530D01*
X0450998Y0166389D01*
X0450990Y0166248D01*
X0450978Y0166108D01*
X0450962Y0165968D01*
X0450942Y0165828D01*
X0450918Y0165689D01*
X0450891Y0165551D01*
X0450859Y0165414D01*
X0450824Y0165278D01*
X0450785Y0165142D01*
X0450742Y0165008D01*
X0450695Y0164875D01*
X0450645Y0164744D01*
X0450590Y0164614D01*
X0450533Y0164485D01*
X0450471Y0164358D01*
X0450406Y0164233D01*
X0450338Y0164110D01*
X0450266Y0163989D01*
X0450191Y0163870D01*
X0450112Y0163753D01*
X0450030Y0163638D01*
X0449945Y0163526D01*
X0449857Y0163416D01*
X0449766Y0163309D01*
X0449672Y0163204D01*
X0449575Y0163102D01*
X0449475Y0163003D01*
X0449372Y0162906D01*
X0449267Y0162813D01*
X0449159Y0162722D01*
X0449048Y0162635D01*
X0448935Y0162551D01*
X0448820Y0162470D01*
X0448703Y0162392D01*
X0448583Y0162318D01*
X0448461Y0162247D01*
X0448338Y0162179D01*
X0448212Y0162115D01*
X0448085Y0162055D01*
X0447956Y0161998D01*
X0447826Y0161944D01*
X0447694Y0161895D01*
X0447560Y0161849D01*
X0447426Y0161807D01*
X0447290Y0161769D01*
X0447154Y0161734D01*
X0447016Y0161704D01*
X0446878Y0161677D01*
X0446739Y0161655D01*
X0446599Y0161636D01*
X0446459Y0161621D01*
X0446319Y0161610D01*
X0446178Y0161603D01*
X0446037Y0161600D01*
X0445896Y0161601D01*
X0445756Y0161606D01*
X0445615Y0161615D01*
X0445475Y0161628D01*
X0445335Y0161645D01*
X0445195Y0161665D01*
X0445057Y0161690D01*
X0444919Y0161719D01*
X0444782Y0161751D01*
X0444646Y0161787D01*
X0444511Y0161828D01*
X0444377Y0161872D01*
X0444244Y0161919D01*
X0444113Y0161971D01*
X0443983Y0162026D01*
X0443855Y0162084D01*
X0443729Y0162147D01*
X0443604Y0162212D01*
X0443482Y0162282D01*
X0443361Y0162354D01*
X0443242Y0162430D01*
X0443126Y0162510D01*
X0443012Y0162593D01*
X0442900Y0162678D01*
X0442791Y0162767D01*
X0442684Y0162859D01*
X0442580Y0162954D01*
X0442479Y0163052D01*
X0442380Y0163153D01*
X0442285Y0163256D01*
X0442192Y0163362D01*
X0442102Y0163471D01*
X0442016Y0163582D01*
X0441932Y0163695D01*
X0441852Y0163811D01*
X0441775Y0163929D01*
X0441702Y0164049D01*
X0441631Y0164172D01*
X0441565Y0164296D01*
X0441502Y0164422D01*
X0441442Y0164549D01*
X0441386Y0164678D01*
X0441334Y0164809D01*
X0441285Y0164941D01*
X0441240Y0165075D01*
X0441199Y0165210D01*
X0441162Y0165346D01*
X0441128Y0165482D01*
X0441099Y0165620D01*
X0441073Y0165759D01*
X0441052Y0165898D01*
X0441034Y0166038D01*
X0441020Y0166178D01*
X0441010Y0166318D01*
X0441004Y0166459D01*
X0441002Y0166600D01*
X0628502Y0126600D02*
X0628504Y0126741D01*
X0628510Y0126882D01*
X0628520Y0127022D01*
X0628534Y0127162D01*
X0628552Y0127302D01*
X0628573Y0127441D01*
X0628599Y0127580D01*
X0628628Y0127718D01*
X0628662Y0127854D01*
X0628699Y0127990D01*
X0628740Y0128125D01*
X0628785Y0128259D01*
X0628834Y0128391D01*
X0628886Y0128522D01*
X0628942Y0128651D01*
X0629002Y0128778D01*
X0629065Y0128904D01*
X0629131Y0129028D01*
X0629202Y0129151D01*
X0629275Y0129271D01*
X0629352Y0129389D01*
X0629432Y0129505D01*
X0629516Y0129618D01*
X0629602Y0129729D01*
X0629692Y0129838D01*
X0629785Y0129944D01*
X0629880Y0130047D01*
X0629979Y0130148D01*
X0630080Y0130246D01*
X0630184Y0130341D01*
X0630291Y0130433D01*
X0630400Y0130522D01*
X0630512Y0130607D01*
X0630626Y0130690D01*
X0630742Y0130770D01*
X0630861Y0130846D01*
X0630982Y0130918D01*
X0631104Y0130988D01*
X0631229Y0131053D01*
X0631355Y0131116D01*
X0631483Y0131174D01*
X0631613Y0131229D01*
X0631744Y0131281D01*
X0631877Y0131328D01*
X0632011Y0131372D01*
X0632146Y0131413D01*
X0632282Y0131449D01*
X0632419Y0131481D01*
X0632557Y0131510D01*
X0632695Y0131535D01*
X0632835Y0131555D01*
X0632975Y0131572D01*
X0633115Y0131585D01*
X0633256Y0131594D01*
X0633396Y0131599D01*
X0633537Y0131600D01*
X0633678Y0131597D01*
X0633819Y0131590D01*
X0633959Y0131579D01*
X0634099Y0131564D01*
X0634239Y0131545D01*
X0634378Y0131523D01*
X0634516Y0131496D01*
X0634654Y0131466D01*
X0634790Y0131431D01*
X0634926Y0131393D01*
X0635060Y0131351D01*
X0635194Y0131305D01*
X0635326Y0131256D01*
X0635456Y0131202D01*
X0635585Y0131145D01*
X0635712Y0131085D01*
X0635838Y0131021D01*
X0635961Y0130953D01*
X0636083Y0130882D01*
X0636203Y0130808D01*
X0636320Y0130730D01*
X0636435Y0130649D01*
X0636548Y0130565D01*
X0636659Y0130478D01*
X0636767Y0130387D01*
X0636872Y0130294D01*
X0636975Y0130197D01*
X0637075Y0130098D01*
X0637172Y0129996D01*
X0637266Y0129891D01*
X0637357Y0129784D01*
X0637445Y0129674D01*
X0637530Y0129562D01*
X0637612Y0129447D01*
X0637691Y0129330D01*
X0637766Y0129211D01*
X0637838Y0129090D01*
X0637906Y0128967D01*
X0637971Y0128842D01*
X0638033Y0128715D01*
X0638090Y0128586D01*
X0638145Y0128456D01*
X0638195Y0128325D01*
X0638242Y0128192D01*
X0638285Y0128058D01*
X0638324Y0127922D01*
X0638359Y0127786D01*
X0638391Y0127649D01*
X0638418Y0127511D01*
X0638442Y0127372D01*
X0638462Y0127232D01*
X0638478Y0127092D01*
X0638490Y0126952D01*
X0638498Y0126811D01*
X0638502Y0126670D01*
X0638502Y0126530D01*
X0638498Y0126389D01*
X0638490Y0126248D01*
X0638478Y0126108D01*
X0638462Y0125968D01*
X0638442Y0125828D01*
X0638418Y0125689D01*
X0638391Y0125551D01*
X0638359Y0125414D01*
X0638324Y0125278D01*
X0638285Y0125142D01*
X0638242Y0125008D01*
X0638195Y0124875D01*
X0638145Y0124744D01*
X0638090Y0124614D01*
X0638033Y0124485D01*
X0637971Y0124358D01*
X0637906Y0124233D01*
X0637838Y0124110D01*
X0637766Y0123989D01*
X0637691Y0123870D01*
X0637612Y0123753D01*
X0637530Y0123638D01*
X0637445Y0123526D01*
X0637357Y0123416D01*
X0637266Y0123309D01*
X0637172Y0123204D01*
X0637075Y0123102D01*
X0636975Y0123003D01*
X0636872Y0122906D01*
X0636767Y0122813D01*
X0636659Y0122722D01*
X0636548Y0122635D01*
X0636435Y0122551D01*
X0636320Y0122470D01*
X0636203Y0122392D01*
X0636083Y0122318D01*
X0635961Y0122247D01*
X0635838Y0122179D01*
X0635712Y0122115D01*
X0635585Y0122055D01*
X0635456Y0121998D01*
X0635326Y0121944D01*
X0635194Y0121895D01*
X0635060Y0121849D01*
X0634926Y0121807D01*
X0634790Y0121769D01*
X0634654Y0121734D01*
X0634516Y0121704D01*
X0634378Y0121677D01*
X0634239Y0121655D01*
X0634099Y0121636D01*
X0633959Y0121621D01*
X0633819Y0121610D01*
X0633678Y0121603D01*
X0633537Y0121600D01*
X0633396Y0121601D01*
X0633256Y0121606D01*
X0633115Y0121615D01*
X0632975Y0121628D01*
X0632835Y0121645D01*
X0632695Y0121665D01*
X0632557Y0121690D01*
X0632419Y0121719D01*
X0632282Y0121751D01*
X0632146Y0121787D01*
X0632011Y0121828D01*
X0631877Y0121872D01*
X0631744Y0121919D01*
X0631613Y0121971D01*
X0631483Y0122026D01*
X0631355Y0122084D01*
X0631229Y0122147D01*
X0631104Y0122212D01*
X0630982Y0122282D01*
X0630861Y0122354D01*
X0630742Y0122430D01*
X0630626Y0122510D01*
X0630512Y0122593D01*
X0630400Y0122678D01*
X0630291Y0122767D01*
X0630184Y0122859D01*
X0630080Y0122954D01*
X0629979Y0123052D01*
X0629880Y0123153D01*
X0629785Y0123256D01*
X0629692Y0123362D01*
X0629602Y0123471D01*
X0629516Y0123582D01*
X0629432Y0123695D01*
X0629352Y0123811D01*
X0629275Y0123929D01*
X0629202Y0124049D01*
X0629131Y0124172D01*
X0629065Y0124296D01*
X0629002Y0124422D01*
X0628942Y0124549D01*
X0628886Y0124678D01*
X0628834Y0124809D01*
X0628785Y0124941D01*
X0628740Y0125075D01*
X0628699Y0125210D01*
X0628662Y0125346D01*
X0628628Y0125482D01*
X0628599Y0125620D01*
X0628573Y0125759D01*
X0628552Y0125898D01*
X0628534Y0126038D01*
X0628520Y0126178D01*
X0628510Y0126318D01*
X0628504Y0126459D01*
X0628502Y0126600D01*
X0628502Y0206600D02*
X0628504Y0206741D01*
X0628510Y0206882D01*
X0628520Y0207022D01*
X0628534Y0207162D01*
X0628552Y0207302D01*
X0628573Y0207441D01*
X0628599Y0207580D01*
X0628628Y0207718D01*
X0628662Y0207854D01*
X0628699Y0207990D01*
X0628740Y0208125D01*
X0628785Y0208259D01*
X0628834Y0208391D01*
X0628886Y0208522D01*
X0628942Y0208651D01*
X0629002Y0208778D01*
X0629065Y0208904D01*
X0629131Y0209028D01*
X0629202Y0209151D01*
X0629275Y0209271D01*
X0629352Y0209389D01*
X0629432Y0209505D01*
X0629516Y0209618D01*
X0629602Y0209729D01*
X0629692Y0209838D01*
X0629785Y0209944D01*
X0629880Y0210047D01*
X0629979Y0210148D01*
X0630080Y0210246D01*
X0630184Y0210341D01*
X0630291Y0210433D01*
X0630400Y0210522D01*
X0630512Y0210607D01*
X0630626Y0210690D01*
X0630742Y0210770D01*
X0630861Y0210846D01*
X0630982Y0210918D01*
X0631104Y0210988D01*
X0631229Y0211053D01*
X0631355Y0211116D01*
X0631483Y0211174D01*
X0631613Y0211229D01*
X0631744Y0211281D01*
X0631877Y0211328D01*
X0632011Y0211372D01*
X0632146Y0211413D01*
X0632282Y0211449D01*
X0632419Y0211481D01*
X0632557Y0211510D01*
X0632695Y0211535D01*
X0632835Y0211555D01*
X0632975Y0211572D01*
X0633115Y0211585D01*
X0633256Y0211594D01*
X0633396Y0211599D01*
X0633537Y0211600D01*
X0633678Y0211597D01*
X0633819Y0211590D01*
X0633959Y0211579D01*
X0634099Y0211564D01*
X0634239Y0211545D01*
X0634378Y0211523D01*
X0634516Y0211496D01*
X0634654Y0211466D01*
X0634790Y0211431D01*
X0634926Y0211393D01*
X0635060Y0211351D01*
X0635194Y0211305D01*
X0635326Y0211256D01*
X0635456Y0211202D01*
X0635585Y0211145D01*
X0635712Y0211085D01*
X0635838Y0211021D01*
X0635961Y0210953D01*
X0636083Y0210882D01*
X0636203Y0210808D01*
X0636320Y0210730D01*
X0636435Y0210649D01*
X0636548Y0210565D01*
X0636659Y0210478D01*
X0636767Y0210387D01*
X0636872Y0210294D01*
X0636975Y0210197D01*
X0637075Y0210098D01*
X0637172Y0209996D01*
X0637266Y0209891D01*
X0637357Y0209784D01*
X0637445Y0209674D01*
X0637530Y0209562D01*
X0637612Y0209447D01*
X0637691Y0209330D01*
X0637766Y0209211D01*
X0637838Y0209090D01*
X0637906Y0208967D01*
X0637971Y0208842D01*
X0638033Y0208715D01*
X0638090Y0208586D01*
X0638145Y0208456D01*
X0638195Y0208325D01*
X0638242Y0208192D01*
X0638285Y0208058D01*
X0638324Y0207922D01*
X0638359Y0207786D01*
X0638391Y0207649D01*
X0638418Y0207511D01*
X0638442Y0207372D01*
X0638462Y0207232D01*
X0638478Y0207092D01*
X0638490Y0206952D01*
X0638498Y0206811D01*
X0638502Y0206670D01*
X0638502Y0206530D01*
X0638498Y0206389D01*
X0638490Y0206248D01*
X0638478Y0206108D01*
X0638462Y0205968D01*
X0638442Y0205828D01*
X0638418Y0205689D01*
X0638391Y0205551D01*
X0638359Y0205414D01*
X0638324Y0205278D01*
X0638285Y0205142D01*
X0638242Y0205008D01*
X0638195Y0204875D01*
X0638145Y0204744D01*
X0638090Y0204614D01*
X0638033Y0204485D01*
X0637971Y0204358D01*
X0637906Y0204233D01*
X0637838Y0204110D01*
X0637766Y0203989D01*
X0637691Y0203870D01*
X0637612Y0203753D01*
X0637530Y0203638D01*
X0637445Y0203526D01*
X0637357Y0203416D01*
X0637266Y0203309D01*
X0637172Y0203204D01*
X0637075Y0203102D01*
X0636975Y0203003D01*
X0636872Y0202906D01*
X0636767Y0202813D01*
X0636659Y0202722D01*
X0636548Y0202635D01*
X0636435Y0202551D01*
X0636320Y0202470D01*
X0636203Y0202392D01*
X0636083Y0202318D01*
X0635961Y0202247D01*
X0635838Y0202179D01*
X0635712Y0202115D01*
X0635585Y0202055D01*
X0635456Y0201998D01*
X0635326Y0201944D01*
X0635194Y0201895D01*
X0635060Y0201849D01*
X0634926Y0201807D01*
X0634790Y0201769D01*
X0634654Y0201734D01*
X0634516Y0201704D01*
X0634378Y0201677D01*
X0634239Y0201655D01*
X0634099Y0201636D01*
X0633959Y0201621D01*
X0633819Y0201610D01*
X0633678Y0201603D01*
X0633537Y0201600D01*
X0633396Y0201601D01*
X0633256Y0201606D01*
X0633115Y0201615D01*
X0632975Y0201628D01*
X0632835Y0201645D01*
X0632695Y0201665D01*
X0632557Y0201690D01*
X0632419Y0201719D01*
X0632282Y0201751D01*
X0632146Y0201787D01*
X0632011Y0201828D01*
X0631877Y0201872D01*
X0631744Y0201919D01*
X0631613Y0201971D01*
X0631483Y0202026D01*
X0631355Y0202084D01*
X0631229Y0202147D01*
X0631104Y0202212D01*
X0630982Y0202282D01*
X0630861Y0202354D01*
X0630742Y0202430D01*
X0630626Y0202510D01*
X0630512Y0202593D01*
X0630400Y0202678D01*
X0630291Y0202767D01*
X0630184Y0202859D01*
X0630080Y0202954D01*
X0629979Y0203052D01*
X0629880Y0203153D01*
X0629785Y0203256D01*
X0629692Y0203362D01*
X0629602Y0203471D01*
X0629516Y0203582D01*
X0629432Y0203695D01*
X0629352Y0203811D01*
X0629275Y0203929D01*
X0629202Y0204049D01*
X0629131Y0204172D01*
X0629065Y0204296D01*
X0629002Y0204422D01*
X0628942Y0204549D01*
X0628886Y0204678D01*
X0628834Y0204809D01*
X0628785Y0204941D01*
X0628740Y0205075D01*
X0628699Y0205210D01*
X0628662Y0205346D01*
X0628628Y0205482D01*
X0628599Y0205620D01*
X0628573Y0205759D01*
X0628552Y0205898D01*
X0628534Y0206038D01*
X0628520Y0206178D01*
X0628510Y0206318D01*
X0628504Y0206459D01*
X0628502Y0206600D01*
X0801252Y0166600D02*
X0801254Y0166741D01*
X0801260Y0166882D01*
X0801270Y0167022D01*
X0801284Y0167162D01*
X0801302Y0167302D01*
X0801323Y0167441D01*
X0801349Y0167580D01*
X0801378Y0167718D01*
X0801412Y0167854D01*
X0801449Y0167990D01*
X0801490Y0168125D01*
X0801535Y0168259D01*
X0801584Y0168391D01*
X0801636Y0168522D01*
X0801692Y0168651D01*
X0801752Y0168778D01*
X0801815Y0168904D01*
X0801881Y0169028D01*
X0801952Y0169151D01*
X0802025Y0169271D01*
X0802102Y0169389D01*
X0802182Y0169505D01*
X0802266Y0169618D01*
X0802352Y0169729D01*
X0802442Y0169838D01*
X0802535Y0169944D01*
X0802630Y0170047D01*
X0802729Y0170148D01*
X0802830Y0170246D01*
X0802934Y0170341D01*
X0803041Y0170433D01*
X0803150Y0170522D01*
X0803262Y0170607D01*
X0803376Y0170690D01*
X0803492Y0170770D01*
X0803611Y0170846D01*
X0803732Y0170918D01*
X0803854Y0170988D01*
X0803979Y0171053D01*
X0804105Y0171116D01*
X0804233Y0171174D01*
X0804363Y0171229D01*
X0804494Y0171281D01*
X0804627Y0171328D01*
X0804761Y0171372D01*
X0804896Y0171413D01*
X0805032Y0171449D01*
X0805169Y0171481D01*
X0805307Y0171510D01*
X0805445Y0171535D01*
X0805585Y0171555D01*
X0805725Y0171572D01*
X0805865Y0171585D01*
X0806006Y0171594D01*
X0806146Y0171599D01*
X0806287Y0171600D01*
X0806428Y0171597D01*
X0806569Y0171590D01*
X0806709Y0171579D01*
X0806849Y0171564D01*
X0806989Y0171545D01*
X0807128Y0171523D01*
X0807266Y0171496D01*
X0807404Y0171466D01*
X0807540Y0171431D01*
X0807676Y0171393D01*
X0807810Y0171351D01*
X0807944Y0171305D01*
X0808076Y0171256D01*
X0808206Y0171202D01*
X0808335Y0171145D01*
X0808462Y0171085D01*
X0808588Y0171021D01*
X0808711Y0170953D01*
X0808833Y0170882D01*
X0808953Y0170808D01*
X0809070Y0170730D01*
X0809185Y0170649D01*
X0809298Y0170565D01*
X0809409Y0170478D01*
X0809517Y0170387D01*
X0809622Y0170294D01*
X0809725Y0170197D01*
X0809825Y0170098D01*
X0809922Y0169996D01*
X0810016Y0169891D01*
X0810107Y0169784D01*
X0810195Y0169674D01*
X0810280Y0169562D01*
X0810362Y0169447D01*
X0810441Y0169330D01*
X0810516Y0169211D01*
X0810588Y0169090D01*
X0810656Y0168967D01*
X0810721Y0168842D01*
X0810783Y0168715D01*
X0810840Y0168586D01*
X0810895Y0168456D01*
X0810945Y0168325D01*
X0810992Y0168192D01*
X0811035Y0168058D01*
X0811074Y0167922D01*
X0811109Y0167786D01*
X0811141Y0167649D01*
X0811168Y0167511D01*
X0811192Y0167372D01*
X0811212Y0167232D01*
X0811228Y0167092D01*
X0811240Y0166952D01*
X0811248Y0166811D01*
X0811252Y0166670D01*
X0811252Y0166530D01*
X0811248Y0166389D01*
X0811240Y0166248D01*
X0811228Y0166108D01*
X0811212Y0165968D01*
X0811192Y0165828D01*
X0811168Y0165689D01*
X0811141Y0165551D01*
X0811109Y0165414D01*
X0811074Y0165278D01*
X0811035Y0165142D01*
X0810992Y0165008D01*
X0810945Y0164875D01*
X0810895Y0164744D01*
X0810840Y0164614D01*
X0810783Y0164485D01*
X0810721Y0164358D01*
X0810656Y0164233D01*
X0810588Y0164110D01*
X0810516Y0163989D01*
X0810441Y0163870D01*
X0810362Y0163753D01*
X0810280Y0163638D01*
X0810195Y0163526D01*
X0810107Y0163416D01*
X0810016Y0163309D01*
X0809922Y0163204D01*
X0809825Y0163102D01*
X0809725Y0163003D01*
X0809622Y0162906D01*
X0809517Y0162813D01*
X0809409Y0162722D01*
X0809298Y0162635D01*
X0809185Y0162551D01*
X0809070Y0162470D01*
X0808953Y0162392D01*
X0808833Y0162318D01*
X0808711Y0162247D01*
X0808588Y0162179D01*
X0808462Y0162115D01*
X0808335Y0162055D01*
X0808206Y0161998D01*
X0808076Y0161944D01*
X0807944Y0161895D01*
X0807810Y0161849D01*
X0807676Y0161807D01*
X0807540Y0161769D01*
X0807404Y0161734D01*
X0807266Y0161704D01*
X0807128Y0161677D01*
X0806989Y0161655D01*
X0806849Y0161636D01*
X0806709Y0161621D01*
X0806569Y0161610D01*
X0806428Y0161603D01*
X0806287Y0161600D01*
X0806146Y0161601D01*
X0806006Y0161606D01*
X0805865Y0161615D01*
X0805725Y0161628D01*
X0805585Y0161645D01*
X0805445Y0161665D01*
X0805307Y0161690D01*
X0805169Y0161719D01*
X0805032Y0161751D01*
X0804896Y0161787D01*
X0804761Y0161828D01*
X0804627Y0161872D01*
X0804494Y0161919D01*
X0804363Y0161971D01*
X0804233Y0162026D01*
X0804105Y0162084D01*
X0803979Y0162147D01*
X0803854Y0162212D01*
X0803732Y0162282D01*
X0803611Y0162354D01*
X0803492Y0162430D01*
X0803376Y0162510D01*
X0803262Y0162593D01*
X0803150Y0162678D01*
X0803041Y0162767D01*
X0802934Y0162859D01*
X0802830Y0162954D01*
X0802729Y0163052D01*
X0802630Y0163153D01*
X0802535Y0163256D01*
X0802442Y0163362D01*
X0802352Y0163471D01*
X0802266Y0163582D01*
X0802182Y0163695D01*
X0802102Y0163811D01*
X0802025Y0163929D01*
X0801952Y0164049D01*
X0801881Y0164172D01*
X0801815Y0164296D01*
X0801752Y0164422D01*
X0801692Y0164549D01*
X0801636Y0164678D01*
X0801584Y0164809D01*
X0801535Y0164941D01*
X0801490Y0165075D01*
X0801449Y0165210D01*
X0801412Y0165346D01*
X0801378Y0165482D01*
X0801349Y0165620D01*
X0801323Y0165759D01*
X0801302Y0165898D01*
X0801284Y0166038D01*
X0801270Y0166178D01*
X0801260Y0166318D01*
X0801254Y0166459D01*
X0801252Y0166600D01*
M02*
